<?xml version="1.0" encoding="utf-8" standalone="no"?>
<!DOCTYPE svg PUBLIC "-//W3C//DTD SVG 1.1//EN"
  "http://www.w3.org/Graphics/SVG/1.1/DTD/svg11.dtd">
<!-- Created with matplotlib (http://matplotlib.org/) -->
<svg height="648pt" version="1.1" viewBox="0 0 1080 648" width="1080pt" xmlns="http://www.w3.org/2000/svg" xmlns:xlink="http://www.w3.org/1999/xlink">
 <defs>
  <style type="text/css">
*{stroke-linecap:butt;stroke-linejoin:round;}
  </style>
 </defs>
 <g id="figure_1">
  <g id="patch_1">
   <path d="M 0 648 
L 1080 648 
L 1080 0 
L 0 0 
z
"/>
  </g>
  <g id="axes_1">
   <g id="patch_2">
    <path d="M 135 576.72 
L 515.454545 576.72 
L 515.454545 77.76 
L 135 77.76 
z
"/>
   </g>
   <g id="matplotlib.axis_1">
    <g id="xtick_1">
     <g id="line2d_1">
      <defs>
       <path d="M 0 0 
L 0 3.5 
" id="mfa06117baf" style="stroke:#ffffff;stroke-width:0.8;"/>
      </defs>
      <g>
       <use style="fill:#ffffff;stroke:#ffffff;stroke-width:0.8;" x="152.293388" xlink:href="#mfa06117baf" y="576.72"/>
      </g>
     </g>
     <g id="text_1">
      <!-- 0 -->
      <defs>
       <path d="M 31.78125 66.40625 
Q 24.171875 66.40625 20.328125 58.90625 
Q 16.5 51.421875 16.5 36.375 
Q 16.5 21.390625 20.328125 13.890625 
Q 24.171875 6.390625 31.78125 6.390625 
Q 39.453125 6.390625 43.28125 13.890625 
Q 47.125 21.390625 47.125 36.375 
Q 47.125 51.421875 43.28125 58.90625 
Q 39.453125 66.40625 31.78125 66.40625 
z
M 31.78125 74.21875 
Q 44.046875 74.21875 50.515625 64.515625 
Q 56.984375 54.828125 56.984375 36.375 
Q 56.984375 17.96875 50.515625 8.265625 
Q 44.046875 -1.421875 31.78125 -1.421875 
Q 19.53125 -1.421875 13.0625 8.265625 
Q 6.59375 17.96875 6.59375 36.375 
Q 6.59375 54.828125 13.0625 64.515625 
Q 19.53125 74.21875 31.78125 74.21875 
z
" id="DejaVuSans-30"/>
      </defs>
      <g style="fill:#ffffff;" transform="translate(148.157763 593.597969)scale(0.13 -0.13)">
       <use xlink:href="#DejaVuSans-30"/>
      </g>
     </g>
    </g>
    <g id="xtick_2">
     <g id="line2d_2">
      <g>
       <use style="fill:#ffffff;stroke:#ffffff;stroke-width:0.8;" x="215.872022" xlink:href="#mfa06117baf" y="576.72"/>
      </g>
     </g>
     <g id="text_2">
      <!-- 100 -->
      <defs>
       <path d="M 12.40625 8.296875 
L 28.515625 8.296875 
L 28.515625 63.921875 
L 10.984375 60.40625 
L 10.984375 69.390625 
L 28.421875 72.90625 
L 38.28125 72.90625 
L 38.28125 8.296875 
L 54.390625 8.296875 
L 54.390625 0 
L 12.40625 0 
z
" id="DejaVuSans-31"/>
      </defs>
      <g style="fill:#ffffff;" transform="translate(203.465147 593.597969)scale(0.13 -0.13)">
       <use xlink:href="#DejaVuSans-31"/>
       <use x="63.623047" xlink:href="#DejaVuSans-30"/>
       <use x="127.246094" xlink:href="#DejaVuSans-30"/>
      </g>
     </g>
    </g>
    <g id="xtick_3">
     <g id="line2d_3">
      <g>
       <use style="fill:#ffffff;stroke:#ffffff;stroke-width:0.8;" x="279.450656" xlink:href="#mfa06117baf" y="576.72"/>
      </g>
     </g>
     <g id="text_3">
      <!-- 200 -->
      <defs>
       <path d="M 19.1875 8.296875 
L 53.609375 8.296875 
L 53.609375 0 
L 7.328125 0 
L 7.328125 8.296875 
Q 12.9375 14.109375 22.625 23.890625 
Q 32.328125 33.6875 34.8125 36.53125 
Q 39.546875 41.84375 41.421875 45.53125 
Q 43.3125 49.21875 43.3125 52.78125 
Q 43.3125 58.59375 39.234375 62.25 
Q 35.15625 65.921875 28.609375 65.921875 
Q 23.96875 65.921875 18.8125 64.3125 
Q 13.671875 62.703125 7.8125 59.421875 
L 7.8125 69.390625 
Q 13.765625 71.78125 18.9375 73 
Q 24.125 74.21875 28.421875 74.21875 
Q 39.75 74.21875 46.484375 68.546875 
Q 53.21875 62.890625 53.21875 53.421875 
Q 53.21875 48.921875 51.53125 44.890625 
Q 49.859375 40.875 45.40625 35.40625 
Q 44.1875 33.984375 37.640625 27.21875 
Q 31.109375 20.453125 19.1875 8.296875 
z
" id="DejaVuSans-32"/>
      </defs>
      <g style="fill:#ffffff;" transform="translate(267.043781 593.597969)scale(0.13 -0.13)">
       <use xlink:href="#DejaVuSans-32"/>
       <use x="63.623047" xlink:href="#DejaVuSans-30"/>
       <use x="127.246094" xlink:href="#DejaVuSans-30"/>
      </g>
     </g>
    </g>
    <g id="xtick_4">
     <g id="line2d_4">
      <g>
       <use style="fill:#ffffff;stroke:#ffffff;stroke-width:0.8;" x="343.02929" xlink:href="#mfa06117baf" y="576.72"/>
      </g>
     </g>
     <g id="text_4">
      <!-- 300 -->
      <defs>
       <path d="M 40.578125 39.3125 
Q 47.65625 37.796875 51.625 33 
Q 55.609375 28.21875 55.609375 21.1875 
Q 55.609375 10.40625 48.1875 4.484375 
Q 40.765625 -1.421875 27.09375 -1.421875 
Q 22.515625 -1.421875 17.65625 -0.515625 
Q 12.796875 0.390625 7.625 2.203125 
L 7.625 11.71875 
Q 11.71875 9.328125 16.59375 8.109375 
Q 21.484375 6.890625 26.8125 6.890625 
Q 36.078125 6.890625 40.9375 10.546875 
Q 45.796875 14.203125 45.796875 21.1875 
Q 45.796875 27.640625 41.28125 31.265625 
Q 36.765625 34.90625 28.71875 34.90625 
L 20.21875 34.90625 
L 20.21875 43.015625 
L 29.109375 43.015625 
Q 36.375 43.015625 40.234375 45.921875 
Q 44.09375 48.828125 44.09375 54.296875 
Q 44.09375 59.90625 40.109375 62.90625 
Q 36.140625 65.921875 28.71875 65.921875 
Q 24.65625 65.921875 20.015625 65.03125 
Q 15.375 64.15625 9.8125 62.3125 
L 9.8125 71.09375 
Q 15.4375 72.65625 20.34375 73.4375 
Q 25.25 74.21875 29.59375 74.21875 
Q 40.828125 74.21875 47.359375 69.109375 
Q 53.90625 64.015625 53.90625 55.328125 
Q 53.90625 49.265625 50.4375 45.09375 
Q 46.96875 40.921875 40.578125 39.3125 
z
" id="DejaVuSans-33"/>
      </defs>
      <g style="fill:#ffffff;" transform="translate(330.622415 593.597969)scale(0.13 -0.13)">
       <use xlink:href="#DejaVuSans-33"/>
       <use x="63.623047" xlink:href="#DejaVuSans-30"/>
       <use x="127.246094" xlink:href="#DejaVuSans-30"/>
      </g>
     </g>
    </g>
    <g id="xtick_5">
     <g id="line2d_5">
      <g>
       <use style="fill:#ffffff;stroke:#ffffff;stroke-width:0.8;" x="406.607924" xlink:href="#mfa06117baf" y="576.72"/>
      </g>
     </g>
     <g id="text_5">
      <!-- 400 -->
      <defs>
       <path d="M 37.796875 64.3125 
L 12.890625 25.390625 
L 37.796875 25.390625 
z
M 35.203125 72.90625 
L 47.609375 72.90625 
L 47.609375 25.390625 
L 58.015625 25.390625 
L 58.015625 17.1875 
L 47.609375 17.1875 
L 47.609375 0 
L 37.796875 0 
L 37.796875 17.1875 
L 4.890625 17.1875 
L 4.890625 26.703125 
z
" id="DejaVuSans-34"/>
      </defs>
      <g style="fill:#ffffff;" transform="translate(394.201049 593.597969)scale(0.13 -0.13)">
       <use xlink:href="#DejaVuSans-34"/>
       <use x="63.623047" xlink:href="#DejaVuSans-30"/>
       <use x="127.246094" xlink:href="#DejaVuSans-30"/>
      </g>
     </g>
    </g>
    <g id="xtick_6">
     <g id="line2d_6">
      <g>
       <use style="fill:#ffffff;stroke:#ffffff;stroke-width:0.8;" x="470.186558" xlink:href="#mfa06117baf" y="576.72"/>
      </g>
     </g>
     <g id="text_6">
      <!-- 500 -->
      <defs>
       <path d="M 10.796875 72.90625 
L 49.515625 72.90625 
L 49.515625 64.59375 
L 19.828125 64.59375 
L 19.828125 46.734375 
Q 21.96875 47.46875 24.109375 47.828125 
Q 26.265625 48.1875 28.421875 48.1875 
Q 40.625 48.1875 47.75 41.5 
Q 54.890625 34.8125 54.890625 23.390625 
Q 54.890625 11.625 47.5625 5.09375 
Q 40.234375 -1.421875 26.90625 -1.421875 
Q 22.3125 -1.421875 17.546875 -0.640625 
Q 12.796875 0.140625 7.71875 1.703125 
L 7.71875 11.625 
Q 12.109375 9.234375 16.796875 8.0625 
Q 21.484375 6.890625 26.703125 6.890625 
Q 35.15625 6.890625 40.078125 11.328125 
Q 45.015625 15.765625 45.015625 23.390625 
Q 45.015625 31 40.078125 35.4375 
Q 35.15625 39.890625 26.703125 39.890625 
Q 22.75 39.890625 18.8125 39.015625 
Q 14.890625 38.140625 10.796875 36.28125 
z
" id="DejaVuSans-35"/>
      </defs>
      <g style="fill:#ffffff;" transform="translate(457.779683 593.597969)scale(0.13 -0.13)">
       <use xlink:href="#DejaVuSans-35"/>
       <use x="63.623047" xlink:href="#DejaVuSans-30"/>
       <use x="127.246094" xlink:href="#DejaVuSans-30"/>
      </g>
     </g>
    </g>
    <g id="text_7">
     <!-- Time (MC steps) -->
     <defs>
      <path d="M -0.296875 72.90625 
L 61.375 72.90625 
L 61.375 64.59375 
L 35.5 64.59375 
L 35.5 0 
L 25.59375 0 
L 25.59375 64.59375 
L -0.296875 64.59375 
z
" id="DejaVuSans-54"/>
      <path d="M 9.421875 54.6875 
L 18.40625 54.6875 
L 18.40625 0 
L 9.421875 0 
z
M 9.421875 75.984375 
L 18.40625 75.984375 
L 18.40625 64.59375 
L 9.421875 64.59375 
z
" id="DejaVuSans-69"/>
      <path d="M 52 44.1875 
Q 55.375 50.25 60.0625 53.125 
Q 64.75 56 71.09375 56 
Q 79.640625 56 84.28125 50.015625 
Q 88.921875 44.046875 88.921875 33.015625 
L 88.921875 0 
L 79.890625 0 
L 79.890625 32.71875 
Q 79.890625 40.578125 77.09375 44.375 
Q 74.3125 48.1875 68.609375 48.1875 
Q 61.625 48.1875 57.5625 43.546875 
Q 53.515625 38.921875 53.515625 30.90625 
L 53.515625 0 
L 44.484375 0 
L 44.484375 32.71875 
Q 44.484375 40.625 41.703125 44.40625 
Q 38.921875 48.1875 33.109375 48.1875 
Q 26.21875 48.1875 22.15625 43.53125 
Q 18.109375 38.875 18.109375 30.90625 
L 18.109375 0 
L 9.078125 0 
L 9.078125 54.6875 
L 18.109375 54.6875 
L 18.109375 46.1875 
Q 21.1875 51.21875 25.484375 53.609375 
Q 29.78125 56 35.6875 56 
Q 41.65625 56 45.828125 52.96875 
Q 50 49.953125 52 44.1875 
z
" id="DejaVuSans-6d"/>
      <path d="M 56.203125 29.59375 
L 56.203125 25.203125 
L 14.890625 25.203125 
Q 15.484375 15.921875 20.484375 11.0625 
Q 25.484375 6.203125 34.421875 6.203125 
Q 39.59375 6.203125 44.453125 7.46875 
Q 49.3125 8.734375 54.109375 11.28125 
L 54.109375 2.78125 
Q 49.265625 0.734375 44.1875 -0.34375 
Q 39.109375 -1.421875 33.890625 -1.421875 
Q 20.796875 -1.421875 13.15625 6.1875 
Q 5.515625 13.8125 5.515625 26.8125 
Q 5.515625 40.234375 12.765625 48.109375 
Q 20.015625 56 32.328125 56 
Q 43.359375 56 49.78125 48.890625 
Q 56.203125 41.796875 56.203125 29.59375 
z
M 47.21875 32.234375 
Q 47.125 39.59375 43.09375 43.984375 
Q 39.0625 48.390625 32.421875 48.390625 
Q 24.90625 48.390625 20.390625 44.140625 
Q 15.875 39.890625 15.1875 32.171875 
z
" id="DejaVuSans-65"/>
      <path id="DejaVuSans-20"/>
      <path d="M 31 75.875 
Q 24.46875 64.65625 21.28125 53.65625 
Q 18.109375 42.671875 18.109375 31.390625 
Q 18.109375 20.125 21.3125 9.0625 
Q 24.515625 -2 31 -13.1875 
L 23.1875 -13.1875 
Q 15.875 -1.703125 12.234375 9.375 
Q 8.59375 20.453125 8.59375 31.390625 
Q 8.59375 42.28125 12.203125 53.3125 
Q 15.828125 64.359375 23.1875 75.875 
z
" id="DejaVuSans-28"/>
      <path d="M 9.8125 72.90625 
L 24.515625 72.90625 
L 43.109375 23.296875 
L 61.8125 72.90625 
L 76.515625 72.90625 
L 76.515625 0 
L 66.890625 0 
L 66.890625 64.015625 
L 48.09375 14.015625 
L 38.1875 14.015625 
L 19.390625 64.015625 
L 19.390625 0 
L 9.8125 0 
z
" id="DejaVuSans-4d"/>
      <path d="M 64.40625 67.28125 
L 64.40625 56.890625 
Q 59.421875 61.53125 53.78125 63.8125 
Q 48.140625 66.109375 41.796875 66.109375 
Q 29.296875 66.109375 22.65625 58.46875 
Q 16.015625 50.828125 16.015625 36.375 
Q 16.015625 21.96875 22.65625 14.328125 
Q 29.296875 6.6875 41.796875 6.6875 
Q 48.140625 6.6875 53.78125 8.984375 
Q 59.421875 11.28125 64.40625 15.921875 
L 64.40625 5.609375 
Q 59.234375 2.09375 53.4375 0.328125 
Q 47.65625 -1.421875 41.21875 -1.421875 
Q 24.65625 -1.421875 15.125 8.703125 
Q 5.609375 18.84375 5.609375 36.375 
Q 5.609375 53.953125 15.125 64.078125 
Q 24.65625 74.21875 41.21875 74.21875 
Q 47.75 74.21875 53.53125 72.484375 
Q 59.328125 70.75 64.40625 67.28125 
z
" id="DejaVuSans-43"/>
      <path d="M 44.28125 53.078125 
L 44.28125 44.578125 
Q 40.484375 46.53125 36.375 47.5 
Q 32.28125 48.484375 27.875 48.484375 
Q 21.1875 48.484375 17.84375 46.4375 
Q 14.5 44.390625 14.5 40.28125 
Q 14.5 37.15625 16.890625 35.375 
Q 19.28125 33.59375 26.515625 31.984375 
L 29.59375 31.296875 
Q 39.15625 29.25 43.1875 25.515625 
Q 47.21875 21.78125 47.21875 15.09375 
Q 47.21875 7.46875 41.1875 3.015625 
Q 35.15625 -1.421875 24.609375 -1.421875 
Q 20.21875 -1.421875 15.453125 -0.5625 
Q 10.6875 0.296875 5.421875 2 
L 5.421875 11.28125 
Q 10.40625 8.6875 15.234375 7.390625 
Q 20.0625 6.109375 24.8125 6.109375 
Q 31.15625 6.109375 34.5625 8.28125 
Q 37.984375 10.453125 37.984375 14.40625 
Q 37.984375 18.0625 35.515625 20.015625 
Q 33.0625 21.96875 24.703125 23.78125 
L 21.578125 24.515625 
Q 13.234375 26.265625 9.515625 29.90625 
Q 5.8125 33.546875 5.8125 39.890625 
Q 5.8125 47.609375 11.28125 51.796875 
Q 16.75 56 26.8125 56 
Q 31.78125 56 36.171875 55.265625 
Q 40.578125 54.546875 44.28125 53.078125 
z
" id="DejaVuSans-73"/>
      <path d="M 18.3125 70.21875 
L 18.3125 54.6875 
L 36.8125 54.6875 
L 36.8125 47.703125 
L 18.3125 47.703125 
L 18.3125 18.015625 
Q 18.3125 11.328125 20.140625 9.421875 
Q 21.96875 7.515625 27.59375 7.515625 
L 36.8125 7.515625 
L 36.8125 0 
L 27.59375 0 
Q 17.1875 0 13.234375 3.875 
Q 9.28125 7.765625 9.28125 18.015625 
L 9.28125 47.703125 
L 2.6875 47.703125 
L 2.6875 54.6875 
L 9.28125 54.6875 
L 9.28125 70.21875 
z
" id="DejaVuSans-74"/>
      <path d="M 18.109375 8.203125 
L 18.109375 -20.796875 
L 9.078125 -20.796875 
L 9.078125 54.6875 
L 18.109375 54.6875 
L 18.109375 46.390625 
Q 20.953125 51.265625 25.265625 53.625 
Q 29.59375 56 35.59375 56 
Q 45.5625 56 51.78125 48.09375 
Q 58.015625 40.1875 58.015625 27.296875 
Q 58.015625 14.40625 51.78125 6.484375 
Q 45.5625 -1.421875 35.59375 -1.421875 
Q 29.59375 -1.421875 25.265625 0.953125 
Q 20.953125 3.328125 18.109375 8.203125 
z
M 48.6875 27.296875 
Q 48.6875 37.203125 44.609375 42.84375 
Q 40.53125 48.484375 33.40625 48.484375 
Q 26.265625 48.484375 22.1875 42.84375 
Q 18.109375 37.203125 18.109375 27.296875 
Q 18.109375 17.390625 22.1875 11.75 
Q 26.265625 6.109375 33.40625 6.109375 
Q 40.53125 6.109375 44.609375 11.75 
Q 48.6875 17.390625 48.6875 27.296875 
z
" id="DejaVuSans-70"/>
      <path d="M 8.015625 75.875 
L 15.828125 75.875 
Q 23.140625 64.359375 26.78125 53.3125 
Q 30.421875 42.28125 30.421875 31.390625 
Q 30.421875 20.453125 26.78125 9.375 
Q 23.140625 -1.703125 15.828125 -13.1875 
L 8.015625 -13.1875 
Q 14.5 -2 17.703125 9.0625 
Q 20.90625 20.125 20.90625 31.390625 
Q 20.90625 42.671875 17.703125 53.65625 
Q 14.5 64.65625 8.015625 75.875 
z
" id="DejaVuSans-29"/>
     </defs>
     <g style="fill:#ffffff;" transform="translate(272.326413 610.179531)scale(0.13 -0.13)">
      <use xlink:href="#DejaVuSans-54"/>
      <use x="61.037109" xlink:href="#DejaVuSans-69"/>
      <use x="88.820312" xlink:href="#DejaVuSans-6d"/>
      <use x="186.232422" xlink:href="#DejaVuSans-65"/>
      <use x="247.755859" xlink:href="#DejaVuSans-20"/>
      <use x="279.542969" xlink:href="#DejaVuSans-28"/>
      <use x="318.556641" xlink:href="#DejaVuSans-4d"/>
      <use x="404.835938" xlink:href="#DejaVuSans-43"/>
      <use x="474.660156" xlink:href="#DejaVuSans-20"/>
      <use x="506.447266" xlink:href="#DejaVuSans-73"/>
      <use x="558.546875" xlink:href="#DejaVuSans-74"/>
      <use x="597.755859" xlink:href="#DejaVuSans-65"/>
      <use x="659.279297" xlink:href="#DejaVuSans-70"/>
      <use x="722.755859" xlink:href="#DejaVuSans-73"/>
      <use x="774.855469" xlink:href="#DejaVuSans-29"/>
     </g>
    </g>
   </g>
   <g id="matplotlib.axis_2">
    <g id="ytick_1">
     <g id="line2d_7">
      <defs>
       <path d="M 0 0 
L -3.5 0 
" id="m21364bd39d" style="stroke:#ffffff;stroke-width:0.8;"/>
      </defs>
      <g>
       <use style="fill:#ffffff;stroke:#ffffff;stroke-width:0.8;" x="135" xlink:href="#m21364bd39d" y="567.567883"/>
      </g>
     </g>
     <g id="text_8">
      <!-- −0.2 -->
      <defs>
       <path d="M 10.59375 35.5 
L 73.1875 35.5 
L 73.1875 27.203125 
L 10.59375 27.203125 
z
" id="DejaVuSans-2212"/>
       <path d="M 10.6875 12.40625 
L 21 12.40625 
L 21 0 
L 10.6875 0 
z
" id="DejaVuSans-2e"/>
      </defs>
      <g style="fill:#ffffff;" transform="translate(96.432344 572.506867)scale(0.13 -0.13)">
       <use xlink:href="#DejaVuSans-2212"/>
       <use x="83.789062" xlink:href="#DejaVuSans-30"/>
       <use x="147.412109" xlink:href="#DejaVuSans-2e"/>
       <use x="179.199219" xlink:href="#DejaVuSans-32"/>
      </g>
     </g>
    </g>
    <g id="ytick_2">
     <g id="line2d_8">
      <g>
       <use style="fill:#ffffff;stroke:#ffffff;stroke-width:0.8;" x="135" xlink:href="#m21364bd39d" y="489.713236"/>
      </g>
     </g>
     <g id="text_9">
      <!-- 0.0 -->
      <g style="fill:#ffffff;" transform="translate(107.325937 494.65222)scale(0.13 -0.13)">
       <use xlink:href="#DejaVuSans-30"/>
       <use x="63.623047" xlink:href="#DejaVuSans-2e"/>
       <use x="95.410156" xlink:href="#DejaVuSans-30"/>
      </g>
     </g>
    </g>
    <g id="ytick_3">
     <g id="line2d_9">
      <g>
       <use style="fill:#ffffff;stroke:#ffffff;stroke-width:0.8;" x="135" xlink:href="#m21364bd39d" y="411.858588"/>
      </g>
     </g>
     <g id="text_10">
      <!-- 0.2 -->
      <g style="fill:#ffffff;" transform="translate(107.325937 416.797573)scale(0.13 -0.13)">
       <use xlink:href="#DejaVuSans-30"/>
       <use x="63.623047" xlink:href="#DejaVuSans-2e"/>
       <use x="95.410156" xlink:href="#DejaVuSans-32"/>
      </g>
     </g>
    </g>
    <g id="ytick_4">
     <g id="line2d_10">
      <g>
       <use style="fill:#ffffff;stroke:#ffffff;stroke-width:0.8;" x="135" xlink:href="#m21364bd39d" y="334.003941"/>
      </g>
     </g>
     <g id="text_11">
      <!-- 0.4 -->
      <g style="fill:#ffffff;" transform="translate(107.325937 338.942926)scale(0.13 -0.13)">
       <use xlink:href="#DejaVuSans-30"/>
       <use x="63.623047" xlink:href="#DejaVuSans-2e"/>
       <use x="95.410156" xlink:href="#DejaVuSans-34"/>
      </g>
     </g>
    </g>
    <g id="ytick_5">
     <g id="line2d_11">
      <g>
       <use style="fill:#ffffff;stroke:#ffffff;stroke-width:0.8;" x="135" xlink:href="#m21364bd39d" y="256.149294"/>
      </g>
     </g>
     <g id="text_12">
      <!-- 0.6 -->
      <defs>
       <path d="M 33.015625 40.375 
Q 26.375 40.375 22.484375 35.828125 
Q 18.609375 31.296875 18.609375 23.390625 
Q 18.609375 15.53125 22.484375 10.953125 
Q 26.375 6.390625 33.015625 6.390625 
Q 39.65625 6.390625 43.53125 10.953125 
Q 47.40625 15.53125 47.40625 23.390625 
Q 47.40625 31.296875 43.53125 35.828125 
Q 39.65625 40.375 33.015625 40.375 
z
M 52.59375 71.296875 
L 52.59375 62.3125 
Q 48.875 64.0625 45.09375 64.984375 
Q 41.3125 65.921875 37.59375 65.921875 
Q 27.828125 65.921875 22.671875 59.328125 
Q 17.53125 52.734375 16.796875 39.40625 
Q 19.671875 43.65625 24.015625 45.921875 
Q 28.375 48.1875 33.59375 48.1875 
Q 44.578125 48.1875 50.953125 41.515625 
Q 57.328125 34.859375 57.328125 23.390625 
Q 57.328125 12.15625 50.6875 5.359375 
Q 44.046875 -1.421875 33.015625 -1.421875 
Q 20.359375 -1.421875 13.671875 8.265625 
Q 6.984375 17.96875 6.984375 36.375 
Q 6.984375 53.65625 15.1875 63.9375 
Q 23.390625 74.21875 37.203125 74.21875 
Q 40.921875 74.21875 44.703125 73.484375 
Q 48.484375 72.75 52.59375 71.296875 
z
" id="DejaVuSans-36"/>
      </defs>
      <g style="fill:#ffffff;" transform="translate(107.325937 261.088279)scale(0.13 -0.13)">
       <use xlink:href="#DejaVuSans-30"/>
       <use x="63.623047" xlink:href="#DejaVuSans-2e"/>
       <use x="95.410156" xlink:href="#DejaVuSans-36"/>
      </g>
     </g>
    </g>
    <g id="ytick_6">
     <g id="line2d_12">
      <g>
       <use style="fill:#ffffff;stroke:#ffffff;stroke-width:0.8;" x="135" xlink:href="#m21364bd39d" y="178.294647"/>
      </g>
     </g>
     <g id="text_13">
      <!-- 0.8 -->
      <defs>
       <path d="M 31.78125 34.625 
Q 24.75 34.625 20.71875 30.859375 
Q 16.703125 27.09375 16.703125 20.515625 
Q 16.703125 13.921875 20.71875 10.15625 
Q 24.75 6.390625 31.78125 6.390625 
Q 38.8125 6.390625 42.859375 10.171875 
Q 46.921875 13.96875 46.921875 20.515625 
Q 46.921875 27.09375 42.890625 30.859375 
Q 38.875 34.625 31.78125 34.625 
z
M 21.921875 38.8125 
Q 15.578125 40.375 12.03125 44.71875 
Q 8.5 49.078125 8.5 55.328125 
Q 8.5 64.0625 14.71875 69.140625 
Q 20.953125 74.21875 31.78125 74.21875 
Q 42.671875 74.21875 48.875 69.140625 
Q 55.078125 64.0625 55.078125 55.328125 
Q 55.078125 49.078125 51.53125 44.71875 
Q 48 40.375 41.703125 38.8125 
Q 48.828125 37.15625 52.796875 32.3125 
Q 56.78125 27.484375 56.78125 20.515625 
Q 56.78125 9.90625 50.3125 4.234375 
Q 43.84375 -1.421875 31.78125 -1.421875 
Q 19.734375 -1.421875 13.25 4.234375 
Q 6.78125 9.90625 6.78125 20.515625 
Q 6.78125 27.484375 10.78125 32.3125 
Q 14.796875 37.15625 21.921875 38.8125 
z
M 18.3125 54.390625 
Q 18.3125 48.734375 21.84375 45.5625 
Q 25.390625 42.390625 31.78125 42.390625 
Q 38.140625 42.390625 41.71875 45.5625 
Q 45.3125 48.734375 45.3125 54.390625 
Q 45.3125 60.0625 41.71875 63.234375 
Q 38.140625 66.40625 31.78125 66.40625 
Q 25.390625 66.40625 21.84375 63.234375 
Q 18.3125 60.0625 18.3125 54.390625 
z
" id="DejaVuSans-38"/>
      </defs>
      <g style="fill:#ffffff;" transform="translate(107.325937 183.233631)scale(0.13 -0.13)">
       <use xlink:href="#DejaVuSans-30"/>
       <use x="63.623047" xlink:href="#DejaVuSans-2e"/>
       <use x="95.410156" xlink:href="#DejaVuSans-38"/>
      </g>
     </g>
    </g>
    <g id="ytick_7">
     <g id="line2d_13">
      <g>
       <use style="fill:#ffffff;stroke:#ffffff;stroke-width:0.8;" x="135" xlink:href="#m21364bd39d" y="100.44"/>
      </g>
     </g>
     <g id="text_14">
      <!-- 1.0 -->
      <g style="fill:#ffffff;" transform="translate(107.325937 105.378984)scale(0.13 -0.13)">
       <use xlink:href="#DejaVuSans-31"/>
       <use x="63.623047" xlink:href="#DejaVuSans-2e"/>
       <use x="95.410156" xlink:href="#DejaVuSans-30"/>
      </g>
     </g>
    </g>
    <g id="text_15">
     <!-- Autocorrelation -->
     <defs>
      <path d="M 34.1875 63.1875 
L 20.796875 26.90625 
L 47.609375 26.90625 
z
M 28.609375 72.90625 
L 39.796875 72.90625 
L 67.578125 0 
L 57.328125 0 
L 50.6875 18.703125 
L 17.828125 18.703125 
L 11.1875 0 
L 0.78125 0 
z
" id="DejaVuSans-41"/>
      <path d="M 8.5 21.578125 
L 8.5 54.6875 
L 17.484375 54.6875 
L 17.484375 21.921875 
Q 17.484375 14.15625 20.5 10.265625 
Q 23.53125 6.390625 29.59375 6.390625 
Q 36.859375 6.390625 41.078125 11.03125 
Q 45.3125 15.671875 45.3125 23.6875 
L 45.3125 54.6875 
L 54.296875 54.6875 
L 54.296875 0 
L 45.3125 0 
L 45.3125 8.40625 
Q 42.046875 3.421875 37.71875 1 
Q 33.40625 -1.421875 27.6875 -1.421875 
Q 18.265625 -1.421875 13.375 4.4375 
Q 8.5 10.296875 8.5 21.578125 
z
M 31.109375 56 
z
" id="DejaVuSans-75"/>
      <path d="M 30.609375 48.390625 
Q 23.390625 48.390625 19.1875 42.75 
Q 14.984375 37.109375 14.984375 27.296875 
Q 14.984375 17.484375 19.15625 11.84375 
Q 23.34375 6.203125 30.609375 6.203125 
Q 37.796875 6.203125 41.984375 11.859375 
Q 46.1875 17.53125 46.1875 27.296875 
Q 46.1875 37.015625 41.984375 42.703125 
Q 37.796875 48.390625 30.609375 48.390625 
z
M 30.609375 56 
Q 42.328125 56 49.015625 48.375 
Q 55.71875 40.765625 55.71875 27.296875 
Q 55.71875 13.875 49.015625 6.21875 
Q 42.328125 -1.421875 30.609375 -1.421875 
Q 18.84375 -1.421875 12.171875 6.21875 
Q 5.515625 13.875 5.515625 27.296875 
Q 5.515625 40.765625 12.171875 48.375 
Q 18.84375 56 30.609375 56 
z
" id="DejaVuSans-6f"/>
      <path d="M 48.78125 52.59375 
L 48.78125 44.1875 
Q 44.96875 46.296875 41.140625 47.34375 
Q 37.3125 48.390625 33.40625 48.390625 
Q 24.65625 48.390625 19.8125 42.84375 
Q 14.984375 37.3125 14.984375 27.296875 
Q 14.984375 17.28125 19.8125 11.734375 
Q 24.65625 6.203125 33.40625 6.203125 
Q 37.3125 6.203125 41.140625 7.25 
Q 44.96875 8.296875 48.78125 10.40625 
L 48.78125 2.09375 
Q 45.015625 0.34375 40.984375 -0.53125 
Q 36.96875 -1.421875 32.421875 -1.421875 
Q 20.0625 -1.421875 12.78125 6.34375 
Q 5.515625 14.109375 5.515625 27.296875 
Q 5.515625 40.671875 12.859375 48.328125 
Q 20.21875 56 33.015625 56 
Q 37.15625 56 41.109375 55.140625 
Q 45.0625 54.296875 48.78125 52.59375 
z
" id="DejaVuSans-63"/>
      <path d="M 41.109375 46.296875 
Q 39.59375 47.171875 37.8125 47.578125 
Q 36.03125 48 33.890625 48 
Q 26.265625 48 22.1875 43.046875 
Q 18.109375 38.09375 18.109375 28.8125 
L 18.109375 0 
L 9.078125 0 
L 9.078125 54.6875 
L 18.109375 54.6875 
L 18.109375 46.1875 
Q 20.953125 51.171875 25.484375 53.578125 
Q 30.03125 56 36.53125 56 
Q 37.453125 56 38.578125 55.875 
Q 39.703125 55.765625 41.0625 55.515625 
z
" id="DejaVuSans-72"/>
      <path d="M 9.421875 75.984375 
L 18.40625 75.984375 
L 18.40625 0 
L 9.421875 0 
z
" id="DejaVuSans-6c"/>
      <path d="M 34.28125 27.484375 
Q 23.390625 27.484375 19.1875 25 
Q 14.984375 22.515625 14.984375 16.5 
Q 14.984375 11.71875 18.140625 8.90625 
Q 21.296875 6.109375 26.703125 6.109375 
Q 34.1875 6.109375 38.703125 11.40625 
Q 43.21875 16.703125 43.21875 25.484375 
L 43.21875 27.484375 
z
M 52.203125 31.203125 
L 52.203125 0 
L 43.21875 0 
L 43.21875 8.296875 
Q 40.140625 3.328125 35.546875 0.953125 
Q 30.953125 -1.421875 24.3125 -1.421875 
Q 15.921875 -1.421875 10.953125 3.296875 
Q 6 8.015625 6 15.921875 
Q 6 25.140625 12.171875 29.828125 
Q 18.359375 34.515625 30.609375 34.515625 
L 43.21875 34.515625 
L 43.21875 35.40625 
Q 43.21875 41.609375 39.140625 45 
Q 35.0625 48.390625 27.6875 48.390625 
Q 23 48.390625 18.546875 47.265625 
Q 14.109375 46.140625 10.015625 43.890625 
L 10.015625 52.203125 
Q 14.9375 54.109375 19.578125 55.046875 
Q 24.21875 56 28.609375 56 
Q 40.484375 56 46.34375 49.84375 
Q 52.203125 43.703125 52.203125 31.203125 
z
" id="DejaVuSans-61"/>
      <path d="M 54.890625 33.015625 
L 54.890625 0 
L 45.90625 0 
L 45.90625 32.71875 
Q 45.90625 40.484375 42.875 44.328125 
Q 39.84375 48.1875 33.796875 48.1875 
Q 26.515625 48.1875 22.3125 43.546875 
Q 18.109375 38.921875 18.109375 30.90625 
L 18.109375 0 
L 9.078125 0 
L 9.078125 54.6875 
L 18.109375 54.6875 
L 18.109375 46.1875 
Q 21.34375 51.125 25.703125 53.5625 
Q 30.078125 56 35.796875 56 
Q 45.21875 56 50.046875 50.171875 
Q 54.890625 44.34375 54.890625 33.015625 
z
" id="DejaVuSans-6e"/>
     </defs>
     <g style="fill:#ffffff;" transform="translate(89.72875 377.462656)rotate(-90)scale(0.13 -0.13)">
      <use xlink:href="#DejaVuSans-41"/>
      <use x="68.408203" xlink:href="#DejaVuSans-75"/>
      <use x="131.787109" xlink:href="#DejaVuSans-74"/>
      <use x="170.996094" xlink:href="#DejaVuSans-6f"/>
      <use x="232.177734" xlink:href="#DejaVuSans-63"/>
      <use x="287.158203" xlink:href="#DejaVuSans-6f"/>
      <use x="348.339844" xlink:href="#DejaVuSans-72"/>
      <use x="389.4375" xlink:href="#DejaVuSans-72"/>
      <use x="430.519531" xlink:href="#DejaVuSans-65"/>
      <use x="492.042969" xlink:href="#DejaVuSans-6c"/>
      <use x="519.826172" xlink:href="#DejaVuSans-61"/>
      <use x="581.105469" xlink:href="#DejaVuSans-74"/>
      <use x="620.314453" xlink:href="#DejaVuSans-69"/>
      <use x="648.097656" xlink:href="#DejaVuSans-6f"/>
      <use x="709.279297" xlink:href="#DejaVuSans-6e"/>
     </g>
    </g>
   </g>
   <g id="line2d_14">
    <path clip-path="url(#p689e621d16)" d="M 152.293388 100.44 
L 152.929175 193.098384 
L 153.564961 267.226935 
L 154.200747 321.11064 
L 154.836534 349.728844 
L 156.743893 411.320711 
L 158.015465 458.91457 
L 158.651252 469.631666 
L 159.287038 467.869322 
L 160.558611 460.676684 
L 161.194397 449.611311 
L 161.830184 441.803412 
L 162.46597 441.876495 
L 163.101756 438.181857 
L 163.737543 432.455154 
L 164.373329 430.611747 
L 165.009115 432.970943 
L 165.644902 440.994352 
L 166.280688 444.46521 
L 166.916474 455.347657 
L 168.188047 489.255053 
L 168.823833 496.334946 
L 169.45962 495.083816 
L 170.095406 485.463928 
L 170.731192 479.600042 
L 171.366979 478.20001 
L 172.002765 481.390265 
L 172.638551 486.449812 
L 173.274338 487.806253 
L 174.54591 474.000509 
L 175.181697 457.309196 
L 175.817483 451.446278 
L 176.453269 449.237656 
L 177.089056 455.034836 
L 177.724842 459.044432 
L 178.360628 464.894185 
L 178.996415 460.84003 
L 179.632201 464.428721 
L 180.903774 473.208337 
L 181.53956 473.519879 
L 182.175346 476.590689 
L 182.811133 482.579454 
L 183.446919 485.362027 
L 184.718492 497.632201 
L 187.261637 542.098196 
L 187.897423 539.151942 
L 188.53321 538.093687 
L 189.168996 522.210964 
L 189.804782 525.448739 
L 190.440569 519.258987 
L 191.076355 515.710026 
L 191.712141 521.155323 
L 192.347928 528.27607 
L 192.983714 536.904443 
L 194.255287 530.74563 
L 194.891073 529.14165 
L 195.52686 514.734514 
L 196.162646 512.856919 
L 196.798432 526.390371 
L 197.434219 527.492226 
L 198.070005 531.712865 
L 198.705791 528.062307 
L 199.341578 528.599729 
L 199.977364 526.148885 
L 200.61315 526.867786 
L 201.248937 532.071184 
L 201.884723 521.036881 
L 202.520509 503.345717 
L 203.156296 503.723486 
L 203.792082 501.604851 
L 204.427868 507.480621 
L 205.063655 509.934856 
L 205.699441 504.61261 
L 206.335227 496.466804 
L 206.971014 483.769093 
L 207.6068 483.694348 
L 208.242586 497.170174 
L 208.878373 503.970109 
L 210.149945 490.386375 
L 210.785732 490.131657 
L 211.421518 495.456327 
L 212.057304 495.940854 
L 212.693091 500.396405 
L 213.328877 505.757413 
L 213.964663 501.942363 
L 214.60045 488.571203 
L 215.236236 484.307725 
L 215.872022 483.822073 
L 216.507809 481.603345 
L 217.143595 487.272587 
L 217.779381 499.935308 
L 218.415168 499.800572 
L 219.050954 490.730173 
L 219.68674 488.381894 
L 220.322527 489.64394 
L 220.958313 494.127982 
L 221.594099 488.74553 
L 222.229886 491.796128 
L 222.865672 497.036831 
L 223.501458 497.149478 
L 224.137245 497.145583 
L 224.773031 495.020282 
L 225.408817 489.773079 
L 226.044604 489.946254 
L 226.68039 483.86068 
L 227.316176 488.066376 
L 227.951963 495.79241 
L 228.587749 497.992274 
L 229.223535 490.501425 
L 229.859322 485.674267 
L 231.766681 500.861618 
L 232.402467 505.024847 
L 233.038254 505.17394 
L 233.67404 506.061633 
L 234.309826 505.098095 
L 234.945613 512.924867 
L 235.581399 511.310135 
L 236.217185 519.041222 
L 236.852972 520.327673 
L 237.488758 512.353455 
L 238.124544 509.776823 
L 238.760331 502.290059 
L 239.396117 491.802988 
L 240.031903 502.122938 
L 240.66769 497.431889 
L 241.939262 484.369475 
L 242.575049 485.835792 
L 243.210835 487.976096 
L 243.846621 488.920124 
L 244.482408 485.28881 
L 245.75398 483.078229 
L 246.389767 488.313557 
L 247.661339 505.513537 
L 248.297126 508.107106 
L 248.932912 505.584337 
L 249.568698 505.740419 
L 250.204485 518.823185 
L 250.840271 524.606173 
L 251.476057 535.269191 
L 252.111844 532.595369 
L 253.383416 512.554099 
L 254.019203 507.936909 
L 254.654989 505.422096 
L 255.290775 505.953498 
L 255.926562 498.470282 
L 256.562348 499.302607 
L 257.198134 506.449695 
L 257.833921 507.387166 
L 258.469707 505.452589 
L 259.74128 526.29375 
L 261.012852 534.236394 
L 261.648639 540.924194 
L 262.284425 539.690482 
L 262.920211 543.738459 
L 263.555998 551.524054 
L 264.191784 554.04 
L 264.82757 549.456032 
L 265.463357 541.795745 
L 266.099143 532.783079 
L 266.73493 514.929788 
L 267.370716 502.159829 
L 268.006502 493.978222 
L 268.642289 488.784236 
L 269.278075 477.328061 
L 269.913861 472.433386 
L 270.549648 464.584311 
L 271.185434 460.45006 
L 271.82122 461.860042 
L 272.457007 467.378876 
L 273.092793 475.918875 
L 273.728579 475.537187 
L 274.364366 475.414599 
L 275.000152 481.714178 
L 275.635938 494.577192 
L 276.271725 498.58496 
L 276.907511 496.018219 
L 277.543297 487.028668 
L 278.179084 483.454119 
L 279.450656 466.968988 
L 280.086443 468.023646 
L 280.722229 465.440133 
L 281.358015 459.620327 
L 281.993802 460.047873 
L 282.629588 459.302582 
L 283.265374 460.126307 
L 283.901161 461.786788 
L 284.536947 464.385411 
L 286.444306 487.878949 
L 287.715879 498.912425 
L 288.351665 500.960913 
L 288.987451 500.172834 
L 289.623238 493.047522 
L 290.259024 497.441684 
L 290.89481 496.989683 
L 291.530597 489.430457 
L 292.166383 479.955709 
L 292.802169 473.391281 
L 293.437956 470.183453 
L 294.073742 472.215492 
L 294.709528 480.312116 
L 295.345315 491.002657 
L 295.981101 489.194083 
L 296.616887 476.87481 
L 297.252674 474.83154 
L 297.88846 476.10466 
L 298.524246 479.526708 
L 299.160033 477.096399 
L 300.431605 468.341734 
L 301.703178 451.816071 
L 302.338965 456.461702 
L 302.974751 469.90678 
L 303.610537 472.548191 
L 304.246324 474.538409 
L 305.517896 489.133077 
L 306.153683 488.869758 
L 307.425255 513.690974 
L 308.061042 517.752175 
L 308.696828 516.838952 
L 309.332614 511.150201 
L 309.968401 501.441294 
L 310.604187 487.551071 
L 311.239973 482.297525 
L 311.87576 480.535181 
L 312.511546 480.442912 
L 313.147332 468.516054 
L 313.783119 469.932056 
L 314.418905 467.079873 
L 315.054691 471.861613 
L 315.690478 472.705549 
L 316.326264 471.932951 
L 316.96205 474.593607 
L 317.597837 483.396147 
L 318.233623 497.335883 
L 318.869409 503.131128 
L 319.505196 503.471806 
L 320.140982 505.769827 
L 320.776768 500.568208 
L 321.412555 497.990932 
L 322.048341 491.958576 
L 322.684127 481.602668 
L 323.319914 481.601675 
L 323.9557 475.939265 
L 324.591486 482.512136 
L 325.227273 486.809969 
L 325.863059 496.376482 
L 326.498845 502.24462 
L 327.134632 506.555784 
L 327.770418 506.905062 
L 328.406204 504.84158 
L 329.041991 500.485642 
L 329.677777 502.808714 
L 330.313563 505.961877 
L 330.94935 512.502388 
L 331.585136 513.687134 
L 332.220922 513.605938 
L 332.856709 510.623883 
L 333.492495 508.180887 
L 334.128281 509.999088 
L 334.764068 508.265234 
L 335.399854 503.414531 
L 336.03564 492.363995 
L 336.671427 485.743446 
L 337.943 481.365874 
L 338.578786 486.454557 
L 339.214572 493.475534 
L 339.850359 493.5999 
L 340.486145 494.217418 
L 341.757718 477.251068 
L 343.02929 479.074834 
L 343.665077 480.932921 
L 344.300863 484.004054 
L 344.936649 486.37142 
L 345.572436 489.916676 
L 346.208222 491.916032 
L 347.479795 480.579815 
L 348.115581 482.189981 
L 349.387154 502.15568 
L 350.02294 505.612992 
L 350.658726 511.481452 
L 351.294513 512.069513 
L 351.930299 510.168157 
L 352.566085 515.577653 
L 353.201872 514.921596 
L 353.837658 510.968179 
L 354.473444 510.600682 
L 355.109231 515.273513 
L 355.745017 506.527474 
L 356.380803 500.659502 
L 357.01659 507.830349 
L 358.288162 529.341948 
L 358.923949 527.746246 
L 359.559735 515.927759 
L 360.195521 506.880259 
L 360.831308 492.002549 
L 361.467094 490.209242 
L 362.10288 500.990091 
L 362.738667 506.049639 
L 363.374453 507.781723 
L 364.010239 503.771003 
L 364.646026 493.420793 
L 365.281812 497.426625 
L 365.917598 500.100935 
L 366.553385 503.672209 
L 367.189171 509.141911 
L 367.824957 508.739903 
L 368.460744 508.157384 
L 369.09653 508.279277 
L 369.732316 509.409944 
L 370.368103 503.965136 
L 371.003889 493.811348 
L 371.639675 486.088705 
L 372.275462 484.599439 
L 372.911248 486.162086 
L 373.547035 484.614872 
L 375.454394 461.070332 
L 376.09018 469.585712 
L 377.361753 492.461839 
L 377.997539 500.294954 
L 378.633325 500.514682 
L 379.269112 497.115591 
L 379.904898 490.580299 
L 380.540684 491.672586 
L 381.176471 497.393756 
L 381.812257 509.233373 
L 382.448043 515.484142 
L 383.08383 512.645613 
L 383.719616 507.885864 
L 384.355402 507.725218 
L 384.991189 509.82886 
L 385.626975 513.835661 
L 386.262761 515.292517 
L 386.898548 514.610873 
L 388.17012 509.256241 
L 388.805907 512.331567 
L 389.441693 517.554854 
L 390.077479 516.543474 
L 390.713266 514.426451 
L 391.349052 509.32213 
L 392.620625 504.440761 
L 393.256411 496.36559 
L 393.892197 486.744519 
L 394.527984 484.961963 
L 395.16377 485.372415 
L 395.799556 492.584439 
L 396.435343 495.799422 
L 397.071129 494.597102 
L 397.706915 490.964283 
L 398.342702 481.453733 
L 398.978488 480.145623 
L 399.614274 477.131959 
L 400.250061 476.896593 
L 400.885847 479.456942 
L 402.15742 482.336465 
L 402.793206 476.614494 
L 403.428992 475.973704 
L 404.700565 472.935503 
L 405.336351 477.573177 
L 405.972138 477.452741 
L 406.607924 480.366477 
L 407.243711 486.625739 
L 407.879497 485.167436 
L 408.515283 486.206182 
L 409.15107 487.531875 
L 410.422642 495.434202 
L 411.058429 492.207989 
L 411.694215 488.324885 
L 412.330001 488.326043 
L 413.601574 501.067222 
L 414.23736 497.909386 
L 414.873147 496.781787 
L 415.508933 497.563689 
L 416.144719 496.956765 
L 417.416292 504.640308 
L 418.052078 505.914718 
L 418.687865 501.306022 
L 419.323651 498.66069 
L 419.959437 499.380236 
L 420.595224 499.75521 
L 421.23101 500.394983 
L 421.866796 500.466238 
L 422.502583 498.295675 
L 423.138369 490.08934 
L 423.774155 484.456065 
L 424.409942 485.943024 
L 425.045728 482.787124 
L 425.681514 483.768889 
L 426.317301 482.96307 
L 427.588873 485.474476 
L 428.22466 484.309785 
L 428.860446 480.902094 
L 429.496232 480.190992 
L 430.132019 476.414 
L 430.767805 471.41762 
L 431.403591 472.363262 
L 432.039378 475.546206 
L 432.675164 476.284351 
L 433.31095 474.544154 
L 433.946737 473.742098 
L 435.218309 482.688679 
L 436.489882 494.978527 
L 437.125668 494.521366 
L 437.761455 489.991476 
L 438.397241 486.762683 
L 439.033027 487.339347 
L 439.668814 490.835578 
L 440.3046 495.937592 
L 440.940386 495.98756 
L 441.576173 491.571739 
L 442.211959 490.138163 
L 442.847746 489.520166 
L 443.483532 490.234336 
L 444.119318 488.811942 
L 444.755105 488.817293 
L 445.390891 489.214413 
L 446.026677 488.16949 
L 446.662464 488.197956 
L 447.29825 491.683113 
L 448.569823 485.828986 
L 449.205609 486.465856 
L 449.841395 485.298692 
L 450.477182 486.048987 
L 451.112968 486.228828 
L 451.748754 482.910801 
L 452.384541 483.108381 
L 453.020327 480.266412 
L 454.2919 485.049847 
L 454.927686 488.516943 
L 455.563472 489.861987 
L 456.199259 485.439178 
L 456.835045 485.393783 
L 457.470831 481.750106 
L 458.106618 483.219325 
L 458.742404 486.363351 
L 459.37819 487.343503 
L 460.013977 486.741955 
L 460.649763 482.325811 
L 461.285549 478.913389 
L 461.921336 476.924627 
L 462.557122 478.455881 
L 463.192908 479.50699 
L 463.828695 481.834148 
L 464.464481 481.513848 
L 465.100267 483.056498 
L 465.736054 483.93688 
L 467.007626 482.789151 
L 467.643413 485.918233 
L 468.279199 485.689102 
L 468.914985 485.701334 
L 469.550772 485.162787 
L 470.186558 485.591516 
L 470.822344 486.212797 
L 471.458131 487.703196 
L 472.093917 488.854399 
L 472.729703 487.636168 
L 473.36549 488.001573 
L 474.001276 487.276817 
L 474.637062 488.034959 
L 475.272849 486.388835 
L 475.908635 486.900885 
L 476.544421 486.545429 
L 477.180208 486.465523 
L 477.815994 486.520867 
L 478.451781 484.654667 
L 479.087567 483.878306 
L 479.723353 485.146696 
L 480.35914 486.676337 
L 480.994926 486.097581 
L 481.630712 488.208103 
L 482.266499 488.386654 
L 484.173858 487.350712 
L 484.809644 486.127751 
L 486.081217 487.227538 
L 486.717003 489.657046 
L 487.352789 489.946441 
L 487.988576 489.176745 
L 488.624362 488.224281 
L 489.895935 485.540221 
L 490.531721 487.283379 
L 491.167507 487.736513 
L 491.803294 488.457887 
L 492.43908 489.824433 
L 493.074866 489.080648 
L 493.710653 488.690359 
L 494.346439 488.909119 
L 494.982225 488.747183 
L 496.889584 490.174316 
L 497.525371 490.105162 
L 498.161157 489.562207 
L 498.161157 489.562207 
" style="fill:none;stroke:#0000ff;stroke-linecap:square;stroke-width:1.5;"/>
   </g>
   <g id="patch_3">
    <path d="M 135 576.72 
L 135 77.76 
" style="fill:none;stroke:#ffffff;stroke-linecap:square;stroke-linejoin:miter;stroke-width:0.8;"/>
   </g>
   <g id="patch_4">
    <path d="M 515.454545 576.72 
L 515.454545 77.76 
" style="fill:none;stroke:#ffffff;stroke-linecap:square;stroke-linejoin:miter;stroke-width:0.8;"/>
   </g>
   <g id="patch_5">
    <path d="M 135 576.72 
L 515.454545 576.72 
" style="fill:none;stroke:#ffffff;stroke-linecap:square;stroke-linejoin:miter;stroke-width:0.8;"/>
   </g>
   <g id="patch_6">
    <path d="M 135 77.76 
L 515.454545 77.76 
" style="fill:none;stroke:#ffffff;stroke-linecap:square;stroke-linejoin:miter;stroke-width:0.8;"/>
   </g>
  </g>
  <g id="axes_2">
   <g id="patch_7">
    <path d="M 591.545455 576.72 
L 972 576.72 
L 972 77.76 
L 591.545455 77.76 
z
"/>
   </g>
   <g id="matplotlib.axis_3">
    <g id="xtick_7">
     <g id="line2d_15">
      <g>
       <use style="fill:#ffffff;stroke:#ffffff;stroke-width:0.8;" x="608.838843" xlink:href="#mfa06117baf" y="576.72"/>
      </g>
     </g>
     <g id="text_16">
      <!-- 0 -->
      <g style="fill:#ffffff;" transform="translate(604.703218 593.597969)scale(0.13 -0.13)">
       <use xlink:href="#DejaVuSans-30"/>
      </g>
     </g>
    </g>
    <g id="xtick_8">
     <g id="line2d_16">
      <g>
       <use style="fill:#ffffff;stroke:#ffffff;stroke-width:0.8;" x="685.698347" xlink:href="#mfa06117baf" y="576.72"/>
      </g>
     </g>
     <g id="text_17">
      <!-- 2 -->
      <g style="fill:#ffffff;" transform="translate(681.562722 593.597969)scale(0.13 -0.13)">
       <use xlink:href="#DejaVuSans-32"/>
      </g>
     </g>
    </g>
    <g id="xtick_9">
     <g id="line2d_17">
      <g>
       <use style="fill:#ffffff;stroke:#ffffff;stroke-width:0.8;" x="762.557851" xlink:href="#mfa06117baf" y="576.72"/>
      </g>
     </g>
     <g id="text_18">
      <!-- 4 -->
      <g style="fill:#ffffff;" transform="translate(758.422226 593.597969)scale(0.13 -0.13)">
       <use xlink:href="#DejaVuSans-34"/>
      </g>
     </g>
    </g>
    <g id="xtick_10">
     <g id="line2d_18">
      <g>
       <use style="fill:#ffffff;stroke:#ffffff;stroke-width:0.8;" x="839.417355" xlink:href="#mfa06117baf" y="576.72"/>
      </g>
     </g>
     <g id="text_19">
      <!-- 6 -->
      <g style="fill:#ffffff;" transform="translate(835.28173 593.597969)scale(0.13 -0.13)">
       <use xlink:href="#DejaVuSans-36"/>
      </g>
     </g>
    </g>
    <g id="xtick_11">
     <g id="line2d_19">
      <g>
       <use style="fill:#ffffff;stroke:#ffffff;stroke-width:0.8;" x="916.27686" xlink:href="#mfa06117baf" y="576.72"/>
      </g>
     </g>
     <g id="text_20">
      <!-- 8 -->
      <g style="fill:#ffffff;" transform="translate(912.141235 593.597969)scale(0.13 -0.13)">
       <use xlink:href="#DejaVuSans-38"/>
      </g>
     </g>
    </g>
    <g id="text_21">
     <!-- Time (MC steps) -->
     <g style="fill:#ffffff;" transform="translate(728.871868 610.179531)scale(0.13 -0.13)">
      <use xlink:href="#DejaVuSans-54"/>
      <use x="61.037109" xlink:href="#DejaVuSans-69"/>
      <use x="88.820312" xlink:href="#DejaVuSans-6d"/>
      <use x="186.232422" xlink:href="#DejaVuSans-65"/>
      <use x="247.755859" xlink:href="#DejaVuSans-20"/>
      <use x="279.542969" xlink:href="#DejaVuSans-28"/>
      <use x="318.556641" xlink:href="#DejaVuSans-4d"/>
      <use x="404.835938" xlink:href="#DejaVuSans-43"/>
      <use x="474.660156" xlink:href="#DejaVuSans-20"/>
      <use x="506.447266" xlink:href="#DejaVuSans-73"/>
      <use x="558.546875" xlink:href="#DejaVuSans-74"/>
      <use x="597.755859" xlink:href="#DejaVuSans-65"/>
      <use x="659.279297" xlink:href="#DejaVuSans-70"/>
      <use x="722.755859" xlink:href="#DejaVuSans-73"/>
      <use x="774.855469" xlink:href="#DejaVuSans-29"/>
     </g>
    </g>
   </g>
   <g id="matplotlib.axis_4">
    <g id="ytick_8">
     <g id="line2d_20">
      <g>
       <use style="fill:#ffffff;stroke:#ffffff;stroke-width:0.8;" x="591.545455" xlink:href="#m21364bd39d" y="494.497161"/>
      </g>
     </g>
     <g id="text_22">
      <!-- 0.2 -->
      <g style="fill:#ffffff;" transform="translate(563.871392 499.436146)scale(0.13 -0.13)">
       <use xlink:href="#DejaVuSans-30"/>
       <use x="63.623047" xlink:href="#DejaVuSans-2e"/>
       <use x="95.410156" xlink:href="#DejaVuSans-32"/>
      </g>
     </g>
    </g>
    <g id="ytick_9">
     <g id="line2d_21">
      <g>
       <use style="fill:#ffffff;stroke:#ffffff;stroke-width:0.8;" x="591.545455" xlink:href="#m21364bd39d" y="395.982871"/>
      </g>
     </g>
     <g id="text_23">
      <!-- 0.4 -->
      <g style="fill:#ffffff;" transform="translate(563.871392 400.921855)scale(0.13 -0.13)">
       <use xlink:href="#DejaVuSans-30"/>
       <use x="63.623047" xlink:href="#DejaVuSans-2e"/>
       <use x="95.410156" xlink:href="#DejaVuSans-34"/>
      </g>
     </g>
    </g>
    <g id="ytick_10">
     <g id="line2d_22">
      <g>
       <use style="fill:#ffffff;stroke:#ffffff;stroke-width:0.8;" x="591.545455" xlink:href="#m21364bd39d" y="297.468581"/>
      </g>
     </g>
     <g id="text_24">
      <!-- 0.6 -->
      <g style="fill:#ffffff;" transform="translate(563.871392 302.407565)scale(0.13 -0.13)">
       <use xlink:href="#DejaVuSans-30"/>
       <use x="63.623047" xlink:href="#DejaVuSans-2e"/>
       <use x="95.410156" xlink:href="#DejaVuSans-36"/>
      </g>
     </g>
    </g>
    <g id="ytick_11">
     <g id="line2d_23">
      <g>
       <use style="fill:#ffffff;stroke:#ffffff;stroke-width:0.8;" x="591.545455" xlink:href="#m21364bd39d" y="198.95429"/>
      </g>
     </g>
     <g id="text_25">
      <!-- 0.8 -->
      <g style="fill:#ffffff;" transform="translate(563.871392 203.893275)scale(0.13 -0.13)">
       <use xlink:href="#DejaVuSans-30"/>
       <use x="63.623047" xlink:href="#DejaVuSans-2e"/>
       <use x="95.410156" xlink:href="#DejaVuSans-38"/>
      </g>
     </g>
    </g>
    <g id="ytick_12">
     <g id="line2d_24">
      <g>
       <use style="fill:#ffffff;stroke:#ffffff;stroke-width:0.8;" x="591.545455" xlink:href="#m21364bd39d" y="100.44"/>
      </g>
     </g>
     <g id="text_26">
      <!-- 1.0 -->
      <g style="fill:#ffffff;" transform="translate(563.871392 105.378984)scale(0.13 -0.13)">
       <use xlink:href="#DejaVuSans-31"/>
       <use x="63.623047" xlink:href="#DejaVuSans-2e"/>
       <use x="95.410156" xlink:href="#DejaVuSans-30"/>
      </g>
     </g>
    </g>
    <g id="text_27">
     <!-- Autocorrelation -->
     <g style="fill:#ffffff;" transform="translate(557.167798 377.462656)rotate(-90)scale(0.13 -0.13)">
      <use xlink:href="#DejaVuSans-41"/>
      <use x="68.408203" xlink:href="#DejaVuSans-75"/>
      <use x="131.787109" xlink:href="#DejaVuSans-74"/>
      <use x="170.996094" xlink:href="#DejaVuSans-6f"/>
      <use x="232.177734" xlink:href="#DejaVuSans-63"/>
      <use x="287.158203" xlink:href="#DejaVuSans-6f"/>
      <use x="348.339844" xlink:href="#DejaVuSans-72"/>
      <use x="389.4375" xlink:href="#DejaVuSans-72"/>
      <use x="430.519531" xlink:href="#DejaVuSans-65"/>
      <use x="492.042969" xlink:href="#DejaVuSans-6c"/>
      <use x="519.826172" xlink:href="#DejaVuSans-61"/>
      <use x="581.105469" xlink:href="#DejaVuSans-74"/>
      <use x="620.314453" xlink:href="#DejaVuSans-69"/>
      <use x="648.097656" xlink:href="#DejaVuSans-6f"/>
      <use x="709.279297" xlink:href="#DejaVuSans-6e"/>
     </g>
    </g>
   </g>
   <g id="line2d_25">
    <path clip-path="url(#pcb2fa7563f)" d="M 608.838843 100.44 
L 647.268595 217.686372 
L 685.698347 311.485804 
L 724.128099 379.668181 
L 762.557851 415.880561 
L 800.987603 441.127147 
L 839.417355 465.506476 
L 877.847107 493.816551 
L 916.27686 522.964227 
L 954.706612 554.04 
" style="fill:none;stroke:#0000ff;stroke-linecap:square;stroke-width:1.5;"/>
   </g>
   <g id="patch_8">
    <path d="M 591.545455 576.72 
L 591.545455 77.76 
" style="fill:none;stroke:#ffffff;stroke-linecap:square;stroke-linejoin:miter;stroke-width:0.8;"/>
   </g>
   <g id="patch_9">
    <path d="M 972 576.72 
L 972 77.76 
" style="fill:none;stroke:#ffffff;stroke-linecap:square;stroke-linejoin:miter;stroke-width:0.8;"/>
   </g>
   <g id="patch_10">
    <path d="M 591.545455 576.72 
L 972 576.72 
" style="fill:none;stroke:#ffffff;stroke-linecap:square;stroke-linejoin:miter;stroke-width:0.8;"/>
   </g>
   <g id="patch_11">
    <path d="M 591.545455 77.76 
L 972 77.76 
" style="fill:none;stroke:#ffffff;stroke-linecap:square;stroke-linejoin:miter;stroke-width:0.8;"/>
   </g>
  </g>
 </g>
 <defs>
  <clipPath id="p689e621d16">
   <rect height="498.96" width="380.454545" x="135" y="77.76"/>
  </clipPath>
  <clipPath id="pcb2fa7563f">
   <rect height="498.96" width="380.454545" x="591.545455" y="77.76"/>
  </clipPath>
 </defs>
</svg>
