<?xml version="1.0" encoding="utf-8" standalone="no"?>
<!DOCTYPE svg PUBLIC "-//W3C//DTD SVG 1.1//EN"
  "http://www.w3.org/Graphics/SVG/1.1/DTD/svg11.dtd">
<!-- Created with matplotlib (http://matplotlib.org/) -->
<svg height="648pt" version="1.1" viewBox="0 0 1080 648" width="1080pt" xmlns="http://www.w3.org/2000/svg" xmlns:xlink="http://www.w3.org/1999/xlink">
 <defs>
  <style type="text/css">
*{stroke-linecap:butt;stroke-linejoin:round;}
  </style>
 </defs>
 <g id="figure_1">
  <g id="patch_1">
   <path d="M 0 648 
L 1080 648 
L 1080 0 
L 0 0 
z
"/>
  </g>
  <g id="axes_1">
   <g id="patch_2">
    <path d="M 135 576.72 
L 515.454545 576.72 
L 515.454545 77.76 
L 135 77.76 
z
"/>
   </g>
   <g id="matplotlib.axis_1">
    <g id="xtick_1">
     <g id="line2d_1">
      <defs>
       <path d="M 0 0 
L 0 3.5 
" id="m9c54b20327" style="stroke:#ffffff;stroke-width:0.8;"/>
      </defs>
      <g>
       <use style="fill:#ffffff;stroke:#ffffff;stroke-width:0.8;" x="152.293388" xlink:href="#m9c54b20327" y="576.72"/>
      </g>
     </g>
     <g id="text_1">
      <!-- 0 -->
      <defs>
       <path d="M 31.78125 66.40625 
Q 24.171875 66.40625 20.328125 58.90625 
Q 16.5 51.421875 16.5 36.375 
Q 16.5 21.390625 20.328125 13.890625 
Q 24.171875 6.390625 31.78125 6.390625 
Q 39.453125 6.390625 43.28125 13.890625 
Q 47.125 21.390625 47.125 36.375 
Q 47.125 51.421875 43.28125 58.90625 
Q 39.453125 66.40625 31.78125 66.40625 
z
M 31.78125 74.21875 
Q 44.046875 74.21875 50.515625 64.515625 
Q 56.984375 54.828125 56.984375 36.375 
Q 56.984375 17.96875 50.515625 8.265625 
Q 44.046875 -1.421875 31.78125 -1.421875 
Q 19.53125 -1.421875 13.0625 8.265625 
Q 6.59375 17.96875 6.59375 36.375 
Q 6.59375 54.828125 13.0625 64.515625 
Q 19.53125 74.21875 31.78125 74.21875 
z
" id="DejaVuSans-30"/>
      </defs>
      <g style="fill:#ffffff;" transform="translate(148.157763 593.597969)scale(0.13 -0.13)">
       <use xlink:href="#DejaVuSans-30"/>
      </g>
     </g>
    </g>
    <g id="xtick_2">
     <g id="line2d_2">
      <g>
       <use style="fill:#ffffff;stroke:#ffffff;stroke-width:0.8;" x="230.900057" xlink:href="#m9c54b20327" y="576.72"/>
      </g>
     </g>
     <g id="text_2">
      <!-- 50000 -->
      <defs>
       <path d="M 10.796875 72.90625 
L 49.515625 72.90625 
L 49.515625 64.59375 
L 19.828125 64.59375 
L 19.828125 46.734375 
Q 21.96875 47.46875 24.109375 47.828125 
Q 26.265625 48.1875 28.421875 48.1875 
Q 40.625 48.1875 47.75 41.5 
Q 54.890625 34.8125 54.890625 23.390625 
Q 54.890625 11.625 47.5625 5.09375 
Q 40.234375 -1.421875 26.90625 -1.421875 
Q 22.3125 -1.421875 17.546875 -0.640625 
Q 12.796875 0.140625 7.71875 1.703125 
L 7.71875 11.625 
Q 12.109375 9.234375 16.796875 8.0625 
Q 21.484375 6.890625 26.703125 6.890625 
Q 35.15625 6.890625 40.078125 11.328125 
Q 45.015625 15.765625 45.015625 23.390625 
Q 45.015625 31 40.078125 35.4375 
Q 35.15625 39.890625 26.703125 39.890625 
Q 22.75 39.890625 18.8125 39.015625 
Q 14.890625 38.140625 10.796875 36.28125 
z
" id="DejaVuSans-35"/>
      </defs>
      <g style="fill:#ffffff;" transform="translate(210.221932 593.597969)scale(0.13 -0.13)">
       <use xlink:href="#DejaVuSans-35"/>
       <use x="63.623047" xlink:href="#DejaVuSans-30"/>
       <use x="127.246094" xlink:href="#DejaVuSans-30"/>
       <use x="190.869141" xlink:href="#DejaVuSans-30"/>
       <use x="254.492188" xlink:href="#DejaVuSans-30"/>
      </g>
     </g>
    </g>
    <g id="xtick_3">
     <g id="line2d_3">
      <g>
       <use style="fill:#ffffff;stroke:#ffffff;stroke-width:0.8;" x="309.506725" xlink:href="#m9c54b20327" y="576.72"/>
      </g>
     </g>
     <g id="text_3">
      <!-- 100000 -->
      <defs>
       <path d="M 12.40625 8.296875 
L 28.515625 8.296875 
L 28.515625 63.921875 
L 10.984375 60.40625 
L 10.984375 69.390625 
L 28.421875 72.90625 
L 38.28125 72.90625 
L 38.28125 8.296875 
L 54.390625 8.296875 
L 54.390625 0 
L 12.40625 0 
z
" id="DejaVuSans-31"/>
      </defs>
      <g style="fill:#ffffff;" transform="translate(284.692975 593.597969)scale(0.13 -0.13)">
       <use xlink:href="#DejaVuSans-31"/>
       <use x="63.623047" xlink:href="#DejaVuSans-30"/>
       <use x="127.246094" xlink:href="#DejaVuSans-30"/>
       <use x="190.869141" xlink:href="#DejaVuSans-30"/>
       <use x="254.492188" xlink:href="#DejaVuSans-30"/>
       <use x="318.115234" xlink:href="#DejaVuSans-30"/>
      </g>
     </g>
    </g>
    <g id="xtick_4">
     <g id="line2d_4">
      <g>
       <use style="fill:#ffffff;stroke:#ffffff;stroke-width:0.8;" x="388.113393" xlink:href="#m9c54b20327" y="576.72"/>
      </g>
     </g>
     <g id="text_4">
      <!-- 150000 -->
      <g style="fill:#ffffff;" transform="translate(363.299643 593.597969)scale(0.13 -0.13)">
       <use xlink:href="#DejaVuSans-31"/>
       <use x="63.623047" xlink:href="#DejaVuSans-35"/>
       <use x="127.246094" xlink:href="#DejaVuSans-30"/>
       <use x="190.869141" xlink:href="#DejaVuSans-30"/>
       <use x="254.492188" xlink:href="#DejaVuSans-30"/>
       <use x="318.115234" xlink:href="#DejaVuSans-30"/>
      </g>
     </g>
    </g>
    <g id="xtick_5">
     <g id="line2d_5">
      <g>
       <use style="fill:#ffffff;stroke:#ffffff;stroke-width:0.8;" x="466.720062" xlink:href="#m9c54b20327" y="576.72"/>
      </g>
     </g>
     <g id="text_5">
      <!-- 200000 -->
      <defs>
       <path d="M 19.1875 8.296875 
L 53.609375 8.296875 
L 53.609375 0 
L 7.328125 0 
L 7.328125 8.296875 
Q 12.9375 14.109375 22.625 23.890625 
Q 32.328125 33.6875 34.8125 36.53125 
Q 39.546875 41.84375 41.421875 45.53125 
Q 43.3125 49.21875 43.3125 52.78125 
Q 43.3125 58.59375 39.234375 62.25 
Q 35.15625 65.921875 28.609375 65.921875 
Q 23.96875 65.921875 18.8125 64.3125 
Q 13.671875 62.703125 7.8125 59.421875 
L 7.8125 69.390625 
Q 13.765625 71.78125 18.9375 73 
Q 24.125 74.21875 28.421875 74.21875 
Q 39.75 74.21875 46.484375 68.546875 
Q 53.21875 62.890625 53.21875 53.421875 
Q 53.21875 48.921875 51.53125 44.890625 
Q 49.859375 40.875 45.40625 35.40625 
Q 44.1875 33.984375 37.640625 27.21875 
Q 31.109375 20.453125 19.1875 8.296875 
z
" id="DejaVuSans-32"/>
      </defs>
      <g style="fill:#ffffff;" transform="translate(441.906312 593.597969)scale(0.13 -0.13)">
       <use xlink:href="#DejaVuSans-32"/>
       <use x="63.623047" xlink:href="#DejaVuSans-30"/>
       <use x="127.246094" xlink:href="#DejaVuSans-30"/>
       <use x="190.869141" xlink:href="#DejaVuSans-30"/>
       <use x="254.492188" xlink:href="#DejaVuSans-30"/>
       <use x="318.115234" xlink:href="#DejaVuSans-30"/>
      </g>
     </g>
    </g>
    <g id="text_6">
     <!-- Time -->
     <defs>
      <path d="M -0.296875 72.90625 
L 61.375 72.90625 
L 61.375 64.59375 
L 35.5 64.59375 
L 35.5 0 
L 25.59375 0 
L 25.59375 64.59375 
L -0.296875 64.59375 
z
" id="DejaVuSans-54"/>
      <path d="M 9.421875 54.6875 
L 18.40625 54.6875 
L 18.40625 0 
L 9.421875 0 
z
M 9.421875 75.984375 
L 18.40625 75.984375 
L 18.40625 64.59375 
L 9.421875 64.59375 
z
" id="DejaVuSans-69"/>
      <path d="M 52 44.1875 
Q 55.375 50.25 60.0625 53.125 
Q 64.75 56 71.09375 56 
Q 79.640625 56 84.28125 50.015625 
Q 88.921875 44.046875 88.921875 33.015625 
L 88.921875 0 
L 79.890625 0 
L 79.890625 32.71875 
Q 79.890625 40.578125 77.09375 44.375 
Q 74.3125 48.1875 68.609375 48.1875 
Q 61.625 48.1875 57.5625 43.546875 
Q 53.515625 38.921875 53.515625 30.90625 
L 53.515625 0 
L 44.484375 0 
L 44.484375 32.71875 
Q 44.484375 40.625 41.703125 44.40625 
Q 38.921875 48.1875 33.109375 48.1875 
Q 26.21875 48.1875 22.15625 43.53125 
Q 18.109375 38.875 18.109375 30.90625 
L 18.109375 0 
L 9.078125 0 
L 9.078125 54.6875 
L 18.109375 54.6875 
L 18.109375 46.1875 
Q 21.1875 51.21875 25.484375 53.609375 
Q 29.78125 56 35.6875 56 
Q 41.65625 56 45.828125 52.96875 
Q 50 49.953125 52 44.1875 
z
" id="DejaVuSans-6d"/>
      <path d="M 56.203125 29.59375 
L 56.203125 25.203125 
L 14.890625 25.203125 
Q 15.484375 15.921875 20.484375 11.0625 
Q 25.484375 6.203125 34.421875 6.203125 
Q 39.59375 6.203125 44.453125 7.46875 
Q 49.3125 8.734375 54.109375 11.28125 
L 54.109375 2.78125 
Q 49.265625 0.734375 44.1875 -0.34375 
Q 39.109375 -1.421875 33.890625 -1.421875 
Q 20.796875 -1.421875 13.15625 6.1875 
Q 5.515625 13.8125 5.515625 26.8125 
Q 5.515625 40.234375 12.765625 48.109375 
Q 20.015625 56 32.328125 56 
Q 43.359375 56 49.78125 48.890625 
Q 56.203125 41.796875 56.203125 29.59375 
z
M 47.21875 32.234375 
Q 47.125 39.59375 43.09375 43.984375 
Q 39.0625 48.390625 32.421875 48.390625 
Q 24.90625 48.390625 20.390625 44.140625 
Q 15.875 39.890625 15.1875 32.171875 
z
" id="DejaVuSans-65"/>
     </defs>
     <g style="fill:#ffffff;" transform="translate(309.123523 610.179531)scale(0.13 -0.13)">
      <use xlink:href="#DejaVuSans-54"/>
      <use x="61.037109" xlink:href="#DejaVuSans-69"/>
      <use x="88.820312" xlink:href="#DejaVuSans-6d"/>
      <use x="186.232422" xlink:href="#DejaVuSans-65"/>
     </g>
    </g>
   </g>
   <g id="matplotlib.axis_2">
    <g id="ytick_1">
     <g id="line2d_6">
      <defs>
       <path d="M 0 0 
L -3.5 0 
" id="m3173b50a25" style="stroke:#ffffff;stroke-width:0.8;"/>
      </defs>
      <g>
       <use style="fill:#ffffff;stroke:#ffffff;stroke-width:0.8;" x="135" xlink:href="#m3173b50a25" y="562.927565"/>
      </g>
     </g>
     <g id="text_7">
      <!-- −0.2 -->
      <defs>
       <path d="M 10.59375 35.5 
L 73.1875 35.5 
L 73.1875 27.203125 
L 10.59375 27.203125 
z
" id="DejaVuSans-2212"/>
       <path d="M 10.6875 12.40625 
L 21 12.40625 
L 21 0 
L 10.6875 0 
z
" id="DejaVuSans-2e"/>
      </defs>
      <g style="fill:#ffffff;" transform="translate(96.432344 567.866549)scale(0.13 -0.13)">
       <use xlink:href="#DejaVuSans-2212"/>
       <use x="83.789062" xlink:href="#DejaVuSans-30"/>
       <use x="147.412109" xlink:href="#DejaVuSans-2e"/>
       <use x="179.199219" xlink:href="#DejaVuSans-32"/>
      </g>
     </g>
    </g>
    <g id="ytick_2">
     <g id="line2d_7">
      <g>
       <use style="fill:#ffffff;stroke:#ffffff;stroke-width:0.8;" x="135" xlink:href="#m3173b50a25" y="485.846304"/>
      </g>
     </g>
     <g id="text_8">
      <!-- 0.0 -->
      <g style="fill:#ffffff;" transform="translate(107.325937 490.785288)scale(0.13 -0.13)">
       <use xlink:href="#DejaVuSans-30"/>
       <use x="63.623047" xlink:href="#DejaVuSans-2e"/>
       <use x="95.410156" xlink:href="#DejaVuSans-30"/>
      </g>
     </g>
    </g>
    <g id="ytick_3">
     <g id="line2d_8">
      <g>
       <use style="fill:#ffffff;stroke:#ffffff;stroke-width:0.8;" x="135" xlink:href="#m3173b50a25" y="408.765043"/>
      </g>
     </g>
     <g id="text_9">
      <!-- 0.2 -->
      <g style="fill:#ffffff;" transform="translate(107.325937 413.704027)scale(0.13 -0.13)">
       <use xlink:href="#DejaVuSans-30"/>
       <use x="63.623047" xlink:href="#DejaVuSans-2e"/>
       <use x="95.410156" xlink:href="#DejaVuSans-32"/>
      </g>
     </g>
    </g>
    <g id="ytick_4">
     <g id="line2d_9">
      <g>
       <use style="fill:#ffffff;stroke:#ffffff;stroke-width:0.8;" x="135" xlink:href="#m3173b50a25" y="331.683782"/>
      </g>
     </g>
     <g id="text_10">
      <!-- 0.4 -->
      <defs>
       <path d="M 37.796875 64.3125 
L 12.890625 25.390625 
L 37.796875 25.390625 
z
M 35.203125 72.90625 
L 47.609375 72.90625 
L 47.609375 25.390625 
L 58.015625 25.390625 
L 58.015625 17.1875 
L 47.609375 17.1875 
L 47.609375 0 
L 37.796875 0 
L 37.796875 17.1875 
L 4.890625 17.1875 
L 4.890625 26.703125 
z
" id="DejaVuSans-34"/>
      </defs>
      <g style="fill:#ffffff;" transform="translate(107.325937 336.622767)scale(0.13 -0.13)">
       <use xlink:href="#DejaVuSans-30"/>
       <use x="63.623047" xlink:href="#DejaVuSans-2e"/>
       <use x="95.410156" xlink:href="#DejaVuSans-34"/>
      </g>
     </g>
    </g>
    <g id="ytick_5">
     <g id="line2d_10">
      <g>
       <use style="fill:#ffffff;stroke:#ffffff;stroke-width:0.8;" x="135" xlink:href="#m3173b50a25" y="254.602522"/>
      </g>
     </g>
     <g id="text_11">
      <!-- 0.6 -->
      <defs>
       <path d="M 33.015625 40.375 
Q 26.375 40.375 22.484375 35.828125 
Q 18.609375 31.296875 18.609375 23.390625 
Q 18.609375 15.53125 22.484375 10.953125 
Q 26.375 6.390625 33.015625 6.390625 
Q 39.65625 6.390625 43.53125 10.953125 
Q 47.40625 15.53125 47.40625 23.390625 
Q 47.40625 31.296875 43.53125 35.828125 
Q 39.65625 40.375 33.015625 40.375 
z
M 52.59375 71.296875 
L 52.59375 62.3125 
Q 48.875 64.0625 45.09375 64.984375 
Q 41.3125 65.921875 37.59375 65.921875 
Q 27.828125 65.921875 22.671875 59.328125 
Q 17.53125 52.734375 16.796875 39.40625 
Q 19.671875 43.65625 24.015625 45.921875 
Q 28.375 48.1875 33.59375 48.1875 
Q 44.578125 48.1875 50.953125 41.515625 
Q 57.328125 34.859375 57.328125 23.390625 
Q 57.328125 12.15625 50.6875 5.359375 
Q 44.046875 -1.421875 33.015625 -1.421875 
Q 20.359375 -1.421875 13.671875 8.265625 
Q 6.984375 17.96875 6.984375 36.375 
Q 6.984375 53.65625 15.1875 63.9375 
Q 23.390625 74.21875 37.203125 74.21875 
Q 40.921875 74.21875 44.703125 73.484375 
Q 48.484375 72.75 52.59375 71.296875 
z
" id="DejaVuSans-36"/>
      </defs>
      <g style="fill:#ffffff;" transform="translate(107.325937 259.541506)scale(0.13 -0.13)">
       <use xlink:href="#DejaVuSans-30"/>
       <use x="63.623047" xlink:href="#DejaVuSans-2e"/>
       <use x="95.410156" xlink:href="#DejaVuSans-36"/>
      </g>
     </g>
    </g>
    <g id="ytick_6">
     <g id="line2d_11">
      <g>
       <use style="fill:#ffffff;stroke:#ffffff;stroke-width:0.8;" x="135" xlink:href="#m3173b50a25" y="177.521261"/>
      </g>
     </g>
     <g id="text_12">
      <!-- 0.8 -->
      <defs>
       <path d="M 31.78125 34.625 
Q 24.75 34.625 20.71875 30.859375 
Q 16.703125 27.09375 16.703125 20.515625 
Q 16.703125 13.921875 20.71875 10.15625 
Q 24.75 6.390625 31.78125 6.390625 
Q 38.8125 6.390625 42.859375 10.171875 
Q 46.921875 13.96875 46.921875 20.515625 
Q 46.921875 27.09375 42.890625 30.859375 
Q 38.875 34.625 31.78125 34.625 
z
M 21.921875 38.8125 
Q 15.578125 40.375 12.03125 44.71875 
Q 8.5 49.078125 8.5 55.328125 
Q 8.5 64.0625 14.71875 69.140625 
Q 20.953125 74.21875 31.78125 74.21875 
Q 42.671875 74.21875 48.875 69.140625 
Q 55.078125 64.0625 55.078125 55.328125 
Q 55.078125 49.078125 51.53125 44.71875 
Q 48 40.375 41.703125 38.8125 
Q 48.828125 37.15625 52.796875 32.3125 
Q 56.78125 27.484375 56.78125 20.515625 
Q 56.78125 9.90625 50.3125 4.234375 
Q 43.84375 -1.421875 31.78125 -1.421875 
Q 19.734375 -1.421875 13.25 4.234375 
Q 6.78125 9.90625 6.78125 20.515625 
Q 6.78125 27.484375 10.78125 32.3125 
Q 14.796875 37.15625 21.921875 38.8125 
z
M 18.3125 54.390625 
Q 18.3125 48.734375 21.84375 45.5625 
Q 25.390625 42.390625 31.78125 42.390625 
Q 38.140625 42.390625 41.71875 45.5625 
Q 45.3125 48.734375 45.3125 54.390625 
Q 45.3125 60.0625 41.71875 63.234375 
Q 38.140625 66.40625 31.78125 66.40625 
Q 25.390625 66.40625 21.84375 63.234375 
Q 18.3125 60.0625 18.3125 54.390625 
z
" id="DejaVuSans-38"/>
      </defs>
      <g style="fill:#ffffff;" transform="translate(107.325937 182.460245)scale(0.13 -0.13)">
       <use xlink:href="#DejaVuSans-30"/>
       <use x="63.623047" xlink:href="#DejaVuSans-2e"/>
       <use x="95.410156" xlink:href="#DejaVuSans-38"/>
      </g>
     </g>
    </g>
    <g id="ytick_7">
     <g id="line2d_12">
      <g>
       <use style="fill:#ffffff;stroke:#ffffff;stroke-width:0.8;" x="135" xlink:href="#m3173b50a25" y="100.44"/>
      </g>
     </g>
     <g id="text_13">
      <!-- 1.0 -->
      <g style="fill:#ffffff;" transform="translate(107.325937 105.378984)scale(0.13 -0.13)">
       <use xlink:href="#DejaVuSans-31"/>
       <use x="63.623047" xlink:href="#DejaVuSans-2e"/>
       <use x="95.410156" xlink:href="#DejaVuSans-30"/>
      </g>
     </g>
    </g>
    <g id="text_14">
     <!-- Autocorrelation -->
     <defs>
      <path d="M 34.1875 63.1875 
L 20.796875 26.90625 
L 47.609375 26.90625 
z
M 28.609375 72.90625 
L 39.796875 72.90625 
L 67.578125 0 
L 57.328125 0 
L 50.6875 18.703125 
L 17.828125 18.703125 
L 11.1875 0 
L 0.78125 0 
z
" id="DejaVuSans-41"/>
      <path d="M 8.5 21.578125 
L 8.5 54.6875 
L 17.484375 54.6875 
L 17.484375 21.921875 
Q 17.484375 14.15625 20.5 10.265625 
Q 23.53125 6.390625 29.59375 6.390625 
Q 36.859375 6.390625 41.078125 11.03125 
Q 45.3125 15.671875 45.3125 23.6875 
L 45.3125 54.6875 
L 54.296875 54.6875 
L 54.296875 0 
L 45.3125 0 
L 45.3125 8.40625 
Q 42.046875 3.421875 37.71875 1 
Q 33.40625 -1.421875 27.6875 -1.421875 
Q 18.265625 -1.421875 13.375 4.4375 
Q 8.5 10.296875 8.5 21.578125 
z
M 31.109375 56 
z
" id="DejaVuSans-75"/>
      <path d="M 18.3125 70.21875 
L 18.3125 54.6875 
L 36.8125 54.6875 
L 36.8125 47.703125 
L 18.3125 47.703125 
L 18.3125 18.015625 
Q 18.3125 11.328125 20.140625 9.421875 
Q 21.96875 7.515625 27.59375 7.515625 
L 36.8125 7.515625 
L 36.8125 0 
L 27.59375 0 
Q 17.1875 0 13.234375 3.875 
Q 9.28125 7.765625 9.28125 18.015625 
L 9.28125 47.703125 
L 2.6875 47.703125 
L 2.6875 54.6875 
L 9.28125 54.6875 
L 9.28125 70.21875 
z
" id="DejaVuSans-74"/>
      <path d="M 30.609375 48.390625 
Q 23.390625 48.390625 19.1875 42.75 
Q 14.984375 37.109375 14.984375 27.296875 
Q 14.984375 17.484375 19.15625 11.84375 
Q 23.34375 6.203125 30.609375 6.203125 
Q 37.796875 6.203125 41.984375 11.859375 
Q 46.1875 17.53125 46.1875 27.296875 
Q 46.1875 37.015625 41.984375 42.703125 
Q 37.796875 48.390625 30.609375 48.390625 
z
M 30.609375 56 
Q 42.328125 56 49.015625 48.375 
Q 55.71875 40.765625 55.71875 27.296875 
Q 55.71875 13.875 49.015625 6.21875 
Q 42.328125 -1.421875 30.609375 -1.421875 
Q 18.84375 -1.421875 12.171875 6.21875 
Q 5.515625 13.875 5.515625 27.296875 
Q 5.515625 40.765625 12.171875 48.375 
Q 18.84375 56 30.609375 56 
z
" id="DejaVuSans-6f"/>
      <path d="M 48.78125 52.59375 
L 48.78125 44.1875 
Q 44.96875 46.296875 41.140625 47.34375 
Q 37.3125 48.390625 33.40625 48.390625 
Q 24.65625 48.390625 19.8125 42.84375 
Q 14.984375 37.3125 14.984375 27.296875 
Q 14.984375 17.28125 19.8125 11.734375 
Q 24.65625 6.203125 33.40625 6.203125 
Q 37.3125 6.203125 41.140625 7.25 
Q 44.96875 8.296875 48.78125 10.40625 
L 48.78125 2.09375 
Q 45.015625 0.34375 40.984375 -0.53125 
Q 36.96875 -1.421875 32.421875 -1.421875 
Q 20.0625 -1.421875 12.78125 6.34375 
Q 5.515625 14.109375 5.515625 27.296875 
Q 5.515625 40.671875 12.859375 48.328125 
Q 20.21875 56 33.015625 56 
Q 37.15625 56 41.109375 55.140625 
Q 45.0625 54.296875 48.78125 52.59375 
z
" id="DejaVuSans-63"/>
      <path d="M 41.109375 46.296875 
Q 39.59375 47.171875 37.8125 47.578125 
Q 36.03125 48 33.890625 48 
Q 26.265625 48 22.1875 43.046875 
Q 18.109375 38.09375 18.109375 28.8125 
L 18.109375 0 
L 9.078125 0 
L 9.078125 54.6875 
L 18.109375 54.6875 
L 18.109375 46.1875 
Q 20.953125 51.171875 25.484375 53.578125 
Q 30.03125 56 36.53125 56 
Q 37.453125 56 38.578125 55.875 
Q 39.703125 55.765625 41.0625 55.515625 
z
" id="DejaVuSans-72"/>
      <path d="M 9.421875 75.984375 
L 18.40625 75.984375 
L 18.40625 0 
L 9.421875 0 
z
" id="DejaVuSans-6c"/>
      <path d="M 34.28125 27.484375 
Q 23.390625 27.484375 19.1875 25 
Q 14.984375 22.515625 14.984375 16.5 
Q 14.984375 11.71875 18.140625 8.90625 
Q 21.296875 6.109375 26.703125 6.109375 
Q 34.1875 6.109375 38.703125 11.40625 
Q 43.21875 16.703125 43.21875 25.484375 
L 43.21875 27.484375 
z
M 52.203125 31.203125 
L 52.203125 0 
L 43.21875 0 
L 43.21875 8.296875 
Q 40.140625 3.328125 35.546875 0.953125 
Q 30.953125 -1.421875 24.3125 -1.421875 
Q 15.921875 -1.421875 10.953125 3.296875 
Q 6 8.015625 6 15.921875 
Q 6 25.140625 12.171875 29.828125 
Q 18.359375 34.515625 30.609375 34.515625 
L 43.21875 34.515625 
L 43.21875 35.40625 
Q 43.21875 41.609375 39.140625 45 
Q 35.0625 48.390625 27.6875 48.390625 
Q 23 48.390625 18.546875 47.265625 
Q 14.109375 46.140625 10.015625 43.890625 
L 10.015625 52.203125 
Q 14.9375 54.109375 19.578125 55.046875 
Q 24.21875 56 28.609375 56 
Q 40.484375 56 46.34375 49.84375 
Q 52.203125 43.703125 52.203125 31.203125 
z
" id="DejaVuSans-61"/>
      <path d="M 54.890625 33.015625 
L 54.890625 0 
L 45.90625 0 
L 45.90625 32.71875 
Q 45.90625 40.484375 42.875 44.328125 
Q 39.84375 48.1875 33.796875 48.1875 
Q 26.515625 48.1875 22.3125 43.546875 
Q 18.109375 38.921875 18.109375 30.90625 
L 18.109375 0 
L 9.078125 0 
L 9.078125 54.6875 
L 18.109375 54.6875 
L 18.109375 46.1875 
Q 21.34375 51.125 25.703125 53.5625 
Q 30.078125 56 35.796875 56 
Q 45.21875 56 50.046875 50.171875 
Q 54.890625 44.34375 54.890625 33.015625 
z
" id="DejaVuSans-6e"/>
     </defs>
     <g style="fill:#ffffff;" transform="translate(89.72875 377.462656)rotate(-90)scale(0.13 -0.13)">
      <use xlink:href="#DejaVuSans-41"/>
      <use x="68.408203" xlink:href="#DejaVuSans-75"/>
      <use x="131.787109" xlink:href="#DejaVuSans-74"/>
      <use x="170.996094" xlink:href="#DejaVuSans-6f"/>
      <use x="232.177734" xlink:href="#DejaVuSans-63"/>
      <use x="287.158203" xlink:href="#DejaVuSans-6f"/>
      <use x="348.339844" xlink:href="#DejaVuSans-72"/>
      <use x="389.4375" xlink:href="#DejaVuSans-72"/>
      <use x="430.519531" xlink:href="#DejaVuSans-65"/>
      <use x="492.042969" xlink:href="#DejaVuSans-6c"/>
      <use x="519.826172" xlink:href="#DejaVuSans-61"/>
      <use x="581.105469" xlink:href="#DejaVuSans-74"/>
      <use x="620.314453" xlink:href="#DejaVuSans-69"/>
      <use x="648.097656" xlink:href="#DejaVuSans-6f"/>
      <use x="709.279297" xlink:href="#DejaVuSans-6e"/>
     </g>
    </g>
   </g>
   <g id="line2d_13">
    <path clip-path="url(#pe35c49b43e)" d="M 152.293388 100.44 
L 153.033863 207.308267 
L 153.812069 290.179592 
L 154.312008 321.929166 
L 154.92514 347.154947 
L 155.242711 356.503441 
L 156.800695 406.957231 
L 157.343081 426.304336 
L 158.48445 454.602139 
L 158.567773 454.969075 
L 158.622797 454.723156 
L 158.805165 453.677522 
L 158.871194 453.840701 
L 158.998537 454.741005 
L 159.193482 455.959674 
L 159.2658 456.167211 
L 159.333402 456.104623 
L 159.341262 456.110882 
L 159.380566 455.987162 
L 159.661978 455.092979 
L 159.665122 455.093708 
L 159.709142 455.116839 
L 159.746873 455.01957 
L 159.783032 454.885295 
L 159.836484 455.148165 
L 160.110036 457.413552 
L 160.16506 457.331333 
L 160.198075 457.220195 
L 160.631984 453.967667 
L 160.837933 450.907974 
L 161.102052 448.133757 
L 161.232539 447.795012 
L 161.377175 445.937726 
L 161.917989 437.789038 
L 161.973014 437.835609 
L 162.02961 437.689869 
L 162.046904 437.647728 
L 162.123938 437.764018 
L 162.171102 437.90698 
L 162.233988 437.754515 
L 162.564136 435.167649 
L 162.798384 431.917694 
L 163.564013 416.787643 
L 163.846997 413.10869 
L 163.958618 413.357737 
L 164.128408 414.750584 
L 164.911331 423.439214 
L 165.640801 436.728171 
L 165.922213 441.977275 
L 166.327823 449.232059 
L 166.431584 450.542435 
L 166.983403 460.269178 
L 167.319839 464.745036 
L 167.506923 467.834797 
L 168.368452 483.847235 
L 168.593267 485.495349 
L 168.596411 485.48936 
L 168.660869 485.15003 
L 168.868391 483.831863 
L 168.893545 483.918167 
L 169.190678 484.863471 
L 169.198539 484.85765 
L 169.231553 484.855005 
L 169.285006 484.926327 
L 169.322737 484.823409 
L 170.269161 478.510272 
L 170.998631 469.781745 
L 171.119685 469.509268 
L 171.176282 469.588242 
L 171.254889 469.489293 
L 171.349217 469.475105 
L 171.36651 469.510532 
L 171.542589 470.20165 
L 172.672953 480.74307 
L 172.734266 480.635346 
L 172.915062 479.341878 
L 173.345826 475.750811 
L 173.575358 474.186819 
L 173.801745 470.871386 
L 174.257664 462.138009 
L 174.708866 454.97486 
L 175.18365 444.135493 
L 175.5814 439.922419 
L 175.623848 440.056742 
L 175.777917 440.376909 
L 175.832941 440.35973 
L 175.837658 440.357652 
L 175.862812 440.254929 
L 175.925697 439.986366 
L 175.976005 440.250151 
L 176.196104 441.989433 
L 177.255722 456.081347 
L 177.502547 457.620422 
L 177.956894 464.092304 
L 178.037072 463.95936 
L 178.199002 463.527969 
L 178.636055 461.162579 
L 178.662781 461.273717 
L 178.912751 462.404617 
L 179.301068 464.238471 
L 179.540032 465.935866 
L 179.676807 466.974856 
L 179.994378 468.754097 
L 180.03211 468.71524 
L 180.143731 468.780656 
L 180.178318 468.689675 
L 180.27579 468.608313 
L 180.299372 468.666529 
L 180.390556 469.314349 
L 180.610655 470.214604 
L 180.737997 470.507658 
L 180.854335 471.17304 
L 181.157757 473.064787 
L 181.264662 473.468771 
L 181.352702 473.232238 
L 181.585377 471.58761 
L 181.769317 470.705631 
L 181.805476 470.791368 
L 182.215803 473.167458 
L 182.311703 472.709286 
L 182.541234 471.939523 
L 182.574249 472.030106 
L 182.723602 473.763745 
L 182.976715 475.985602 
L 183.21568 477.975223 
L 183.492375 480.14307 
L 183.701469 482.298459 
L 184.496968 492.127679 
L 184.715495 494.986006 
L 185.55973 511.868464 
L 186.31121 522.182997 
L 186.796999 531.203804 
L 187.013954 532.430517 
L 187.160162 533.090846 
L 187.204182 533.073819 
L 187.218331 533.102087 
L 187.249774 532.972861 
L 187.785871 529.012047 
L 187.897493 528.733015 
L 188.854922 519.624563 
L 188.913091 519.856113 
L 189.414601 523.529281 
L 189.493208 523.406226 
L 189.851655 522.060496 
L 189.942838 521.923721 
L 190.53396 518.662947 
L 190.540249 518.661439 
L 190.573264 518.782344 
L 191.261858 523.328809 
L 191.665896 526.289604 
L 192.458252 528.855414 
L 192.519565 528.973123 
L 192.551008 529.042828 
L 192.587167 528.85777 
L 192.835564 528.116605 
L 193.091821 527.747447 
L 193.118548 527.738257 
L 193.159423 527.831633 
L 193.176717 527.875269 
L 193.228597 527.711766 
L 193.322925 527.350465 
L 193.368517 527.574528 
L 193.470706 527.983995 
L 193.530447 527.904576 
L 193.602765 527.731268 
L 193.670367 527.811431 
L 193.698665 527.829639 
L 193.752117 527.731472 
L 193.832296 527.200176 
L 194.102703 525.671042 
L 194.143579 525.76152 
L 194.258344 525.850743 
L 194.311797 525.992029 
L 194.354245 525.793763 
L 194.561766 523.41381 
L 195.577364 509.947042 
L 195.578936 509.947426 
L 195.616668 510.155596 
L 195.784886 512.755453 
L 196.311551 520.820814 
L 196.619689 524.117301 
L 196.633838 524.110721 
L 196.673141 524.003998 
L 196.965558 521.700066 
L 197.067747 521.905275 
L 197.091329 521.883249 
L 197.125916 521.994595 
L 197.706033 525.799027 
L 197.732759 525.748521 
L 197.869535 525.665749 
L 197.907266 525.631393 
L 197.952858 525.756002 
L 198.188678 526.561453 
L 198.23427 526.53229 
L 198.369473 526.565269 
L 198.377334 526.584458 
L 198.474806 527.135516 
L 198.608437 527.827867 
L 198.644596 527.736425 
L 198.748357 527.051481 
L 199.023481 525.035883 
L 199.6712 519.62668 
L 199.757667 519.987335 
L 200.43054 524.8198 
L 200.606619 526.68409 
L 200.748111 527.351855 
L 200.766977 527.301623 
L 200.914757 526.308093 
L 201.244905 519.688099 
L 201.743271 507.672447 
L 202.551348 498.849219 
L 202.609517 498.975431 
L 202.961675 501.235885 
L 203.889233 511.471519 
L 203.936397 511.552249 
L 203.978845 511.409903 
L 204.154924 511.2203 
L 204.169073 511.245571 
L 204.480356 511.744344 
L 204.499221 511.699186 
L 204.695738 511.493198 
L 204.731897 511.314539 
L 205.302581 505.047653 
L 205.939295 493.738673 
L 206.313463 487.891703 
L 206.525701 486.206187 
L 206.552427 486.313172 
L 206.659332 486.907881 
L 206.703352 486.697774 
L 206.731651 486.604177 
L 206.825979 486.63322 
L 206.833839 486.627064 
L 206.882575 486.766233 
L 206.958038 487.385129 
L 207.296046 493.179429 
L 208.379246 510.993733 
L 208.481435 511.349207 
L 208.56633 511.208483 
L 208.682668 510.047829 
L 209.688833 493.0155 
L 209.775301 492.71613 
L 209.85548 492.861126 
L 210.064573 493.775696 
L 210.317687 496.192453 
L 210.569228 498.083817 
L 210.781466 499.153164 
L 210.867933 498.89098 
L 210.973266 498.77828 
L 211.03458 498.509674 
L 211.114758 498.618881 
L 211.311275 499.100911 
L 211.499931 500.116136 
L 211.504647 500.115552 
L 211.521941 500.140482 
L 211.537662 500.21237 
L 211.938556 502.093273 
L 212.19953 503.140779 
L 212.61929 507.041574 
L 212.694752 507.281532 
L 212.760782 507.161736 
L 212.829956 506.446868 
L 214.672496 480.511777 
L 214.824993 479.643035 
L 214.865869 479.419583 
L 214.944475 479.580904 
L 215.056097 480.258066 
L 215.218026 481.176158 
L 215.276195 480.863446 
L 215.532453 478.912884 
L 215.595338 479.132105 
L 215.873606 480.710362 
L 215.980511 480.33039 
L 216.048113 480.265736 
L 216.0827 480.365377 
L 216.20847 481.349308 
L 216.65024 486.970594 
L 217.222496 494.02419 
L 217.296387 494.11117 
L 217.330974 494.004274 
L 217.698853 492.255637 
L 217.944106 490.182991 
L 218.458193 482.804872 
L 218.670431 481.773955 
L 218.70659 481.744771 
L 218.752182 481.858399 
L 218.819784 482.293906 
L 219.143643 484.175572 
L 219.396757 485.515304 
L 220.000456 490.934444 
L 220.156097 491.973983 
L 220.297589 492.698362 
L 220.333748 492.523329 
L 220.72521 490.141911 
L 220.975179 489.890679 
L 221.177984 489.768335 
L 221.464112 488.546579 
L 221.515993 488.644394 
L 221.62447 489.711168 
L 222.151135 494.35618 
L 222.350796 496.083895 
L 222.419969 495.988605 
L 222.54574 496.116401 
L 222.750117 496.801254 
L 222.765839 496.781991 
L 222.916764 496.702378 
L 223.000087 496.532453 
L 223.051967 496.651255 
L 223.080265 496.708617 
L 223.141579 496.567562 
L 223.558194 495.320233 
L 223.569199 495.335176 
L 223.834889 496.116122 
L 223.904063 495.962076 
L 225.889668 482.175541 
L 225.990284 482.268405 
L 226.078324 482.517933 
L 226.128632 482.360274 
L 226.483934 481.388131 
L 226.504372 481.448947 
L 226.666302 483.058452 
L 227.309304 491.298311 
L 227.898854 495.422197 
L 228.008904 495.151272 
L 228.095371 494.832046 
L 228.923885 488.956226 
L 229.176999 487.191348 
L 229.188004 487.219816 
L 229.368799 487.47492 
L 229.412819 487.576867 
L 229.573176 488.584934 
L 229.917473 491.547968 
L 229.947344 491.493274 
L 229.994508 491.264133 
L 230.066826 491.084498 
L 230.11399 491.201518 
L 230.200457 491.859782 
L 230.558904 495.09405 
L 230.79944 495.444483 
L 231.151598 499.692756 
L 231.613805 505.382052 
L 231.868491 506.807402 
L 231.907794 506.705333 
L 231.998978 506.540149 
L 232.531931 503.799407 
L 232.862079 500.336471 
L 232.89195 500.356627 
L 233.005143 500.460883 
L 233.113621 500.851806 
L 233.278695 502.185234 
L 234.204681 511.043005 
L 234.470372 513.189204 
L 234.803664 516.337951 
L 235.379065 520.55625 
L 235.478109 520.053653 
L 235.684059 518.312645 
L 235.897869 514.959727 
L 236.550304 504.956021 
L 237.051815 502.288864 
L 237.117844 502.373394 
L 237.15872 502.427228 
L 237.205884 502.280866 
L 237.353664 501.654347 
L 237.646081 498.435129 
L 238.251352 491.341599 
L 238.350397 491.392945 
L 238.355113 491.401156 
L 238.419571 491.725681 
L 239.211926 499.194441 
L 239.263806 499.032044 
L 239.683566 497.312373 
L 240.082888 493.016764 
L 240.711741 488.495477 
L 240.997869 485.907275 
L 241.02774 485.989235 
L 241.089053 486.05246 
L 241.122068 485.9207 
L 241.552832 483.694334 
L 241.728911 482.926199 
L 241.939577 482.229229 
L 241.944294 482.231613 
L 242.01504 482.26781 
L 242.062204 482.202941 
L 242.131378 482.159749 
L 242.16282 482.281344 
L 242.329466 482.798234 
L 242.370342 482.656232 
L 242.654898 480.997418 
L 242.695773 481.143528 
L 243.069941 482.621308 
L 243.173702 482.697425 
L 243.197284 482.660065 
L 243.208289 482.652246 
L 243.244448 482.780004 
L 243.346637 483.228166 
L 243.396945 482.878164 
L 243.461402 482.594739 
L 243.540009 482.661241 
L 243.593462 482.828205 
L 243.852864 484.449822 
L 243.874873 484.406091 
L 244.184584 483.062024 
L 244.349658 482.595709 
L 244.35123 482.596748 
L 244.434553 482.798268 
L 244.744263 484.107377 
L 244.865317 483.788387 
L 245.027247 483.336084 
L 245.074411 483.462162 
L 245.311803 485.350534 
L 245.821175 493.347307 
L 246.596236 504.880454 
L 246.701569 505.094406 
L 246.734584 505.023426 
L 247.155916 503.590347 
L 247.853943 496.777243 
L 247.934122 497.10515 
L 248.213962 499.328345 
L 249.360047 514.555836 
L 249.589578 515.859733 
L 249.842692 520.263601 
L 250.061218 522.619642 
L 250.215287 524.106642 
L 250.617753 528.351914 
L 250.625614 528.344612 
L 250.715226 528.014911 
L 250.822131 527.648773 
L 250.869295 527.713524 
L 251.127125 528.011634 
L 251.160139 527.905874 
L 251.235602 527.082354 
L 252.073549 517.71665 
L 252.274782 517.311066 
L 252.579776 514.195909 
L 252.916212 511.49232 
L 252.919357 511.494407 
L 252.986958 511.687188 
L 253.05456 511.878344 
L 253.106441 511.731398 
L 253.353266 510.525507 
L 253.843771 507.076739 
L 254.173919 505.427583 
L 254.571669 501.815089 
L 254.807489 499.566916 
L 255.14707 496.610611 
L 255.209955 496.478865 
L 255.244542 496.674971 
L 255.400183 498.855217 
L 255.763346 503.407186 
L 255.816799 503.60112 
L 255.890689 503.48688 
L 255.978728 503.314057 
L 256.021176 503.433877 
L 256.058907 503.544996 
L 256.113932 503.355874 
L 256.194111 502.96655 
L 256.332458 502.669078 
L 256.360757 502.71378 
L 256.447224 502.911793 
L 256.506965 502.860439 
L 256.728636 502.773049 
L 256.786805 502.570966 
L 256.865411 502.653043 
L 257.104376 503.761168 
L 257.541429 509.100934 
L 258.594758 525.324982 
L 258.825862 526.638799 
L 258.833722 526.633834 
L 258.869882 526.593377 
L 258.904468 526.720239 
L 259.124567 527.459777 
L 259.350954 528.002456 
L 259.476725 528.333247 
L 259.699968 530.025837 
L 260.118155 533.496131 
L 260.179469 533.637816 
L 260.253359 533.540559 
L 260.412144 533.538982 
L 260.413716 533.542363 
L 260.780024 534.190143 
L 260.81461 534.145509 
L 260.959247 534.088791 
L 260.97654 534.117471 
L 261.129037 534.25947 
L 261.526787 536.957722 
L 261.789333 540.673922 
L 262.779777 554.039857 
L 262.823797 553.917964 
L 262.899259 553.405024 
L 263.668033 546.822963 
L 263.812669 545.068594 
L 264.559432 534.86566 
L 266.678668 493.106164 
L 266.878329 491.633687 
L 267.250924 489.361276 
L 267.447441 486.37167 
L 268.23508 475.725031 
L 269.093465 467.628942 
L 269.264827 465.902625 
L 269.668866 461.132542 
L 269.758477 460.923593 
L 269.815074 460.957111 
L 269.931412 461.013244 
L 269.942417 460.993729 
L 270.022596 460.579812 
L 270.308724 459.941869 
L 270.410913 459.426533 
L 270.561837 458.86416 
L 270.613718 459.076805 
L 270.950154 461.448974 
L 271.882429 472.806186 
L 271.94217 472.85685 
L 271.987762 472.765516 
L 272.100956 471.978002 
L 272.382368 469.51354 
L 272.432676 469.384425 
L 272.490845 469.529483 
L 272.525432 469.598578 
L 272.593034 469.484273 
L 272.703083 469.161489 
L 272.806844 468.496468 
L 272.871301 468.698041 
L 273.399538 471.505063 
L 273.846024 478.273579 
L 274.396271 487.117272 
L 275.13989 492.878156 
L 275.143034 492.875774 
L 275.260944 492.682439 
L 275.306536 492.829577 
L 275.386715 492.988411 
L 275.418157 492.824308 
L 275.812763 487.571806 
L 276.290691 481.227684 
L 276.540661 478.735288 
L 277.68989 466.570706 
L 277.768497 466.355438 
L 277.872258 465.558213 
L 278.229132 461.139677 
L 278.298306 461.412906 
L 278.600155 462.773506 
L 278.979039 464.104311 
L 279.123676 464.549446 
L 279.161407 464.458639 
L 279.511993 463.257697 
L 279.639335 462.875139 
L 279.920747 460.237986 
L 280.381382 456.968013 
L 280.390815 456.977217 
L 280.470994 457.059608 
L 280.515014 456.989088 
L 280.532307 456.991395 
L 280.571611 457.084144 
L 280.692665 457.374616 
L 280.730396 457.302294 
L 281.043251 455.861326 
L 281.170593 455.293894 
L 281.228762 455.309277 
L 281.378115 454.995527 
L 281.455149 455.178386 
L 281.662671 456.308806 
L 282.673553 465.530349 
L 282.936099 467.910223 
L 282.945532 467.899463 
L 282.962825 467.887895 
L 283.027283 467.980815 
L 283.318127 469.10083 
L 283.767758 472.408588 
L 283.835359 472.558163 
L 283.906105 472.486722 
L 283.935976 472.490592 
L 283.959558 472.583245 
L 284.068035 473.143082 
L 284.223676 474.983324 
L 284.986161 485.887148 
L 285.328886 487.851319 
L 285.470378 488.605127 
L 285.841402 490.920893 
L 285.971889 491.989906 
L 286.103948 493.237396 
L 286.470255 496.699579 
L 286.476543 496.695864 
L 286.556722 496.44038 
L 286.820841 495.739139 
L 286.83499 495.748359 
L 286.869577 495.620717 
L 287.037795 495.239898 
L 287.201297 494.021405 
L 287.652499 489.384819 
L 287.786131 489.147882 
L 287.836439 489.18815 
L 287.855304 489.207388 
L 287.913473 489.094856 
L 288.143005 487.747789 
L 288.290785 486.780912 
L 288.333233 486.847328 
L 288.383541 486.835784 
L 288.405551 486.9216 
L 288.713689 489.46106 
L 288.885052 490.119194 
L 288.888196 490.11785 
L 289.064275 490.374401 
L 289.224633 490.71104 
L 289.249787 490.684124 
L 289.408572 490.187377 
L 289.545348 489.223115 
L 289.85663 486.436335 
L 290.37229 480.833694 
L 290.678856 477.488998 
L 290.947691 475.285676 
L 291.117481 474.69282 
L 291.233819 474.741674 
L 291.361162 474.492053 
L 291.43348 473.8911 
L 291.636285 471.370766 
L 291.864244 468.952659 
L 291.881538 468.975805 
L 291.897259 469.053755 
L 292.181815 470.178869 
L 292.232124 470.055464 
L 292.445934 469.656246 
L 292.455367 469.672377 
L 292.713196 470.568862 
L 292.91443 474.101383 
L 293.216279 478.151328 
L 293.48983 480.074213 
L 294.077808 486.968085 
L 294.109251 486.924137 
L 294.260176 486.843793 
L 294.492851 485.490156 
L 294.873308 479.759797 
L 295.344948 475.087159 
L 295.876329 473.240547 
L 296.0021 473.245741 
L 296.00996 473.26405 
L 296.318098 474.790698 
L 296.690694 476.775855 
L 296.780306 476.978208 
L 296.830614 476.917617 
L 297.008265 477.034041 
L 297.044424 477.069489 
L 297.107309 476.981717 
L 297.327408 476.828875 
L 297.349418 476.851293 
L 297.357278 476.847939 
L 297.385577 476.742687 
L 297.54279 475.395447 
L 299.096058 458.601433 
L 300.18083 447.027649 
L 300.250004 447.322249 
L 300.455953 449.691475 
L 300.949603 457.218482 
L 301.40395 464.038333 
L 301.719949 465.026127 
L 301.933759 465.45362 
L 302.138136 466.332061 
L 302.872322 474.703229 
L 303.326669 477.512752 
L 303.633235 479.370829 
L 304.086009 483.637865 
L 304.166188 483.37744 
L 304.392575 482.847014 
L 304.472754 482.63969 
L 304.516774 482.817103 
L 304.865787 485.743083 
L 305.307557 494.871994 
L 305.879813 506.235021 
L 306.191096 508.972134 
L 306.28228 509.342571 
L 306.423772 510.111395 
L 306.511811 509.994467 
L 306.59199 509.598158 
L 306.782218 507.890508 
L 307.049481 506.404053 
L 307.234992 505.427163 
L 307.712921 500.634631 
L 307.714493 500.635592 
L 307.840264 500.74066 
L 307.874851 500.665017 
L 308.002193 499.971135 
L 308.164123 497.612352 
L 309.108975 481.627881 
L 309.462705 478.507277 
L 309.505153 478.443239 
L 309.552317 478.591776 
L 309.792853 479.333083 
L 309.84945 479.212157 
L 310.047539 477.606245 
L 311.001824 466.874155 
L 311.489185 460.968802 
L 311.545782 461.081328 
L 311.990696 462.267632 
L 312.333421 463.312775 
L 312.355431 463.294583 
L 312.457619 463.389016 
L 312.665141 463.816785 
L 312.794056 464.391921 
L 313.12892 467.028301 
L 313.161935 467.049504 
L 313.19495 466.934962 
L 313.539247 465.494151 
L 313.608421 465.545004 
L 313.62257 465.571028 
L 313.6886 465.429847 
L 314.032897 463.502799 
L 314.19011 462.911341 
L 314.20426 462.924896 
L 314.25614 463.195613 
L 314.366189 463.424224 
L 314.397632 463.386676 
L 314.507681 463.36828 
L 314.526547 463.387109 
L 314.674328 463.817719 
L 314.935302 464.921724 
L 315.142823 466.504325 
L 315.307897 468.855938 
L 315.683637 475.00973 
L 315.998064 479.962268 
L 316.131695 481.996476 
L 316.856449 495.151043 
L 317.089124 496.377681 
L 317.529322 499.039482 
L 317.664525 499.550801 
L 318.021399 501.343331 
L 318.219488 502.653763 
L 318.249359 502.625156 
L 318.301239 502.592666 
L 318.337398 502.691419 
L 318.351547 502.718101 
L 318.422293 502.585847 
L 318.754014 500.375888 
L 319.211504 497.462029 
L 319.235086 497.48185 
L 319.277534 497.361832 
L 319.489772 496.154003 
L 319.995999 491.651785 
L 320.084038 490.812446 
L 320.855956 482.048756 
L 321.162522 480.974418 
L 321.173527 480.986845 
L 321.326024 481.129837 
L 321.349606 481.058567 
L 321.973743 477.815874 
L 322.110518 476.637054 
L 322.184409 476.716051 
L 322.259871 477.185632 
L 322.607312 480.02835 
L 322.673342 479.91715 
L 322.770814 480.016182 
L 323.04751 481.92961 
L 323.247171 483.231446 
L 323.289618 483.118099 
L 323.437399 483.233616 
L 323.671647 484.348823 
L 324.217177 489.118878 
L 324.48444 491.887847 
L 324.709255 493.184675 
L 324.710827 493.184365 
L 324.74227 493.291593 
L 324.996955 495.598222 
L 325.330247 498.551734 
L 325.468595 498.656861 
L 325.517331 498.50656 
L 325.54563 498.490402 
L 325.59751 498.582716 
L 325.750007 499.124364 
L 325.963817 500.116352 
L 325.99526 500.058167 
L 326.262523 499.730612 
L 326.317547 499.85052 
L 326.663417 500.494964 
L 326.709008 500.395229 
L 326.808053 499.612296 
L 327.095753 497.524437 
L 327.175932 497.03912 
L 327.542239 494.858793 
L 327.567393 494.874907 
L 327.707313 495.363498 
L 328.656882 500.657127 
L 329.464958 511.094882 
L 329.74637 511.447573 
L 329.779385 511.524976 
L 329.832837 511.340182 
L 330.607899 507.5401 
L 330.658207 507.60784 
L 330.771401 507.792107 
L 330.78555 507.814761 
L 330.837431 507.672516 
L 330.974206 506.445243 
L 331.250902 504.519015 
L 331.664373 502.480006 
L 331.775994 502.89331 
L 331.96465 503.450952 
L 331.994521 503.378681 
L 332.096709 502.714927 
L 332.404848 501.043589 
L 332.613941 499.630421 
L 332.959811 498.114688 
L 333.170477 496.610532 
L 333.741161 491.131171 
L 334.423467 484.165586 
L 335.055464 481.310138 
L 335.123066 481.113869 
L 335.612 478.279431 
L 335.726765 478.55999 
L 335.909133 478.898048 
L 335.953153 479.022385 
L 336.283301 480.606966 
L 337.011198 487.336541 
L 337.234441 488.793751 
L 337.467117 490.165807 
L 337.471833 490.162109 
L 337.643196 489.946659 
L 337.717086 489.7253 
L 337.770539 489.909409 
L 337.787832 489.938933 
L 337.85229 489.79685 
L 338.165144 488.632032 
L 338.487432 486.395948 
L 339.133578 481.266905 
L 339.191747 481.285885 
L 339.490453 480.916947 
L 339.517179 480.938557 
L 339.600502 480.906266 
L 339.611507 480.846909 
L 339.979386 478.978685 
L 340.035983 479.090667 
L 340.174331 479.41108 
L 340.216778 479.324428 
L 340.229355 479.305117 
L 340.28438 479.433277 
L 340.54221 480.67455 
L 340.620817 480.494536 
L 341.092457 479.18142 
L 341.108178 479.188255 
L 341.208794 479.009757 
L 341.428893 478.166881 
L 341.496495 478.234603 
L 341.586106 478.42938 
L 341.975996 480.085064 
L 342.150502 480.442856 
L 342.442919 481.364835 
L 342.688172 482.026178 
L 343.332747 486.956204 
L 343.367334 486.92694 
L 343.463234 486.899224 
L 343.486816 486.94847 
L 343.579572 487.063221 
L 343.614159 487.020177 
L 343.688049 487.11397 
L 343.977321 488.153174 
L 344.244584 489.218667 
L 344.274455 489.239143 
L 344.323191 489.121371 
L 344.436384 488.585145 
L 344.582593 486.653262 
L 345.115546 479.057062 
L 345.557315 475.813736 
L 345.587186 475.842753 
L 345.690947 476.408871 
L 345.999085 479.249437 
L 347.503616 494.846386 
L 347.692272 495.872954 
L 348.127753 499.167042 
L 348.701582 505.970995 
L 348.893382 507.084371 
L 348.940546 507.049891 
L 349.016009 506.954485 
L 349.115053 506.398031 
L 349.380744 504.956021 
L 349.399609 504.965677 
L 349.519091 504.989719 
L 349.541101 504.915732 
L 349.855528 504.134392 
L 350.042612 503.752063 
L 350.074055 503.806031 
L 350.096064 503.834595 
L 350.182532 503.778446 
L 350.239129 503.88111 
L 350.281576 504.002866 
L 350.347606 503.857633 
L 350.495386 503.204207 
L 350.850688 501.277568 
L 350.885275 501.254311 
L 350.938728 501.345559 
L 351.028339 501.472013 
L 351.077076 501.350816 
L 351.243722 500.579834 
L 351.336478 500.160705 
L 351.397791 500.216201 
L 351.454388 500.340745 
L 352.037649 502.792223 
L 352.155559 502.887903 
L 352.455837 504.403768 
L 352.875596 507.290522 
L 352.886601 507.28733 
L 352.943198 507.163821 
L 353.053247 506.734623 
L 353.122421 506.759072 
L 353.142859 506.775656 
L 353.196311 506.675541 
L 353.309505 506.31612 
L 353.539036 503.280414 
L 353.839314 501.005466 
L 354.306238 499.05612 
L 354.347113 499.226028 
L 354.507471 501.108226 
L 355.260523 511.451285 
L 355.820202 518.449875 
L 356.189653 520.387572 
L 356.205375 520.366872 
L 356.400319 519.638687 
L 356.62199 517.277399 
L 357.296435 506.659268 
L 358.783673 483.843815 
L 358.785246 483.844531 
L 358.95032 484.329399 
L 360.431269 500.418929 
L 360.552323 500.629665 
L 360.607348 500.523837 
L 360.807009 500.191304 
L 360.946929 499.486959 
L 361.165455 498.632569 
L 361.632379 496.066486 
L 361.951522 490.981591 
L 362.269093 487.115917 
L 362.387003 486.549355 
L 362.427879 486.613776 
L 362.550505 487.253222 
L 363.067737 493.095342 
L 363.470203 498.118847 
L 365.014038 509.159168 
L 365.031331 509.154445 
L 365.098933 508.848817 
L 365.298594 508.133314 
L 365.381917 507.9241 
L 365.9809 504.807419 
L 366.347207 503.036771 
L 366.40066 503.1239 
L 366.47455 503.307532 
L 366.834568 505.371703 
L 367.241751 509.014676 
L 367.353372 508.759035 
L 367.666227 507.248372 
L 367.806147 505.506541 
L 368.298225 499.051583 
L 369.433305 484.202276 
L 369.532349 483.689925 
L 369.65812 483.10079 
L 369.698995 483.187738 
L 369.977263 484.074147 
L 370.000845 484.056862 
L 370.140765 483.94974 
L 370.192645 484.07294 
L 370.436326 484.955295 
L 370.552664 484.797582 
L 370.665857 484.028251 
L 370.945697 482.265819 
L 371.280562 481.097157 
L 373.176554 461.953642 
L 373.181271 461.955804 
L 373.286604 462.165858 
L 373.404514 462.734614 
L 374.266043 474.780903 
L 375.308367 493.978262 
L 375.707689 498.856688 
L 375.995389 499.90837 
L 376.014255 499.891342 
L 376.158891 499.794926 
L 376.16518 499.800302 
L 376.242214 499.849978 
L 376.276801 499.755118 
L 376.471746 499.317343 
L 376.979545 495.90268 
L 377.267245 490.988582 
L 377.520359 488.37101 
L 377.731025 487.678684 
L 377.753035 487.689889 
L 377.812776 487.848972 
L 377.996715 489.025784 
L 378.867677 497.418427 
L 379.976031 510.467517 
L 380.048349 510.502321 
L 380.093941 510.437615 
L 380.427233 508.77325 
L 380.597024 508.111241 
L 380.617462 508.125156 
L 380.655193 508.145538 
L 380.699213 508.043109 
L 380.809262 507.628369 
L 380.906734 506.52135 
L 381.274613 503.472505 
L 381.596901 501.832535 
L 381.626771 501.882551 
L 381.755686 502.198788 
L 382.398689 506.869861 
L 382.766568 510.007151 
L 382.985094 510.437951 
L 383.220914 511.270772 
L 383.569928 513.21832 
L 383.584077 513.211507 
L 383.650107 513.103412 
L 384.313547 509.643815 
L 384.627974 507.240717 
L 385.536667 502.468377 
L 385.563393 502.519062 
L 385.711174 503.046364 
L 386.288147 506.021635 
L 387.011328 512.117648 
L 387.338332 513.326609 
L 387.438948 513.219138 
L 387.539565 513.121509 
L 387.594589 513.168693 
L 387.673196 513.246457 
L 387.728221 513.140321 
L 387.792678 512.859062 
L 387.976618 511.50753 
L 388.339781 508.734371 
L 388.674645 506.357782 
L 388.96549 504.607885 
L 389.171439 503.696574 
L 389.676094 500.41019 
L 389.98266 499.333833 
L 390.065983 498.860949 
L 390.448012 495.061772 
L 391.410157 484.515693 
L 391.457321 484.469533 
L 391.510774 484.561041 
L 391.656982 484.890634 
L 391.916384 485.28008 
L 391.925817 485.27275 
L 391.990274 485.444572 
L 392.240244 486.258163 
L 392.273258 486.202593 
L 392.424183 486.093265 
L 392.432044 486.096434 
L 392.496501 486.222979 
L 392.73861 487.586862 
L 393.631582 495.446099 
L 393.729054 495.338025 
L 393.950725 495.059474 
L 394.145669 494.918518 
L 394.235281 494.701698 
L 394.364196 493.911181 
L 395.353068 485.984671 
L 395.941046 479.957578 
L 396.18787 479.067852 
L 396.379671 478.310539 
L 396.730256 476.414007 
L 397.01324 475.858053 
L 397.025818 475.868598 
L 397.162593 476.201535 
L 397.332384 476.428153 
L 397.590213 476.868427 
L 397.761576 477.543371 
L 397.975386 478.20139 
L 398.267803 478.735935 
L 398.272519 478.733021 
L 398.316539 478.682924 
L 398.362131 478.794954 
L 398.579085 479.201435 
L 398.885651 480.011107 
L 399.12776 480.818572 
L 399.132476 480.813206 
L 399.206367 480.642346 
L 399.522365 478.738644 
L 399.937409 475.110834 
L 400.133925 474.786027 
L 400.21882 474.494043 
L 400.665306 472.69873 
L 400.729764 472.41364 
L 401.094499 470.756244 
L 401.22813 470.103203 
L 401.572427 468.81017 
L 401.996903 467.585161 
L 402.100664 467.605422 
L 402.108525 467.626294 
L 402.894591 470.171943 
L 402.915029 470.157912 
L 403.039228 470.209526 
L 403.043944 470.221381 
L 403.345794 471.119101 
L 403.436977 470.975555 
L 403.444838 470.967985 
L 403.504579 471.076372 
L 403.63035 472.008321 
L 404.0281 474.372634 
L 404.14601 475.020907 
L 404.460436 477.308765 
L 404.510744 477.192172 
L 404.801589 476.503347 
L 404.842465 476.499916 
L 404.872335 476.586472 
L 405.318821 477.652574 
L 405.378562 477.732257 
L 405.381706 477.743226 
L 405.729148 478.718121 
L 405.738581 478.703492 
L 405.898938 478.484176 
L 405.942958 478.537352 
L 406.095455 479.06492 
L 406.376867 480.96365 
L 406.868945 485.120587 
L 407.153501 486.621075 
L 407.183371 486.629902 
L 407.221102 486.54482 
L 407.227391 486.539919 
L 407.326435 486.546922 
L 407.345301 486.561195 
L 407.486793 486.744236 
L 407.670733 487.112337 
L 407.706892 487.074061 
L 407.812225 486.771849 
L 408.25085 484.614132 
L 408.989752 481.012669 
L 409.228717 479.978983 
L 409.235005 479.982748 
L 409.343482 480.38887 
L 409.546288 481.714235 
L 409.948754 486.285625 
L 410.569746 492.916746 
L 410.925049 494.897096 
L 410.942342 494.87506 
L 411.055536 494.428761 
L 411.25048 493.933474 
L 411.292928 493.993796 
L 411.619932 494.555759 
L 411.673384 494.513772 
L 412.017681 494.568798 
L 412.209482 494.28884 
L 412.456307 493.485719 
L 412.464167 493.490521 
L 412.604087 493.527158 
L 412.710992 493.625624 
L 412.926374 493.886249 
L 413.121319 493.861454 
L 413.250234 493.847412 
L 413.267527 493.886844 
L 413.449895 494.711113 
L 414.174648 500.511719 
L 414.397891 501.277661 
L 415.094346 505.638874 
L 415.138366 505.577123 
L 415.448076 504.218159 
L 415.669747 502.126349 
L 416.029766 499.834801 
L 416.748231 496.426977 
L 416.752947 496.428875 
L 416.995056 496.438512 
L 417.136548 496.692209 
L 417.384945 497.284042 
L 417.408527 497.278599 
L 417.443114 497.18785 
L 417.564168 497.175014 
L 417.763829 497.291578 
L 417.950913 498.01409 
L 418.383249 499.299954 
L 418.41312 499.34956 
L 418.476005 499.230925 
L 418.57505 498.938103 
L 418.637935 499.071869 
L 418.710253 499.239105 
L 418.84074 499.434255 
L 418.90677 499.347837 
L 419.133157 499.157332 
L 419.285654 499.01405 
L 419.370549 498.628644 
L 419.873632 493.512907 
L 420.511918 485.964243 
L 420.856215 484.068349 
L 420.930105 484.019137 
L 420.981986 484.086292 
L 421.096752 484.268702 
L 421.172214 484.115696 
L 421.329427 483.87226 
L 421.365586 483.907874 
L 421.464631 483.66246 
L 421.870241 482.228655 
L 422.159514 481.170849 
L 422.187812 481.155386 
L 422.256986 481.223724 
L 422.508527 481.240379 
L 422.51796 481.214508 
L 422.774218 480.646739 
L 422.789939 480.671111 
L 423.046197 481.088189 
L 423.05563 481.076568 
L 423.302455 480.63547 
L 423.583866 479.859652 
L 423.66719 479.948329 
L 424.046074 480.47304 
L 424.05079 480.470193 
L 424.261456 480.448449 
L 424.2646 480.453379 
L 424.335346 480.510432 
L 424.379366 480.439973 
L 425.071105 478.857683 
L 425.107264 478.906444 
L 425.204736 478.968478 
L 425.242467 478.915114 
L 425.505013 478.120151 
L 426.221906 474.79662 
L 426.432572 474.662264 
L 426.853904 473.207341 
L 427.100729 472.378956 
L 428.012566 468.37702 
L 428.099034 468.275915 
L 428.22166 468.023401 
L 428.28769 468.085752 
L 428.400883 468.403922 
L 428.713738 469.907351 
L 429.144502 472.023083 
L 429.397616 472.394417 
L 429.542252 472.741755 
L 429.568978 472.768783 
L 429.635008 472.673642 
L 429.682172 472.686712 
L 429.71047 472.751733 
L 429.870828 473.053204 
L 429.913275 473.023402 
L 430.400637 472.041893 
L 430.606586 471.934248 
L 430.715063 471.801491 
L 430.776377 471.844405 
L 430.804675 471.861025 
L 430.842406 471.751506 
L 430.928874 471.477762 
L 430.987043 471.580111 
L 431.482265 472.745959 
L 432.372092 478.444455 
L 433.280785 487.953188 
L 433.798017 489.672348 
L 433.832604 489.632429 
L 434.180045 488.542261 
L 434.590372 486.336261 
L 434.873356 484.300562 
L 435.648418 478.933689 
L 435.689293 479.012387 
L 436.321291 481.782745 
L 436.673449 486.026024 
L 437.039756 489.801743 
L 437.297586 490.24722 
L 437.308591 490.237655 
L 437.685903 489.944269 
L 437.814818 490.086843 
L 437.967315 490.354327 
L 437.990897 490.316368 
L 438.033344 490.289858 
L 438.09623 490.35473 
L 438.193702 490.210049 
L 438.600884 488.180965 
L 438.9216 486.770386 
L 439.622771 485.261441 
L 439.655786 485.296461 
L 439.745398 485.392257 
L 439.790989 485.314348 
L 439.822432 485.284053 
L 439.875885 485.381422 
L 440.116421 485.991608 
L 440.160441 485.905927 
L 440.529892 484.863201 
L 440.820737 483.923656 
L 441.099004 482.850614 
L 441.103721 482.853228 
L 441.198049 483.054432 
L 441.23578 483.120956 
L 441.325392 483.083511 
L 441.64139 483.05247 
L 442.284393 484.390088 
L 442.462044 484.686822 
L 442.496631 484.641511 
L 442.617685 484.107949 
L 442.954122 482.981935 
L 443.260688 483.134421 
L 443.47607 484.140134 
L 444.004307 487.220469 
L 444.136366 487.185351 
L 444.144227 487.168502 
L 444.551409 485.89127 
L 444.766791 485.270403 
L 444.939726 484.989035 
L 444.994751 485.02597 
L 445.032482 485.016867 
L 445.087507 484.964266 
L 445.386212 485.052537 
L 445.633037 485.536827 
L 445.730509 485.424418 
L 446.373512 483.666568 
L 446.617192 482.855075 
L 447.024375 482.027426 
L 447.054246 482.068247 
L 447.854461 483.863608 
L 447.885904 483.831309 
L 447.970799 483.752373 
L 448.027396 483.79208 
L 448.107575 483.704737 
L 448.223913 483.160879 
L 448.736428 480.63076 
L 448.827612 480.550586 
L 448.865343 480.601836 
L 449.093303 480.771875 
L 449.308685 480.790443 
L 449.387291 480.646524 
L 449.652982 480.010169 
L 449.712723 480.085532 
L 449.744166 480.106434 
L 449.789758 480.005083 
L 449.972125 479.816558 
L 450.102612 479.877935 
L 450.470491 480.964933 
L 450.755047 481.499325 
L 450.841515 481.674773 
L 451.962446 486.66571 
L 452.020615 486.580148 
L 452.185689 486.018457 
L 452.526842 484.466675 
L 453.067656 481.687569 
L 453.103815 481.694987 
L 453.275177 481.44078 
L 453.701225 480.071644 
L 454.245184 477.4696 
L 454.509302 477.374532 
L 454.525023 477.412548 
L 454.72154 478.32092 
L 455.081559 480.254787 
L 455.84876 482.957509 
L 456.034271 482.832606 
L 456.072003 482.847108 
L 456.101873 482.918868 
L 456.262231 483.148807 
L 456.279524 483.139304 
L 456.419444 482.870186 
L 456.906805 481.786225 
L 457.015283 481.302149 
L 458.225825 473.684894 
L 458.400332 473.470376 
L 458.722619 473.001065 
L 458.799654 473.122222 
L 459.340468 473.72274 
L 459.389204 473.820842 
L 459.491393 473.953663 
L 459.530696 473.904919 
L 459.590437 473.815503 
L 459.653322 473.8989 
L 459.878137 474.247432 
L 460.389081 475.831091 
L 460.810412 477.0277 
L 461.099685 477.611008 
L 461.102829 477.609553 
L 461.34651 477.537619 
L 461.470709 477.424605 
L 461.616917 477.363375 
L 462.104278 477.734061 
L 462.354247 478.059486 
L 462.38569 478.034251 
L 462.882484 477.71475 
L 463.067996 477.672215 
L 463.457885 477.208712 
L 463.651257 476.96929 
L 463.659118 476.975626 
L 463.783317 477.319193 
L 463.982978 478.578076 
L 464.50807 481.662219 
L 464.624408 481.674304 
L 464.633841 481.662273 
L 464.930974 481.313698 
L 464.967133 481.352969 
L 465.125919 481.418131 
L 465.143212 481.394886 
L 465.677737 480.794614 
L 465.993736 480.499706 
L 466.091208 480.395304 
L 466.125795 480.453781 
L 466.485814 480.991179 
L 466.514112 480.955177 
L 466.825395 480.726121 
L 467.127244 480.988842 
L 467.311184 481.196737 
L 467.484119 481.567332 
L 468.392812 483.792163 
L 468.669507 484.375535 
L 468.822004 484.432891 
L 469.034242 484.248163 
L 469.251197 484.083015 
L 469.40841 483.916129 
L 469.562479 483.638006 
L 469.619076 483.741707 
L 469.795155 483.823273 
L 469.927214 483.733664 
L 470.057701 483.42531 
L 470.122158 483.524023 
L 470.185044 483.591493 
L 470.246357 483.528492 
L 470.390993 483.546933 
L 470.666117 483.419756 
L 470.868922 483.24095 
L 471.142473 482.762351 
L 471.540223 481.878486 
L 471.72259 481.685513 
L 471.761894 481.725254 
L 471.966271 481.816975 
L 472.129773 481.922967 
L 472.507085 482.963711 
L 472.61399 482.832673 
L 472.782208 482.739833 
L 473.481807 482.138549 
L 473.484952 482.142139 
L 474.02891 482.808249 
L 474.091795 482.750941 
L 474.393645 482.415495 
L 475.211154 480.776007 
L 475.387233 480.53667 
L 475.585322 480.374377 
L 475.602615 480.38769 
L 475.910753 480.748372 
L 476.137141 481.348921 
L 476.668522 482.343857 
L 476.923207 482.601453 
L 476.97666 482.547354 
L 477.122868 482.525528 
L 477.40428 482.558189 
L 477.575643 482.865466 
L 477.715563 483.271294 
L 478.01584 483.960881 
L 478.243799 484.142247 
L 478.408873 484.001103 
L 478.86322 483.220479 
L 479.051876 483.222818 
L 479.19494 483.354787 
L 479.367875 483.597629 
L 479.639854 484.126825 
L 479.984151 484.872917 
L 480.072191 484.714251 
L 481.015471 483.012754 
L 481.388066 483.252869 
L 481.944601 483.967526 
L 482.015347 483.889176 
L 482.417813 483.345073 
L 482.51843 483.231656 
L 482.559305 483.31131 
L 482.881593 484.343261 
L 483.359521 486.262632 
L 483.456994 486.167982 
L 483.560754 486.260177 
L 483.79343 486.492763 
L 483.851599 486.416041 
L 484.483597 485.246643 
L 484.66282 485.024626 
L 484.931655 485.144016 
L 485.227216 485.211393 
L 485.349842 485.082697 
L 485.620249 484.286439 
L 486.467629 482.093348 
L 486.788344 482.171509 
L 487.248979 483.107948 
L 487.464362 483.198914 
L 487.649873 483.310085 
L 487.659306 483.302144 
L 487.997315 483.076837 
L 488.013036 483.097756 
L 488.388776 483.501018 
L 488.593153 483.832106 
L 488.98147 484.411202 
L 489.321051 484.155978 
L 489.775398 483.293858 
L 490.050521 483.146021 
L 490.058382 483.156376 
L 491.130577 484.549702 
L 491.35382 484.560245 
L 491.454436 484.452247 
L 491.806594 483.997527 
L 491.816027 484.003235 
L 491.966952 484.237187 
L 492.624103 485.254028 
L 493.03443 485.000767 
L 493.41017 484.767512 
L 493.729313 484.751508 
L 493.902248 484.69123 
L 493.924258 484.730941 
L 494.210386 485.066466 
L 494.463499 485.096818 
L 494.726046 485.157257 
L 495.281009 485.222199 
L 495.50268 485.485893 
L 495.909862 486.056679 
L 496.348487 486.35293 
L 496.996206 485.968909 
L 497.27133 485.946492 
L 497.527587 485.870347 
L 497.793278 485.851233 
L 498.128142 485.852403 
L 498.161157 485.846537 
L 498.161157 485.846537 
" style="fill:none;stroke:#0000ff;stroke-linecap:square;stroke-width:1.5;"/>
   </g>
   <g id="patch_3">
    <path d="M 135 576.72 
L 135 77.76 
" style="fill:none;stroke:#ffffff;stroke-linecap:square;stroke-linejoin:miter;stroke-width:0.8;"/>
   </g>
   <g id="patch_4">
    <path d="M 515.454545 576.72 
L 515.454545 77.76 
" style="fill:none;stroke:#ffffff;stroke-linecap:square;stroke-linejoin:miter;stroke-width:0.8;"/>
   </g>
   <g id="patch_5">
    <path d="M 135 576.72 
L 515.454545 576.72 
" style="fill:none;stroke:#ffffff;stroke-linecap:square;stroke-linejoin:miter;stroke-width:0.8;"/>
   </g>
   <g id="patch_6">
    <path d="M 135 77.76 
L 515.454545 77.76 
" style="fill:none;stroke:#ffffff;stroke-linecap:square;stroke-linejoin:miter;stroke-width:0.8;"/>
   </g>
  </g>
  <g id="axes_2">
   <g id="patch_7">
    <path d="M 591.545455 576.72 
L 972 576.72 
L 972 77.76 
L 591.545455 77.76 
z
"/>
   </g>
   <g id="matplotlib.axis_3">
    <g id="xtick_6">
     <g id="line2d_14">
      <g>
       <use style="fill:#ffffff;stroke:#ffffff;stroke-width:0.8;" x="608.838843" xlink:href="#m9c54b20327" y="576.72"/>
      </g>
     </g>
     <g id="text_15">
      <!-- 0 -->
      <g style="fill:#ffffff;" transform="translate(604.703218 593.597969)scale(0.13 -0.13)">
       <use xlink:href="#DejaVuSans-30"/>
      </g>
     </g>
    </g>
    <g id="xtick_7">
     <g id="line2d_15">
      <g>
       <use style="fill:#ffffff;stroke:#ffffff;stroke-width:0.8;" x="652.093942" xlink:href="#m9c54b20327" y="576.72"/>
      </g>
     </g>
     <g id="text_16">
      <!-- 250 -->
      <g style="fill:#ffffff;" transform="translate(639.687067 593.597969)scale(0.13 -0.13)">
       <use xlink:href="#DejaVuSans-32"/>
       <use x="63.623047" xlink:href="#DejaVuSans-35"/>
       <use x="127.246094" xlink:href="#DejaVuSans-30"/>
      </g>
     </g>
    </g>
    <g id="xtick_8">
     <g id="line2d_16">
      <g>
       <use style="fill:#ffffff;stroke:#ffffff;stroke-width:0.8;" x="695.34904" xlink:href="#m9c54b20327" y="576.72"/>
      </g>
     </g>
     <g id="text_17">
      <!-- 500 -->
      <g style="fill:#ffffff;" transform="translate(682.942165 593.597969)scale(0.13 -0.13)">
       <use xlink:href="#DejaVuSans-35"/>
       <use x="63.623047" xlink:href="#DejaVuSans-30"/>
       <use x="127.246094" xlink:href="#DejaVuSans-30"/>
      </g>
     </g>
    </g>
    <g id="xtick_9">
     <g id="line2d_17">
      <g>
       <use style="fill:#ffffff;stroke:#ffffff;stroke-width:0.8;" x="738.604139" xlink:href="#m9c54b20327" y="576.72"/>
      </g>
     </g>
     <g id="text_18">
      <!-- 750 -->
      <defs>
       <path d="M 8.203125 72.90625 
L 55.078125 72.90625 
L 55.078125 68.703125 
L 28.609375 0 
L 18.3125 0 
L 43.21875 64.59375 
L 8.203125 64.59375 
z
" id="DejaVuSans-37"/>
      </defs>
      <g style="fill:#ffffff;" transform="translate(726.197264 593.597969)scale(0.13 -0.13)">
       <use xlink:href="#DejaVuSans-37"/>
       <use x="63.623047" xlink:href="#DejaVuSans-35"/>
       <use x="127.246094" xlink:href="#DejaVuSans-30"/>
      </g>
     </g>
    </g>
    <g id="xtick_10">
     <g id="line2d_18">
      <g>
       <use style="fill:#ffffff;stroke:#ffffff;stroke-width:0.8;" x="781.859237" xlink:href="#m9c54b20327" y="576.72"/>
      </g>
     </g>
     <g id="text_19">
      <!-- 1000 -->
      <g style="fill:#ffffff;" transform="translate(765.316737 593.597969)scale(0.13 -0.13)">
       <use xlink:href="#DejaVuSans-31"/>
       <use x="63.623047" xlink:href="#DejaVuSans-30"/>
       <use x="127.246094" xlink:href="#DejaVuSans-30"/>
       <use x="190.869141" xlink:href="#DejaVuSans-30"/>
      </g>
     </g>
    </g>
    <g id="xtick_11">
     <g id="line2d_19">
      <g>
       <use style="fill:#ffffff;stroke:#ffffff;stroke-width:0.8;" x="825.114336" xlink:href="#m9c54b20327" y="576.72"/>
      </g>
     </g>
     <g id="text_20">
      <!-- 1250 -->
      <g style="fill:#ffffff;" transform="translate(808.571836 593.597969)scale(0.13 -0.13)">
       <use xlink:href="#DejaVuSans-31"/>
       <use x="63.623047" xlink:href="#DejaVuSans-32"/>
       <use x="127.246094" xlink:href="#DejaVuSans-35"/>
       <use x="190.869141" xlink:href="#DejaVuSans-30"/>
      </g>
     </g>
    </g>
    <g id="xtick_12">
     <g id="line2d_20">
      <g>
       <use style="fill:#ffffff;stroke:#ffffff;stroke-width:0.8;" x="868.369435" xlink:href="#m9c54b20327" y="576.72"/>
      </g>
     </g>
     <g id="text_21">
      <!-- 1500 -->
      <g style="fill:#ffffff;" transform="translate(851.826935 593.597969)scale(0.13 -0.13)">
       <use xlink:href="#DejaVuSans-31"/>
       <use x="63.623047" xlink:href="#DejaVuSans-35"/>
       <use x="127.246094" xlink:href="#DejaVuSans-30"/>
       <use x="190.869141" xlink:href="#DejaVuSans-30"/>
      </g>
     </g>
    </g>
    <g id="xtick_13">
     <g id="line2d_21">
      <g>
       <use style="fill:#ffffff;stroke:#ffffff;stroke-width:0.8;" x="911.624533" xlink:href="#m9c54b20327" y="576.72"/>
      </g>
     </g>
     <g id="text_22">
      <!-- 1750 -->
      <g style="fill:#ffffff;" transform="translate(895.082033 593.597969)scale(0.13 -0.13)">
       <use xlink:href="#DejaVuSans-31"/>
       <use x="63.623047" xlink:href="#DejaVuSans-37"/>
       <use x="127.246094" xlink:href="#DejaVuSans-35"/>
       <use x="190.869141" xlink:href="#DejaVuSans-30"/>
      </g>
     </g>
    </g>
    <g id="xtick_14">
     <g id="line2d_22">
      <g>
       <use style="fill:#ffffff;stroke:#ffffff;stroke-width:0.8;" x="954.879632" xlink:href="#m9c54b20327" y="576.72"/>
      </g>
     </g>
     <g id="text_23">
      <!-- 2000 -->
      <g style="fill:#ffffff;" transform="translate(938.337132 593.597969)scale(0.13 -0.13)">
       <use xlink:href="#DejaVuSans-32"/>
       <use x="63.623047" xlink:href="#DejaVuSans-30"/>
       <use x="127.246094" xlink:href="#DejaVuSans-30"/>
       <use x="190.869141" xlink:href="#DejaVuSans-30"/>
      </g>
     </g>
    </g>
    <g id="text_24">
     <!-- Time -->
     <g style="fill:#ffffff;" transform="translate(765.668977 610.179531)scale(0.13 -0.13)">
      <use xlink:href="#DejaVuSans-54"/>
      <use x="61.037109" xlink:href="#DejaVuSans-69"/>
      <use x="88.820312" xlink:href="#DejaVuSans-6d"/>
      <use x="186.232422" xlink:href="#DejaVuSans-65"/>
     </g>
    </g>
   </g>
   <g id="matplotlib.axis_4">
    <g id="ytick_8">
     <g id="line2d_23">
      <g>
       <use style="fill:#ffffff;stroke:#ffffff;stroke-width:0.8;" x="591.545455" xlink:href="#m3173b50a25" y="570.31575"/>
      </g>
     </g>
     <g id="text_25">
      <!-- 0.3 -->
      <defs>
       <path d="M 40.578125 39.3125 
Q 47.65625 37.796875 51.625 33 
Q 55.609375 28.21875 55.609375 21.1875 
Q 55.609375 10.40625 48.1875 4.484375 
Q 40.765625 -1.421875 27.09375 -1.421875 
Q 22.515625 -1.421875 17.65625 -0.515625 
Q 12.796875 0.390625 7.625 2.203125 
L 7.625 11.71875 
Q 11.71875 9.328125 16.59375 8.109375 
Q 21.484375 6.890625 26.8125 6.890625 
Q 36.078125 6.890625 40.9375 10.546875 
Q 45.796875 14.203125 45.796875 21.1875 
Q 45.796875 27.640625 41.28125 31.265625 
Q 36.765625 34.90625 28.71875 34.90625 
L 20.21875 34.90625 
L 20.21875 43.015625 
L 29.109375 43.015625 
Q 36.375 43.015625 40.234375 45.921875 
Q 44.09375 48.828125 44.09375 54.296875 
Q 44.09375 59.90625 40.109375 62.90625 
Q 36.140625 65.921875 28.71875 65.921875 
Q 24.65625 65.921875 20.015625 65.03125 
Q 15.375 64.15625 9.8125 62.3125 
L 9.8125 71.09375 
Q 15.4375 72.65625 20.34375 73.4375 
Q 25.25 74.21875 29.59375 74.21875 
Q 40.828125 74.21875 47.359375 69.109375 
Q 53.90625 64.015625 53.90625 55.328125 
Q 53.90625 49.265625 50.4375 45.09375 
Q 46.96875 40.921875 40.578125 39.3125 
z
" id="DejaVuSans-33"/>
      </defs>
      <g style="fill:#ffffff;" transform="translate(563.871392 575.254735)scale(0.13 -0.13)">
       <use xlink:href="#DejaVuSans-30"/>
       <use x="63.623047" xlink:href="#DejaVuSans-2e"/>
       <use x="95.410156" xlink:href="#DejaVuSans-33"/>
      </g>
     </g>
    </g>
    <g id="ytick_9">
     <g id="line2d_24">
      <g>
       <use style="fill:#ffffff;stroke:#ffffff;stroke-width:0.8;" x="591.545455" xlink:href="#m3173b50a25" y="503.190643"/>
      </g>
     </g>
     <g id="text_26">
      <!-- 0.4 -->
      <g style="fill:#ffffff;" transform="translate(563.871392 508.129628)scale(0.13 -0.13)">
       <use xlink:href="#DejaVuSans-30"/>
       <use x="63.623047" xlink:href="#DejaVuSans-2e"/>
       <use x="95.410156" xlink:href="#DejaVuSans-34"/>
      </g>
     </g>
    </g>
    <g id="ytick_10">
     <g id="line2d_25">
      <g>
       <use style="fill:#ffffff;stroke:#ffffff;stroke-width:0.8;" x="591.545455" xlink:href="#m3173b50a25" y="436.065536"/>
      </g>
     </g>
     <g id="text_27">
      <!-- 0.5 -->
      <g style="fill:#ffffff;" transform="translate(563.871392 441.00452)scale(0.13 -0.13)">
       <use xlink:href="#DejaVuSans-30"/>
       <use x="63.623047" xlink:href="#DejaVuSans-2e"/>
       <use x="95.410156" xlink:href="#DejaVuSans-35"/>
      </g>
     </g>
    </g>
    <g id="ytick_11">
     <g id="line2d_26">
      <g>
       <use style="fill:#ffffff;stroke:#ffffff;stroke-width:0.8;" x="591.545455" xlink:href="#m3173b50a25" y="368.940429"/>
      </g>
     </g>
     <g id="text_28">
      <!-- 0.6 -->
      <g style="fill:#ffffff;" transform="translate(563.871392 373.879413)scale(0.13 -0.13)">
       <use xlink:href="#DejaVuSans-30"/>
       <use x="63.623047" xlink:href="#DejaVuSans-2e"/>
       <use x="95.410156" xlink:href="#DejaVuSans-36"/>
      </g>
     </g>
    </g>
    <g id="ytick_12">
     <g id="line2d_27">
      <g>
       <use style="fill:#ffffff;stroke:#ffffff;stroke-width:0.8;" x="591.545455" xlink:href="#m3173b50a25" y="301.815322"/>
      </g>
     </g>
     <g id="text_29">
      <!-- 0.7 -->
      <g style="fill:#ffffff;" transform="translate(563.871392 306.754306)scale(0.13 -0.13)">
       <use xlink:href="#DejaVuSans-30"/>
       <use x="63.623047" xlink:href="#DejaVuSans-2e"/>
       <use x="95.410156" xlink:href="#DejaVuSans-37"/>
      </g>
     </g>
    </g>
    <g id="ytick_13">
     <g id="line2d_28">
      <g>
       <use style="fill:#ffffff;stroke:#ffffff;stroke-width:0.8;" x="591.545455" xlink:href="#m3173b50a25" y="234.690214"/>
      </g>
     </g>
     <g id="text_30">
      <!-- 0.8 -->
      <g style="fill:#ffffff;" transform="translate(563.871392 239.629199)scale(0.13 -0.13)">
       <use xlink:href="#DejaVuSans-30"/>
       <use x="63.623047" xlink:href="#DejaVuSans-2e"/>
       <use x="95.410156" xlink:href="#DejaVuSans-38"/>
      </g>
     </g>
    </g>
    <g id="ytick_14">
     <g id="line2d_29">
      <g>
       <use style="fill:#ffffff;stroke:#ffffff;stroke-width:0.8;" x="591.545455" xlink:href="#m3173b50a25" y="167.565107"/>
      </g>
     </g>
     <g id="text_31">
      <!-- 0.9 -->
      <defs>
       <path d="M 10.984375 1.515625 
L 10.984375 10.5 
Q 14.703125 8.734375 18.5 7.8125 
Q 22.3125 6.890625 25.984375 6.890625 
Q 35.75 6.890625 40.890625 13.453125 
Q 46.046875 20.015625 46.78125 33.40625 
Q 43.953125 29.203125 39.59375 26.953125 
Q 35.25 24.703125 29.984375 24.703125 
Q 19.046875 24.703125 12.671875 31.3125 
Q 6.296875 37.9375 6.296875 49.421875 
Q 6.296875 60.640625 12.9375 67.421875 
Q 19.578125 74.21875 30.609375 74.21875 
Q 43.265625 74.21875 49.921875 64.515625 
Q 56.59375 54.828125 56.59375 36.375 
Q 56.59375 19.140625 48.40625 8.859375 
Q 40.234375 -1.421875 26.421875 -1.421875 
Q 22.703125 -1.421875 18.890625 -0.6875 
Q 15.09375 0.046875 10.984375 1.515625 
z
M 30.609375 32.421875 
Q 37.25 32.421875 41.125 36.953125 
Q 45.015625 41.5 45.015625 49.421875 
Q 45.015625 57.28125 41.125 61.84375 
Q 37.25 66.40625 30.609375 66.40625 
Q 23.96875 66.40625 20.09375 61.84375 
Q 16.21875 57.28125 16.21875 49.421875 
Q 16.21875 41.5 20.09375 36.953125 
Q 23.96875 32.421875 30.609375 32.421875 
z
" id="DejaVuSans-39"/>
      </defs>
      <g style="fill:#ffffff;" transform="translate(563.871392 172.504092)scale(0.13 -0.13)">
       <use xlink:href="#DejaVuSans-30"/>
       <use x="63.623047" xlink:href="#DejaVuSans-2e"/>
       <use x="95.410156" xlink:href="#DejaVuSans-39"/>
      </g>
     </g>
    </g>
    <g id="ytick_15">
     <g id="line2d_30">
      <g>
       <use style="fill:#ffffff;stroke:#ffffff;stroke-width:0.8;" x="591.545455" xlink:href="#m3173b50a25" y="100.44"/>
      </g>
     </g>
     <g id="text_32">
      <!-- 1.0 -->
      <g style="fill:#ffffff;" transform="translate(563.871392 105.378984)scale(0.13 -0.13)">
       <use xlink:href="#DejaVuSans-31"/>
       <use x="63.623047" xlink:href="#DejaVuSans-2e"/>
       <use x="95.410156" xlink:href="#DejaVuSans-30"/>
      </g>
     </g>
    </g>
    <g id="text_33">
     <!-- Autocorrelation -->
     <g style="fill:#ffffff;" transform="translate(557.167798 377.462656)rotate(-90)scale(0.13 -0.13)">
      <use xlink:href="#DejaVuSans-41"/>
      <use x="68.408203" xlink:href="#DejaVuSans-75"/>
      <use x="131.787109" xlink:href="#DejaVuSans-74"/>
      <use x="170.996094" xlink:href="#DejaVuSans-6f"/>
      <use x="232.177734" xlink:href="#DejaVuSans-63"/>
      <use x="287.158203" xlink:href="#DejaVuSans-6f"/>
      <use x="348.339844" xlink:href="#DejaVuSans-72"/>
      <use x="389.4375" xlink:href="#DejaVuSans-72"/>
      <use x="430.519531" xlink:href="#DejaVuSans-65"/>
      <use x="492.042969" xlink:href="#DejaVuSans-6c"/>
      <use x="519.826172" xlink:href="#DejaVuSans-61"/>
      <use x="581.105469" xlink:href="#DejaVuSans-74"/>
      <use x="620.314453" xlink:href="#DejaVuSans-69"/>
      <use x="648.097656" xlink:href="#DejaVuSans-6f"/>
      <use x="709.279297" xlink:href="#DejaVuSans-6e"/>
     </g>
    </g>
   </g>
   <g id="line2d_31">
    <path clip-path="url(#p700a123088)" d="M 608.838843 100.44 
L 615.413618 117.80466 
L 626.140882 144.999711 
L 639.117412 177.740226 
L 642.058759 184.979708 
L 648.287493 199.647491 
L 652.786023 209.426698 
L 657.630594 219.324263 
L 670.780144 246.35538 
L 688.428224 282.739962 
L 693.618836 292.997155 
L 699.328509 303.949945 
L 716.457528 335.299577 
L 726.319691 352.552368 
L 731.856343 362.073631 
L 751.407648 394.905868 
L 754.175974 399.256375 
L 766.114382 417.124304 
L 777.879768 433.365539 
L 783.243401 440.074385 
L 790.683278 448.792794 
L 795.873889 454.617656 
L 800.891481 459.66197 
L 807.120215 465.673212 
L 814.906133 472.867189 
L 820.961847 478.167393 
L 823.903193 480.637364 
L 828.920785 484.597457 
L 833.938376 488.507147 
L 838.436906 492.052925 
L 852.797599 503.056001 
L 864.736006 511.352463 
L 873.387026 517.241986 
L 875.463271 518.710322 
L 878.058577 520.276616 
L 886.882617 525.170655 
L 891.554168 527.417272 
L 895.014575 528.849321 
L 897.436861 529.768304 
L 900.897269 531.085794 
L 907.472044 533.888167 
L 911.278493 535.378936 
L 914.7389 536.935422 
L 920.621594 539.783158 
L 929.099593 544.227074 
L 939.999878 549.399131 
L 942.768204 550.48857 
L 947.439755 552.08944 
L 950.554122 553.03186 
L 954.706612 554.04 
L 954.706612 554.04 
" style="fill:none;stroke:#0000ff;stroke-linecap:square;stroke-width:1.5;"/>
   </g>
   <g id="patch_8">
    <path d="M 591.545455 576.72 
L 591.545455 77.76 
" style="fill:none;stroke:#ffffff;stroke-linecap:square;stroke-linejoin:miter;stroke-width:0.8;"/>
   </g>
   <g id="patch_9">
    <path d="M 972 576.72 
L 972 77.76 
" style="fill:none;stroke:#ffffff;stroke-linecap:square;stroke-linejoin:miter;stroke-width:0.8;"/>
   </g>
   <g id="patch_10">
    <path d="M 591.545455 576.72 
L 972 576.72 
" style="fill:none;stroke:#ffffff;stroke-linecap:square;stroke-linejoin:miter;stroke-width:0.8;"/>
   </g>
   <g id="patch_11">
    <path d="M 591.545455 77.76 
L 972 77.76 
" style="fill:none;stroke:#ffffff;stroke-linecap:square;stroke-linejoin:miter;stroke-width:0.8;"/>
   </g>
  </g>
 </g>
 <defs>
  <clipPath id="pe35c49b43e">
   <rect height="498.96" width="380.454545" x="135" y="77.76"/>
  </clipPath>
  <clipPath id="p700a123088">
   <rect height="498.96" width="380.454545" x="591.545455" y="77.76"/>
  </clipPath>
 </defs>
</svg>
