<?xml version="1.0" encoding="utf-8" standalone="no"?>
<!DOCTYPE svg PUBLIC "-//W3C//DTD SVG 1.1//EN"
  "http://www.w3.org/Graphics/SVG/1.1/DTD/svg11.dtd">
<!-- Created with matplotlib (http://matplotlib.org/) -->
<svg height="648pt" version="1.1" viewBox="0 0 1080 648" width="1080pt" xmlns="http://www.w3.org/2000/svg" xmlns:xlink="http://www.w3.org/1999/xlink">
 <defs>
  <style type="text/css">
*{stroke-linecap:butt;stroke-linejoin:round;}
  </style>
 </defs>
 <g id="figure_1">
  <g id="patch_1">
   <path d="M 0 648 
L 1080 648 
L 1080 0 
L 0 0 
z
"/>
  </g>
  <g id="axes_1">
   <g id="patch_2">
    <path d="M 135 576.72 
L 515.454545 576.72 
L 515.454545 77.76 
L 135 77.76 
z
"/>
   </g>
   <g id="matplotlib.axis_1">
    <g id="xtick_1">
     <g id="line2d_1">
      <defs>
       <path d="M 0 0 
L 0 3.5 
" id="m4474cf66ac" style="stroke:#ffffff;stroke-width:0.8;"/>
      </defs>
      <g>
       <use style="fill:#ffffff;stroke:#ffffff;stroke-width:0.8;" x="152.293388" xlink:href="#m4474cf66ac" y="576.72"/>
      </g>
     </g>
     <g id="text_1">
      <!-- 0 -->
      <defs>
       <path d="M 31.78125 66.40625 
Q 24.171875 66.40625 20.328125 58.90625 
Q 16.5 51.421875 16.5 36.375 
Q 16.5 21.390625 20.328125 13.890625 
Q 24.171875 6.390625 31.78125 6.390625 
Q 39.453125 6.390625 43.28125 13.890625 
Q 47.125 21.390625 47.125 36.375 
Q 47.125 51.421875 43.28125 58.90625 
Q 39.453125 66.40625 31.78125 66.40625 
z
M 31.78125 74.21875 
Q 44.046875 74.21875 50.515625 64.515625 
Q 56.984375 54.828125 56.984375 36.375 
Q 56.984375 17.96875 50.515625 8.265625 
Q 44.046875 -1.421875 31.78125 -1.421875 
Q 19.53125 -1.421875 13.0625 8.265625 
Q 6.59375 17.96875 6.59375 36.375 
Q 6.59375 54.828125 13.0625 64.515625 
Q 19.53125 74.21875 31.78125 74.21875 
z
" id="DejaVuSans-30"/>
      </defs>
      <g style="fill:#ffffff;" transform="translate(148.157763 593.597969)scale(0.13 -0.13)">
       <use xlink:href="#DejaVuSans-30"/>
      </g>
     </g>
    </g>
    <g id="xtick_2">
     <g id="line2d_2">
      <g>
       <use style="fill:#ffffff;stroke:#ffffff;stroke-width:0.8;" x="221.536185" xlink:href="#m4474cf66ac" y="576.72"/>
      </g>
     </g>
     <g id="text_2">
      <!-- 200 -->
      <defs>
       <path d="M 19.1875 8.296875 
L 53.609375 8.296875 
L 53.609375 0 
L 7.328125 0 
L 7.328125 8.296875 
Q 12.9375 14.109375 22.625 23.890625 
Q 32.328125 33.6875 34.8125 36.53125 
Q 39.546875 41.84375 41.421875 45.53125 
Q 43.3125 49.21875 43.3125 52.78125 
Q 43.3125 58.59375 39.234375 62.25 
Q 35.15625 65.921875 28.609375 65.921875 
Q 23.96875 65.921875 18.8125 64.3125 
Q 13.671875 62.703125 7.8125 59.421875 
L 7.8125 69.390625 
Q 13.765625 71.78125 18.9375 73 
Q 24.125 74.21875 28.421875 74.21875 
Q 39.75 74.21875 46.484375 68.546875 
Q 53.21875 62.890625 53.21875 53.421875 
Q 53.21875 48.921875 51.53125 44.890625 
Q 49.859375 40.875 45.40625 35.40625 
Q 44.1875 33.984375 37.640625 27.21875 
Q 31.109375 20.453125 19.1875 8.296875 
z
" id="DejaVuSans-32"/>
      </defs>
      <g style="fill:#ffffff;" transform="translate(209.12931 593.597969)scale(0.13 -0.13)">
       <use xlink:href="#DejaVuSans-32"/>
       <use x="63.623047" xlink:href="#DejaVuSans-30"/>
       <use x="127.246094" xlink:href="#DejaVuSans-30"/>
      </g>
     </g>
    </g>
    <g id="xtick_3">
     <g id="line2d_3">
      <g>
       <use style="fill:#ffffff;stroke:#ffffff;stroke-width:0.8;" x="290.778981" xlink:href="#m4474cf66ac" y="576.72"/>
      </g>
     </g>
     <g id="text_3">
      <!-- 400 -->
      <defs>
       <path d="M 37.796875 64.3125 
L 12.890625 25.390625 
L 37.796875 25.390625 
z
M 35.203125 72.90625 
L 47.609375 72.90625 
L 47.609375 25.390625 
L 58.015625 25.390625 
L 58.015625 17.1875 
L 47.609375 17.1875 
L 47.609375 0 
L 37.796875 0 
L 37.796875 17.1875 
L 4.890625 17.1875 
L 4.890625 26.703125 
z
" id="DejaVuSans-34"/>
      </defs>
      <g style="fill:#ffffff;" transform="translate(278.372106 593.597969)scale(0.13 -0.13)">
       <use xlink:href="#DejaVuSans-34"/>
       <use x="63.623047" xlink:href="#DejaVuSans-30"/>
       <use x="127.246094" xlink:href="#DejaVuSans-30"/>
      </g>
     </g>
    </g>
    <g id="xtick_4">
     <g id="line2d_4">
      <g>
       <use style="fill:#ffffff;stroke:#ffffff;stroke-width:0.8;" x="360.021778" xlink:href="#m4474cf66ac" y="576.72"/>
      </g>
     </g>
     <g id="text_4">
      <!-- 600 -->
      <defs>
       <path d="M 33.015625 40.375 
Q 26.375 40.375 22.484375 35.828125 
Q 18.609375 31.296875 18.609375 23.390625 
Q 18.609375 15.53125 22.484375 10.953125 
Q 26.375 6.390625 33.015625 6.390625 
Q 39.65625 6.390625 43.53125 10.953125 
Q 47.40625 15.53125 47.40625 23.390625 
Q 47.40625 31.296875 43.53125 35.828125 
Q 39.65625 40.375 33.015625 40.375 
z
M 52.59375 71.296875 
L 52.59375 62.3125 
Q 48.875 64.0625 45.09375 64.984375 
Q 41.3125 65.921875 37.59375 65.921875 
Q 27.828125 65.921875 22.671875 59.328125 
Q 17.53125 52.734375 16.796875 39.40625 
Q 19.671875 43.65625 24.015625 45.921875 
Q 28.375 48.1875 33.59375 48.1875 
Q 44.578125 48.1875 50.953125 41.515625 
Q 57.328125 34.859375 57.328125 23.390625 
Q 57.328125 12.15625 50.6875 5.359375 
Q 44.046875 -1.421875 33.015625 -1.421875 
Q 20.359375 -1.421875 13.671875 8.265625 
Q 6.984375 17.96875 6.984375 36.375 
Q 6.984375 53.65625 15.1875 63.9375 
Q 23.390625 74.21875 37.203125 74.21875 
Q 40.921875 74.21875 44.703125 73.484375 
Q 48.484375 72.75 52.59375 71.296875 
z
" id="DejaVuSans-36"/>
      </defs>
      <g style="fill:#ffffff;" transform="translate(347.614903 593.597969)scale(0.13 -0.13)">
       <use xlink:href="#DejaVuSans-36"/>
       <use x="63.623047" xlink:href="#DejaVuSans-30"/>
       <use x="127.246094" xlink:href="#DejaVuSans-30"/>
      </g>
     </g>
    </g>
    <g id="xtick_5">
     <g id="line2d_5">
      <g>
       <use style="fill:#ffffff;stroke:#ffffff;stroke-width:0.8;" x="429.264574" xlink:href="#m4474cf66ac" y="576.72"/>
      </g>
     </g>
     <g id="text_5">
      <!-- 800 -->
      <defs>
       <path d="M 31.78125 34.625 
Q 24.75 34.625 20.71875 30.859375 
Q 16.703125 27.09375 16.703125 20.515625 
Q 16.703125 13.921875 20.71875 10.15625 
Q 24.75 6.390625 31.78125 6.390625 
Q 38.8125 6.390625 42.859375 10.171875 
Q 46.921875 13.96875 46.921875 20.515625 
Q 46.921875 27.09375 42.890625 30.859375 
Q 38.875 34.625 31.78125 34.625 
z
M 21.921875 38.8125 
Q 15.578125 40.375 12.03125 44.71875 
Q 8.5 49.078125 8.5 55.328125 
Q 8.5 64.0625 14.71875 69.140625 
Q 20.953125 74.21875 31.78125 74.21875 
Q 42.671875 74.21875 48.875 69.140625 
Q 55.078125 64.0625 55.078125 55.328125 
Q 55.078125 49.078125 51.53125 44.71875 
Q 48 40.375 41.703125 38.8125 
Q 48.828125 37.15625 52.796875 32.3125 
Q 56.78125 27.484375 56.78125 20.515625 
Q 56.78125 9.90625 50.3125 4.234375 
Q 43.84375 -1.421875 31.78125 -1.421875 
Q 19.734375 -1.421875 13.25 4.234375 
Q 6.78125 9.90625 6.78125 20.515625 
Q 6.78125 27.484375 10.78125 32.3125 
Q 14.796875 37.15625 21.921875 38.8125 
z
M 18.3125 54.390625 
Q 18.3125 48.734375 21.84375 45.5625 
Q 25.390625 42.390625 31.78125 42.390625 
Q 38.140625 42.390625 41.71875 45.5625 
Q 45.3125 48.734375 45.3125 54.390625 
Q 45.3125 60.0625 41.71875 63.234375 
Q 38.140625 66.40625 31.78125 66.40625 
Q 25.390625 66.40625 21.84375 63.234375 
Q 18.3125 60.0625 18.3125 54.390625 
z
" id="DejaVuSans-38"/>
      </defs>
      <g style="fill:#ffffff;" transform="translate(416.857699 593.597969)scale(0.13 -0.13)">
       <use xlink:href="#DejaVuSans-38"/>
       <use x="63.623047" xlink:href="#DejaVuSans-30"/>
       <use x="127.246094" xlink:href="#DejaVuSans-30"/>
      </g>
     </g>
    </g>
    <g id="xtick_6">
     <g id="line2d_6">
      <g>
       <use style="fill:#ffffff;stroke:#ffffff;stroke-width:0.8;" x="498.507371" xlink:href="#m4474cf66ac" y="576.72"/>
      </g>
     </g>
     <g id="text_6">
      <!-- 1000 -->
      <defs>
       <path d="M 12.40625 8.296875 
L 28.515625 8.296875 
L 28.515625 63.921875 
L 10.984375 60.40625 
L 10.984375 69.390625 
L 28.421875 72.90625 
L 38.28125 72.90625 
L 38.28125 8.296875 
L 54.390625 8.296875 
L 54.390625 0 
L 12.40625 0 
z
" id="DejaVuSans-31"/>
      </defs>
      <g style="fill:#ffffff;" transform="translate(481.964871 593.597969)scale(0.13 -0.13)">
       <use xlink:href="#DejaVuSans-31"/>
       <use x="63.623047" xlink:href="#DejaVuSans-30"/>
       <use x="127.246094" xlink:href="#DejaVuSans-30"/>
       <use x="190.869141" xlink:href="#DejaVuSans-30"/>
      </g>
     </g>
    </g>
    <g id="text_7">
     <!-- Time (MC steps) -->
     <defs>
      <path d="M -0.296875 72.90625 
L 61.375 72.90625 
L 61.375 64.59375 
L 35.5 64.59375 
L 35.5 0 
L 25.59375 0 
L 25.59375 64.59375 
L -0.296875 64.59375 
z
" id="DejaVuSans-54"/>
      <path d="M 9.421875 54.6875 
L 18.40625 54.6875 
L 18.40625 0 
L 9.421875 0 
z
M 9.421875 75.984375 
L 18.40625 75.984375 
L 18.40625 64.59375 
L 9.421875 64.59375 
z
" id="DejaVuSans-69"/>
      <path d="M 52 44.1875 
Q 55.375 50.25 60.0625 53.125 
Q 64.75 56 71.09375 56 
Q 79.640625 56 84.28125 50.015625 
Q 88.921875 44.046875 88.921875 33.015625 
L 88.921875 0 
L 79.890625 0 
L 79.890625 32.71875 
Q 79.890625 40.578125 77.09375 44.375 
Q 74.3125 48.1875 68.609375 48.1875 
Q 61.625 48.1875 57.5625 43.546875 
Q 53.515625 38.921875 53.515625 30.90625 
L 53.515625 0 
L 44.484375 0 
L 44.484375 32.71875 
Q 44.484375 40.625 41.703125 44.40625 
Q 38.921875 48.1875 33.109375 48.1875 
Q 26.21875 48.1875 22.15625 43.53125 
Q 18.109375 38.875 18.109375 30.90625 
L 18.109375 0 
L 9.078125 0 
L 9.078125 54.6875 
L 18.109375 54.6875 
L 18.109375 46.1875 
Q 21.1875 51.21875 25.484375 53.609375 
Q 29.78125 56 35.6875 56 
Q 41.65625 56 45.828125 52.96875 
Q 50 49.953125 52 44.1875 
z
" id="DejaVuSans-6d"/>
      <path d="M 56.203125 29.59375 
L 56.203125 25.203125 
L 14.890625 25.203125 
Q 15.484375 15.921875 20.484375 11.0625 
Q 25.484375 6.203125 34.421875 6.203125 
Q 39.59375 6.203125 44.453125 7.46875 
Q 49.3125 8.734375 54.109375 11.28125 
L 54.109375 2.78125 
Q 49.265625 0.734375 44.1875 -0.34375 
Q 39.109375 -1.421875 33.890625 -1.421875 
Q 20.796875 -1.421875 13.15625 6.1875 
Q 5.515625 13.8125 5.515625 26.8125 
Q 5.515625 40.234375 12.765625 48.109375 
Q 20.015625 56 32.328125 56 
Q 43.359375 56 49.78125 48.890625 
Q 56.203125 41.796875 56.203125 29.59375 
z
M 47.21875 32.234375 
Q 47.125 39.59375 43.09375 43.984375 
Q 39.0625 48.390625 32.421875 48.390625 
Q 24.90625 48.390625 20.390625 44.140625 
Q 15.875 39.890625 15.1875 32.171875 
z
" id="DejaVuSans-65"/>
      <path id="DejaVuSans-20"/>
      <path d="M 31 75.875 
Q 24.46875 64.65625 21.28125 53.65625 
Q 18.109375 42.671875 18.109375 31.390625 
Q 18.109375 20.125 21.3125 9.0625 
Q 24.515625 -2 31 -13.1875 
L 23.1875 -13.1875 
Q 15.875 -1.703125 12.234375 9.375 
Q 8.59375 20.453125 8.59375 31.390625 
Q 8.59375 42.28125 12.203125 53.3125 
Q 15.828125 64.359375 23.1875 75.875 
z
" id="DejaVuSans-28"/>
      <path d="M 9.8125 72.90625 
L 24.515625 72.90625 
L 43.109375 23.296875 
L 61.8125 72.90625 
L 76.515625 72.90625 
L 76.515625 0 
L 66.890625 0 
L 66.890625 64.015625 
L 48.09375 14.015625 
L 38.1875 14.015625 
L 19.390625 64.015625 
L 19.390625 0 
L 9.8125 0 
z
" id="DejaVuSans-4d"/>
      <path d="M 64.40625 67.28125 
L 64.40625 56.890625 
Q 59.421875 61.53125 53.78125 63.8125 
Q 48.140625 66.109375 41.796875 66.109375 
Q 29.296875 66.109375 22.65625 58.46875 
Q 16.015625 50.828125 16.015625 36.375 
Q 16.015625 21.96875 22.65625 14.328125 
Q 29.296875 6.6875 41.796875 6.6875 
Q 48.140625 6.6875 53.78125 8.984375 
Q 59.421875 11.28125 64.40625 15.921875 
L 64.40625 5.609375 
Q 59.234375 2.09375 53.4375 0.328125 
Q 47.65625 -1.421875 41.21875 -1.421875 
Q 24.65625 -1.421875 15.125 8.703125 
Q 5.609375 18.84375 5.609375 36.375 
Q 5.609375 53.953125 15.125 64.078125 
Q 24.65625 74.21875 41.21875 74.21875 
Q 47.75 74.21875 53.53125 72.484375 
Q 59.328125 70.75 64.40625 67.28125 
z
" id="DejaVuSans-43"/>
      <path d="M 44.28125 53.078125 
L 44.28125 44.578125 
Q 40.484375 46.53125 36.375 47.5 
Q 32.28125 48.484375 27.875 48.484375 
Q 21.1875 48.484375 17.84375 46.4375 
Q 14.5 44.390625 14.5 40.28125 
Q 14.5 37.15625 16.890625 35.375 
Q 19.28125 33.59375 26.515625 31.984375 
L 29.59375 31.296875 
Q 39.15625 29.25 43.1875 25.515625 
Q 47.21875 21.78125 47.21875 15.09375 
Q 47.21875 7.46875 41.1875 3.015625 
Q 35.15625 -1.421875 24.609375 -1.421875 
Q 20.21875 -1.421875 15.453125 -0.5625 
Q 10.6875 0.296875 5.421875 2 
L 5.421875 11.28125 
Q 10.40625 8.6875 15.234375 7.390625 
Q 20.0625 6.109375 24.8125 6.109375 
Q 31.15625 6.109375 34.5625 8.28125 
Q 37.984375 10.453125 37.984375 14.40625 
Q 37.984375 18.0625 35.515625 20.015625 
Q 33.0625 21.96875 24.703125 23.78125 
L 21.578125 24.515625 
Q 13.234375 26.265625 9.515625 29.90625 
Q 5.8125 33.546875 5.8125 39.890625 
Q 5.8125 47.609375 11.28125 51.796875 
Q 16.75 56 26.8125 56 
Q 31.78125 56 36.171875 55.265625 
Q 40.578125 54.546875 44.28125 53.078125 
z
" id="DejaVuSans-73"/>
      <path d="M 18.3125 70.21875 
L 18.3125 54.6875 
L 36.8125 54.6875 
L 36.8125 47.703125 
L 18.3125 47.703125 
L 18.3125 18.015625 
Q 18.3125 11.328125 20.140625 9.421875 
Q 21.96875 7.515625 27.59375 7.515625 
L 36.8125 7.515625 
L 36.8125 0 
L 27.59375 0 
Q 17.1875 0 13.234375 3.875 
Q 9.28125 7.765625 9.28125 18.015625 
L 9.28125 47.703125 
L 2.6875 47.703125 
L 2.6875 54.6875 
L 9.28125 54.6875 
L 9.28125 70.21875 
z
" id="DejaVuSans-74"/>
      <path d="M 18.109375 8.203125 
L 18.109375 -20.796875 
L 9.078125 -20.796875 
L 9.078125 54.6875 
L 18.109375 54.6875 
L 18.109375 46.390625 
Q 20.953125 51.265625 25.265625 53.625 
Q 29.59375 56 35.59375 56 
Q 45.5625 56 51.78125 48.09375 
Q 58.015625 40.1875 58.015625 27.296875 
Q 58.015625 14.40625 51.78125 6.484375 
Q 45.5625 -1.421875 35.59375 -1.421875 
Q 29.59375 -1.421875 25.265625 0.953125 
Q 20.953125 3.328125 18.109375 8.203125 
z
M 48.6875 27.296875 
Q 48.6875 37.203125 44.609375 42.84375 
Q 40.53125 48.484375 33.40625 48.484375 
Q 26.265625 48.484375 22.1875 42.84375 
Q 18.109375 37.203125 18.109375 27.296875 
Q 18.109375 17.390625 22.1875 11.75 
Q 26.265625 6.109375 33.40625 6.109375 
Q 40.53125 6.109375 44.609375 11.75 
Q 48.6875 17.390625 48.6875 27.296875 
z
" id="DejaVuSans-70"/>
      <path d="M 8.015625 75.875 
L 15.828125 75.875 
Q 23.140625 64.359375 26.78125 53.3125 
Q 30.421875 42.28125 30.421875 31.390625 
Q 30.421875 20.453125 26.78125 9.375 
Q 23.140625 -1.703125 15.828125 -13.1875 
L 8.015625 -13.1875 
Q 14.5 -2 17.703125 9.0625 
Q 20.90625 20.125 20.90625 31.390625 
Q 20.90625 42.671875 17.703125 53.65625 
Q 14.5 64.65625 8.015625 75.875 
z
" id="DejaVuSans-29"/>
     </defs>
     <g style="fill:#ffffff;" transform="translate(272.326413 610.179531)scale(0.13 -0.13)">
      <use xlink:href="#DejaVuSans-54"/>
      <use x="61.037109" xlink:href="#DejaVuSans-69"/>
      <use x="88.820312" xlink:href="#DejaVuSans-6d"/>
      <use x="186.232422" xlink:href="#DejaVuSans-65"/>
      <use x="247.755859" xlink:href="#DejaVuSans-20"/>
      <use x="279.542969" xlink:href="#DejaVuSans-28"/>
      <use x="318.556641" xlink:href="#DejaVuSans-4d"/>
      <use x="404.835938" xlink:href="#DejaVuSans-43"/>
      <use x="474.660156" xlink:href="#DejaVuSans-20"/>
      <use x="506.447266" xlink:href="#DejaVuSans-73"/>
      <use x="558.546875" xlink:href="#DejaVuSans-74"/>
      <use x="597.755859" xlink:href="#DejaVuSans-65"/>
      <use x="659.279297" xlink:href="#DejaVuSans-70"/>
      <use x="722.755859" xlink:href="#DejaVuSans-73"/>
      <use x="774.855469" xlink:href="#DejaVuSans-29"/>
     </g>
    </g>
   </g>
   <g id="matplotlib.axis_2">
    <g id="ytick_1">
     <g id="line2d_7">
      <defs>
       <path d="M 0 0 
L -3.5 0 
" id="m047d87c898" style="stroke:#ffffff;stroke-width:0.8;"/>
      </defs>
      <g>
       <use style="fill:#ffffff;stroke:#ffffff;stroke-width:0.8;" x="135" xlink:href="#m047d87c898" y="535.120866"/>
      </g>
     </g>
     <g id="text_8">
      <!-- 0.0 -->
      <defs>
       <path d="M 10.6875 12.40625 
L 21 12.40625 
L 21 0 
L 10.6875 0 
z
" id="DejaVuSans-2e"/>
      </defs>
      <g style="fill:#ffffff;" transform="translate(107.325937 540.05985)scale(0.13 -0.13)">
       <use xlink:href="#DejaVuSans-30"/>
       <use x="63.623047" xlink:href="#DejaVuSans-2e"/>
       <use x="95.410156" xlink:href="#DejaVuSans-30"/>
      </g>
     </g>
    </g>
    <g id="ytick_2">
     <g id="line2d_8">
      <g>
       <use style="fill:#ffffff;stroke:#ffffff;stroke-width:0.8;" x="135" xlink:href="#m047d87c898" y="448.184693"/>
      </g>
     </g>
     <g id="text_9">
      <!-- 0.2 -->
      <g style="fill:#ffffff;" transform="translate(107.325937 453.123677)scale(0.13 -0.13)">
       <use xlink:href="#DejaVuSans-30"/>
       <use x="63.623047" xlink:href="#DejaVuSans-2e"/>
       <use x="95.410156" xlink:href="#DejaVuSans-32"/>
      </g>
     </g>
    </g>
    <g id="ytick_3">
     <g id="line2d_9">
      <g>
       <use style="fill:#ffffff;stroke:#ffffff;stroke-width:0.8;" x="135" xlink:href="#m047d87c898" y="361.24852"/>
      </g>
     </g>
     <g id="text_10">
      <!-- 0.4 -->
      <g style="fill:#ffffff;" transform="translate(107.325937 366.187504)scale(0.13 -0.13)">
       <use xlink:href="#DejaVuSans-30"/>
       <use x="63.623047" xlink:href="#DejaVuSans-2e"/>
       <use x="95.410156" xlink:href="#DejaVuSans-34"/>
      </g>
     </g>
    </g>
    <g id="ytick_4">
     <g id="line2d_10">
      <g>
       <use style="fill:#ffffff;stroke:#ffffff;stroke-width:0.8;" x="135" xlink:href="#m047d87c898" y="274.312346"/>
      </g>
     </g>
     <g id="text_11">
      <!-- 0.6 -->
      <g style="fill:#ffffff;" transform="translate(107.325937 279.251331)scale(0.13 -0.13)">
       <use xlink:href="#DejaVuSans-30"/>
       <use x="63.623047" xlink:href="#DejaVuSans-2e"/>
       <use x="95.410156" xlink:href="#DejaVuSans-36"/>
      </g>
     </g>
    </g>
    <g id="ytick_5">
     <g id="line2d_11">
      <g>
       <use style="fill:#ffffff;stroke:#ffffff;stroke-width:0.8;" x="135" xlink:href="#m047d87c898" y="187.376173"/>
      </g>
     </g>
     <g id="text_12">
      <!-- 0.8 -->
      <g style="fill:#ffffff;" transform="translate(107.325937 192.315158)scale(0.13 -0.13)">
       <use xlink:href="#DejaVuSans-30"/>
       <use x="63.623047" xlink:href="#DejaVuSans-2e"/>
       <use x="95.410156" xlink:href="#DejaVuSans-38"/>
      </g>
     </g>
    </g>
    <g id="ytick_6">
     <g id="line2d_12">
      <g>
       <use style="fill:#ffffff;stroke:#ffffff;stroke-width:0.8;" x="135" xlink:href="#m047d87c898" y="100.44"/>
      </g>
     </g>
     <g id="text_13">
      <!-- 1.0 -->
      <g style="fill:#ffffff;" transform="translate(107.325937 105.378984)scale(0.13 -0.13)">
       <use xlink:href="#DejaVuSans-31"/>
       <use x="63.623047" xlink:href="#DejaVuSans-2e"/>
       <use x="95.410156" xlink:href="#DejaVuSans-30"/>
      </g>
     </g>
    </g>
    <g id="text_14">
     <!-- Autocorrelation -->
     <defs>
      <path d="M 34.1875 63.1875 
L 20.796875 26.90625 
L 47.609375 26.90625 
z
M 28.609375 72.90625 
L 39.796875 72.90625 
L 67.578125 0 
L 57.328125 0 
L 50.6875 18.703125 
L 17.828125 18.703125 
L 11.1875 0 
L 0.78125 0 
z
" id="DejaVuSans-41"/>
      <path d="M 8.5 21.578125 
L 8.5 54.6875 
L 17.484375 54.6875 
L 17.484375 21.921875 
Q 17.484375 14.15625 20.5 10.265625 
Q 23.53125 6.390625 29.59375 6.390625 
Q 36.859375 6.390625 41.078125 11.03125 
Q 45.3125 15.671875 45.3125 23.6875 
L 45.3125 54.6875 
L 54.296875 54.6875 
L 54.296875 0 
L 45.3125 0 
L 45.3125 8.40625 
Q 42.046875 3.421875 37.71875 1 
Q 33.40625 -1.421875 27.6875 -1.421875 
Q 18.265625 -1.421875 13.375 4.4375 
Q 8.5 10.296875 8.5 21.578125 
z
M 31.109375 56 
z
" id="DejaVuSans-75"/>
      <path d="M 30.609375 48.390625 
Q 23.390625 48.390625 19.1875 42.75 
Q 14.984375 37.109375 14.984375 27.296875 
Q 14.984375 17.484375 19.15625 11.84375 
Q 23.34375 6.203125 30.609375 6.203125 
Q 37.796875 6.203125 41.984375 11.859375 
Q 46.1875 17.53125 46.1875 27.296875 
Q 46.1875 37.015625 41.984375 42.703125 
Q 37.796875 48.390625 30.609375 48.390625 
z
M 30.609375 56 
Q 42.328125 56 49.015625 48.375 
Q 55.71875 40.765625 55.71875 27.296875 
Q 55.71875 13.875 49.015625 6.21875 
Q 42.328125 -1.421875 30.609375 -1.421875 
Q 18.84375 -1.421875 12.171875 6.21875 
Q 5.515625 13.875 5.515625 27.296875 
Q 5.515625 40.765625 12.171875 48.375 
Q 18.84375 56 30.609375 56 
z
" id="DejaVuSans-6f"/>
      <path d="M 48.78125 52.59375 
L 48.78125 44.1875 
Q 44.96875 46.296875 41.140625 47.34375 
Q 37.3125 48.390625 33.40625 48.390625 
Q 24.65625 48.390625 19.8125 42.84375 
Q 14.984375 37.3125 14.984375 27.296875 
Q 14.984375 17.28125 19.8125 11.734375 
Q 24.65625 6.203125 33.40625 6.203125 
Q 37.3125 6.203125 41.140625 7.25 
Q 44.96875 8.296875 48.78125 10.40625 
L 48.78125 2.09375 
Q 45.015625 0.34375 40.984375 -0.53125 
Q 36.96875 -1.421875 32.421875 -1.421875 
Q 20.0625 -1.421875 12.78125 6.34375 
Q 5.515625 14.109375 5.515625 27.296875 
Q 5.515625 40.671875 12.859375 48.328125 
Q 20.21875 56 33.015625 56 
Q 37.15625 56 41.109375 55.140625 
Q 45.0625 54.296875 48.78125 52.59375 
z
" id="DejaVuSans-63"/>
      <path d="M 41.109375 46.296875 
Q 39.59375 47.171875 37.8125 47.578125 
Q 36.03125 48 33.890625 48 
Q 26.265625 48 22.1875 43.046875 
Q 18.109375 38.09375 18.109375 28.8125 
L 18.109375 0 
L 9.078125 0 
L 9.078125 54.6875 
L 18.109375 54.6875 
L 18.109375 46.1875 
Q 20.953125 51.171875 25.484375 53.578125 
Q 30.03125 56 36.53125 56 
Q 37.453125 56 38.578125 55.875 
Q 39.703125 55.765625 41.0625 55.515625 
z
" id="DejaVuSans-72"/>
      <path d="M 9.421875 75.984375 
L 18.40625 75.984375 
L 18.40625 0 
L 9.421875 0 
z
" id="DejaVuSans-6c"/>
      <path d="M 34.28125 27.484375 
Q 23.390625 27.484375 19.1875 25 
Q 14.984375 22.515625 14.984375 16.5 
Q 14.984375 11.71875 18.140625 8.90625 
Q 21.296875 6.109375 26.703125 6.109375 
Q 34.1875 6.109375 38.703125 11.40625 
Q 43.21875 16.703125 43.21875 25.484375 
L 43.21875 27.484375 
z
M 52.203125 31.203125 
L 52.203125 0 
L 43.21875 0 
L 43.21875 8.296875 
Q 40.140625 3.328125 35.546875 0.953125 
Q 30.953125 -1.421875 24.3125 -1.421875 
Q 15.921875 -1.421875 10.953125 3.296875 
Q 6 8.015625 6 15.921875 
Q 6 25.140625 12.171875 29.828125 
Q 18.359375 34.515625 30.609375 34.515625 
L 43.21875 34.515625 
L 43.21875 35.40625 
Q 43.21875 41.609375 39.140625 45 
Q 35.0625 48.390625 27.6875 48.390625 
Q 23 48.390625 18.546875 47.265625 
Q 14.109375 46.140625 10.015625 43.890625 
L 10.015625 52.203125 
Q 14.9375 54.109375 19.578125 55.046875 
Q 24.21875 56 28.609375 56 
Q 40.484375 56 46.34375 49.84375 
Q 52.203125 43.703125 52.203125 31.203125 
z
" id="DejaVuSans-61"/>
      <path d="M 54.890625 33.015625 
L 54.890625 0 
L 45.90625 0 
L 45.90625 32.71875 
Q 45.90625 40.484375 42.875 44.328125 
Q 39.84375 48.1875 33.796875 48.1875 
Q 26.515625 48.1875 22.3125 43.546875 
Q 18.109375 38.921875 18.109375 30.90625 
L 18.109375 0 
L 9.078125 0 
L 9.078125 54.6875 
L 18.109375 54.6875 
L 18.109375 46.1875 
Q 21.34375 51.125 25.703125 53.5625 
Q 30.078125 56 35.796875 56 
Q 45.21875 56 50.046875 50.171875 
Q 54.890625 44.34375 54.890625 33.015625 
z
" id="DejaVuSans-6e"/>
     </defs>
     <g style="fill:#ffffff;" transform="translate(100.622344 377.462656)rotate(-90)scale(0.13 -0.13)">
      <use xlink:href="#DejaVuSans-41"/>
      <use x="68.408203" xlink:href="#DejaVuSans-75"/>
      <use x="131.787109" xlink:href="#DejaVuSans-74"/>
      <use x="170.996094" xlink:href="#DejaVuSans-6f"/>
      <use x="232.177734" xlink:href="#DejaVuSans-63"/>
      <use x="287.158203" xlink:href="#DejaVuSans-6f"/>
      <use x="348.339844" xlink:href="#DejaVuSans-72"/>
      <use x="389.4375" xlink:href="#DejaVuSans-72"/>
      <use x="430.519531" xlink:href="#DejaVuSans-65"/>
      <use x="492.042969" xlink:href="#DejaVuSans-6c"/>
      <use x="519.826172" xlink:href="#DejaVuSans-61"/>
      <use x="581.105469" xlink:href="#DejaVuSans-74"/>
      <use x="620.314453" xlink:href="#DejaVuSans-69"/>
      <use x="648.097656" xlink:href="#DejaVuSans-6f"/>
      <use x="709.279297" xlink:href="#DejaVuSans-6e"/>
     </g>
    </g>
   </g>
   <g id="line2d_13">
    <path clip-path="url(#p32ac9315fd)" d="M 152.293388 100.44 
L 152.985816 184.013667 
L 153.678244 237.501456 
L 154.716886 289.319538 
L 156.447956 352.353105 
L 157.140384 370.538472 
L 158.871454 416.882222 
L 159.910096 437.157022 
L 161.294952 459.953858 
L 161.641166 464.316751 
L 163.372236 475.380892 
L 163.71845 476.687995 
L 164.064664 479.127572 
L 164.757092 478.772565 
L 165.103306 478.075345 
L 165.44952 479.831686 
L 166.141948 488.388745 
L 167.873018 501.37772 
L 168.219232 502.920596 
L 168.565446 505.235454 
L 168.91166 506.011344 
L 169.604088 509.112828 
L 171.335157 526.586532 
L 171.681371 527.881365 
L 173.758655 540.614216 
L 174.451083 542.764762 
L 175.143511 546.007884 
L 175.489725 545.262558 
L 176.528367 541.755494 
L 176.874581 541.44581 
L 177.567009 539.854195 
L 177.913223 540.531784 
L 178.605651 540.082346 
L 178.951865 538.848198 
L 179.298079 535.774288 
L 179.644293 534.79862 
L 179.990507 536.306014 
L 180.682935 538.051375 
L 181.375363 538.513369 
L 181.721577 537.604451 
L 182.067791 536.369887 
L 182.414005 535.64524 
L 182.760219 536.048537 
L 183.452647 534.217115 
L 184.145075 536.422058 
L 184.491289 536.628914 
L 184.837503 538.441259 
L 185.183717 539.195107 
L 185.529931 539.430114 
L 185.876145 538.792251 
L 186.222359 538.947631 
L 186.568573 538.81515 
L 186.914787 539.149225 
L 187.261001 539.016169 
L 188.299643 539.82404 
L 188.992071 539.819366 
L 189.338285 540.053383 
L 189.684499 540.143499 
L 190.376927 537.180509 
L 190.72314 536.984292 
L 191.069354 537.946285 
L 191.415568 537.826924 
L 191.761782 538.527552 
L 192.107996 538.178848 
L 192.45421 538.003843 
L 193.146638 539.369496 
L 193.492852 540.868085 
L 193.839066 541.650392 
L 194.18528 541.410632 
L 194.531494 539.484003 
L 194.877708 538.527321 
L 195.570136 535.421959 
L 196.262564 530.169576 
L 196.608778 529.546295 
L 197.301206 530.46832 
L 197.64742 529.703078 
L 198.686062 525.872471 
L 199.032276 524.167247 
L 199.37849 523.163441 
L 199.724704 522.750395 
L 200.070918 523.444264 
L 200.417132 524.51807 
L 200.763346 524.688856 
L 201.10956 525.213856 
L 201.455774 525.311549 
L 202.148202 527.54412 
L 202.494416 527.177721 
L 202.84063 526.513772 
L 203.533058 524.199935 
L 203.879272 524.496808 
L 204.225486 525.347783 
L 204.5717 527.96143 
L 204.917914 528.782439 
L 205.610342 527.618698 
L 205.956556 527.196602 
L 206.30277 526.951126 
L 206.648984 527.621065 
L 206.995198 528.046686 
L 207.341412 527.656196 
L 208.03384 525.214267 
L 208.380054 526.619464 
L 208.726268 527.044785 
L 209.072482 529.454653 
L 210.803551 544.9479 
L 211.149765 545.189844 
L 211.495979 544.377525 
L 211.842193 544.487203 
L 212.188407 545.931717 
L 212.880835 547.50519 
L 213.227049 546.878679 
L 213.919477 544.870595 
L 214.265691 545.147393 
L 214.611905 544.372392 
L 214.958119 542.939872 
L 215.304333 542.097059 
L 215.996761 538.56992 
L 216.342975 537.068532 
L 216.689189 536.501774 
L 218.074045 540.472503 
L 218.420259 540.878104 
L 219.112687 540.007897 
L 219.458901 540.819759 
L 220.151329 538.156017 
L 220.497543 536.9392 
L 220.843757 536.190869 
L 221.189971 535.906855 
L 221.536185 536.197802 
L 221.882399 535.966086 
L 222.921041 532.027929 
L 223.959683 527.151463 
L 224.652111 529.281639 
L 224.998325 529.516951 
L 225.690753 530.479686 
L 226.036967 530.737854 
L 226.729395 528.854161 
L 227.421823 523.271789 
L 227.768037 520.886663 
L 228.114251 519.552564 
L 228.460465 519.01466 
L 228.806679 518.139652 
L 229.152893 518.829123 
L 229.499107 519.059798 
L 229.845321 519.019709 
L 230.191535 520.54192 
L 230.883962 524.429352 
L 231.230176 525.056644 
L 231.57639 524.95468 
L 231.922604 525.721413 
L 232.615032 524.775692 
L 232.961246 524.62824 
L 233.30746 523.844358 
L 233.653674 522.325569 
L 233.999888 521.351538 
L 234.346102 520.749688 
L 235.03853 518.498436 
L 235.384744 516.503052 
L 236.077172 514.169303 
L 236.423386 515.363858 
L 236.7696 517.167986 
L 237.115814 518.172512 
L 237.462028 519.610619 
L 237.808242 519.018939 
L 238.50067 521.800437 
L 238.846884 522.556944 
L 239.193098 522.121869 
L 239.885526 521.652626 
L 240.23174 521.586784 
L 240.577954 521.931319 
L 240.924168 521.462511 
L 241.270382 520.549302 
L 241.616596 521.065773 
L 241.96281 522.731165 
L 242.309024 522.950837 
L 242.655238 522.147095 
L 243.001452 522.126381 
L 243.347666 521.370936 
L 243.69388 520.065681 
L 244.040094 517.303134 
L 244.386308 516.066864 
L 244.732522 516.122429 
L 245.078736 516.725748 
L 245.42495 519.454223 
L 245.771164 520.546954 
L 246.117378 520.006698 
L 246.463592 520.910858 
L 247.15602 524.07462 
L 247.848448 526.883584 
L 248.194662 527.41684 
L 248.540876 528.365535 
L 249.925732 536.050676 
L 250.271945 536.19132 
L 250.618159 536.025349 
L 250.964373 536.011038 
L 251.310587 535.660096 
L 251.656801 534.776264 
L 252.003015 533.259293 
L 252.695443 527.811114 
L 253.041657 525.287356 
L 253.387871 523.766332 
L 254.080299 522.375487 
L 254.426513 522.555668 
L 254.772727 524.823337 
L 255.118941 526.154029 
L 255.811369 526.789437 
L 256.157583 527.749766 
L 256.503797 529.459875 
L 257.196225 530.31407 
L 257.542439 532.14253 
L 257.888653 533.353491 
L 258.234867 533.832896 
L 258.581081 535.997351 
L 259.273509 538.608946 
L 259.619723 538.595242 
L 259.965937 537.701725 
L 260.658365 539.60707 
L 261.004579 541.126038 
L 261.697007 546.054781 
L 262.043221 548.038005 
L 262.735649 551.017697 
L 263.081863 552.630141 
L 263.428077 552.052611 
L 263.774291 552.480938 
L 264.120505 552.346475 
L 264.812933 554.04 
L 265.159147 553.978873 
L 265.505361 553.802932 
L 266.197789 549.598002 
L 266.544003 548.315963 
L 266.890217 546.382636 
L 267.236431 545.155303 
L 268.275073 538.974315 
L 268.621287 538.69325 
L 268.967501 538.993727 
L 270.006143 538.218737 
L 270.352356 537.233262 
L 271.737212 529.510143 
L 272.083426 529.292598 
L 273.122068 533.858386 
L 274.506924 536.144514 
L 274.853138 537.246232 
L 275.199352 537.321359 
L 275.545566 536.231747 
L 275.89178 536.828009 
L 276.237994 536.062814 
L 276.584208 536.176721 
L 277.276636 539.043623 
L 277.62285 540.33373 
L 277.969064 540.384303 
L 278.315278 539.681993 
L 278.661492 537.628332 
L 279.007706 536.838056 
L 279.35392 536.465384 
L 279.700134 536.877094 
L 280.046348 535.593593 
L 280.392562 535.126907 
L 280.738776 535.430328 
L 281.777418 538.917184 
L 282.123632 538.817332 
L 282.469846 538.031992 
L 283.508488 540.282483 
L 283.854702 540.047369 
L 284.54713 537.150255 
L 284.893344 536.505118 
L 285.239558 535.002791 
L 285.585772 535.268722 
L 286.2782 538.944437 
L 286.970628 540.400035 
L 287.663056 538.359144 
L 288.00927 535.630376 
L 288.355484 535.031298 
L 288.701698 534.739412 
L 289.047912 534.660239 
L 289.394126 534.915709 
L 289.74034 534.773847 
L 290.086553 533.668091 
L 290.432767 533.392134 
L 290.778981 533.325595 
L 291.471409 531.120519 
L 292.163837 531.565233 
L 292.856265 534.513814 
L 293.548693 535.151319 
L 294.587335 538.908181 
L 294.933549 538.315515 
L 295.625977 534.654229 
L 295.972191 534.018955 
L 296.318405 532.874937 
L 296.664619 532.850992 
L 297.010833 531.395377 
L 297.357047 531.562938 
L 299.434331 539.73514 
L 299.780545 540.031677 
L 300.126759 539.89792 
L 300.819187 536.707462 
L 301.165401 534.656321 
L 301.511615 530.766469 
L 302.204043 527.97786 
L 302.550257 528.021072 
L 302.896471 528.889093 
L 303.242685 529.02774 
L 303.588899 529.780895 
L 304.627541 526.452862 
L 304.973755 525.967311 
L 305.319969 526.460402 
L 305.666183 526.236159 
L 306.012397 526.69576 
L 306.358611 526.514584 
L 306.704825 527.248286 
L 307.051039 526.76884 
L 307.743467 523.739914 
L 308.435895 521.433569 
L 308.782109 521.591029 
L 309.128323 522.094757 
L 309.474537 521.576414 
L 310.166964 519.918637 
L 310.513178 520.382576 
L 311.205606 522.391932 
L 311.55182 522.557254 
L 312.244248 524.198468 
L 312.590462 524.333942 
L 312.936676 524.889431 
L 314.321532 532.831388 
L 314.667746 531.685734 
L 315.01396 531.328103 
L 315.360174 531.163848 
L 316.052602 534.429068 
L 316.398816 534.338958 
L 316.74503 534.471907 
L 317.091244 535.504235 
L 317.437458 534.748626 
L 317.783672 534.552933 
L 318.129886 534.141359 
L 318.4761 531.833023 
L 319.514742 527.585742 
L 319.860956 527.095368 
L 320.20717 527.145759 
L 320.553384 528.603207 
L 320.899598 529.367118 
L 321.245812 530.513964 
L 321.592026 530.807328 
L 321.93824 531.622947 
L 322.630668 529.216414 
L 322.976882 529.07995 
L 323.323096 528.537283 
L 323.66931 528.857031 
L 324.361738 531.281042 
L 324.707952 532.722804 
L 325.054166 533.415496 
L 325.746594 535.41986 
L 326.092808 535.891319 
L 326.785236 539.044475 
L 327.477664 540.13213 
L 328.170092 542.510144 
L 328.516306 542.843881 
L 329.208734 540.980399 
L 329.554948 540.706794 
L 329.901161 540.128281 
L 331.632231 546.379481 
L 331.978445 546.204769 
L 332.324659 545.644247 
L 332.670873 544.404994 
L 333.017087 544.339875 
L 333.363301 545.903798 
L 333.709515 546.942931 
L 334.055729 546.805173 
L 334.748157 545.572872 
L 335.786799 537.020056 
L 336.133013 536.09927 
L 336.479227 535.66901 
L 337.171655 537.728711 
L 337.517869 538.530869 
L 337.864083 538.25467 
L 338.210297 537.666632 
L 338.556511 537.437496 
L 339.248939 534.437577 
L 339.595153 533.437459 
L 339.941367 532.095948 
L 340.287581 531.953829 
L 340.633795 531.354737 
L 341.326223 531.048363 
L 341.672437 530.704703 
L 342.018651 531.458546 
L 342.364865 531.583485 
L 343.057293 534.275223 
L 343.403507 535.403888 
L 344.095935 536.644943 
L 344.442149 536.226696 
L 345.134577 537.633764 
L 345.827005 536.804811 
L 346.173219 536.784092 
L 346.519433 538.129358 
L 346.865647 538.625968 
L 347.211861 538.481152 
L 347.558075 537.80562 
L 347.904289 538.049971 
L 348.250503 536.853417 
L 348.596717 536.466695 
L 348.942931 537.57112 
L 349.289145 537.656127 
L 349.981572 539.093234 
L 350.327786 539.389476 
L 350.674 540.139584 
L 351.020214 540.4205 
L 351.712642 543.816057 
L 352.058856 544.60653 
L 352.40507 545.090337 
L 352.751284 544.175783 
L 353.097498 544.347985 
L 353.789926 542.89811 
L 354.828568 538.143633 
L 355.174782 538.056527 
L 355.86721 535.293237 
L 356.213424 534.357514 
L 356.559638 533.979538 
L 356.905852 534.476251 
L 357.59828 533.533532 
L 357.944494 534.133192 
L 358.290708 536.305318 
L 358.636922 537.003526 
L 359.675564 533.707365 
L 360.021778 532.58626 
L 360.367992 530.962641 
L 361.06042 529.853544 
L 361.752848 530.643027 
L 362.099062 530.523124 
L 362.445276 530.261732 
L 362.79149 531.007236 
L 363.137704 531.215803 
L 363.483918 530.597855 
L 363.830132 530.991632 
L 364.176346 532.045867 
L 364.52256 531.577998 
L 364.868774 532.37852 
L 365.214988 532.625288 
L 365.561202 532.184038 
L 365.907416 532.390081 
L 366.25363 532.050829 
L 366.599844 530.93342 
L 367.292272 527.572163 
L 368.330914 524.928847 
L 368.677128 525.369098 
L 369.023342 526.670413 
L 369.369556 525.948285 
L 370.061983 527.010832 
L 370.408197 528.499058 
L 370.754411 530.587037 
L 371.100625 531.020707 
L 371.793053 534.945813 
L 372.139267 535.11817 
L 372.485481 535.089337 
L 372.831695 535.373745 
L 373.177909 534.483267 
L 373.524123 532.982342 
L 373.870337 532.517703 
L 374.216551 532.941038 
L 374.908979 531.249759 
L 375.255193 530.125189 
L 375.601407 530.173337 
L 375.947621 531.037137 
L 376.293835 531.541852 
L 376.640049 531.112643 
L 376.986263 531.185241 
L 377.678691 532.033145 
L 378.024905 530.795407 
L 378.371119 530.651947 
L 378.717333 530.251063 
L 379.063547 530.357922 
L 379.755975 526.39236 
L 380.448403 524.695284 
L 380.794617 523.89042 
L 381.140831 523.999915 
L 381.487045 525.69446 
L 382.525687 526.893199 
L 382.871901 527.00511 
L 383.564329 527.916366 
L 383.910543 527.93403 
L 384.602971 529.059002 
L 385.641613 534.36906 
L 385.987827 534.714496 
L 386.334041 535.45039 
L 386.680255 534.889339 
L 387.026469 535.019059 
L 387.372683 535.829976 
L 388.065111 538.123146 
L 388.411325 538.028992 
L 389.103753 542.176031 
L 389.449966 542.412225 
L 389.79618 541.496722 
L 390.142394 541.6426 
L 390.488608 541.963573 
L 390.834822 542.500722 
L 391.181036 542.150658 
L 391.52725 542.060903 
L 391.873464 541.294652 
L 392.219678 539.570209 
L 392.565892 538.480078 
L 392.912106 536.635829 
L 393.25832 537.015279 
L 393.604534 537.956238 
L 394.296962 537.025394 
L 394.643176 534.80838 
L 394.98939 534.520028 
L 395.335604 534.719386 
L 395.681818 532.883602 
L 396.028032 531.91029 
L 396.374246 532.302547 
L 396.72046 532.191585 
L 397.066674 532.626558 
L 398.105316 536.820553 
L 398.45153 537.143943 
L 399.490172 534.931566 
L 399.836386 535.741899 
L 400.875028 540.333306 
L 401.221242 541.062137 
L 401.567456 539.341863 
L 401.91367 536.143315 
L 402.259884 535.653763 
L 402.606098 536.514212 
L 403.64474 540.113161 
L 403.990954 540.269383 
L 404.683382 539.219374 
L 405.029596 539.091969 
L 405.37581 540.477623 
L 406.068238 544.066045 
L 406.760666 545.935394 
L 407.10688 545.569948 
L 407.453094 544.002455 
L 407.799308 544.646083 
L 408.491736 547.916366 
L 408.83795 548.338416 
L 409.184164 547.702505 
L 409.530377 546.609266 
L 409.876591 546.435031 
L 410.222805 548.119011 
L 410.569019 548.411799 
L 410.915233 548.050882 
L 411.953875 544.42319 
L 412.300089 542.551317 
L 413.338731 539.428302 
L 413.684945 539.257176 
L 414.377373 537.077853 
L 414.723587 537.014015 
L 415.416015 540.105716 
L 415.762229 542.070786 
L 416.108443 544.876528 
L 416.800871 546.991644 
L 417.147085 547.234116 
L 417.493299 546.954332 
L 417.839513 545.950803 
L 418.185727 545.292191 
L 418.531941 545.231162 
L 418.878155 544.566558 
L 419.224369 544.248223 
L 419.570583 543.419022 
L 419.916797 542.292564 
L 420.263011 541.615083 
L 421.301653 544.359555 
L 421.647867 544.683099 
L 421.994081 543.35175 
L 422.340295 543.004215 
L 422.686509 543.01864 
L 423.032723 542.147321 
L 423.725151 538.525326 
L 424.071365 537.640737 
L 424.763793 538.973593 
L 425.802435 545.990815 
L 426.148649 546.03556 
L 426.494863 546.717847 
L 426.841077 546.549703 
L 427.187291 546.67718 
L 427.533505 546.624504 
L 427.879719 546.226793 
L 428.225933 546.267434 
L 428.572147 546.568968 
L 429.610788 544.222711 
L 429.957002 542.417126 
L 430.303216 541.728268 
L 430.64943 540.282997 
L 430.995644 537.564409 
L 431.341858 536.081236 
L 431.688072 535.542093 
L 432.034286 533.947041 
L 432.3805 533.93997 
L 432.726714 531.822199 
L 433.072928 532.274635 
L 433.765356 536.192279 
L 434.11157 537.07242 
L 434.457784 537.582379 
L 434.803998 537.419539 
L 435.150212 537.788819 
L 435.496426 540.348948 
L 436.188854 542.151463 
L 436.535068 542.391182 
L 436.881282 542.24444 
L 437.227496 543.196271 
L 437.57371 543.760697 
L 437.919924 544.724802 
L 438.266138 546.508424 
L 438.612352 547.696095 
L 438.958566 547.156358 
L 439.30478 547.027649 
L 439.997208 544.512528 
L 440.689636 544.508014 
L 441.382064 542.3949 
L 441.728278 541.282969 
L 442.074492 540.926572 
L 442.420706 541.319717 
L 442.76692 540.708546 
L 443.459348 538.557791 
L 443.805562 538.554473 
L 444.151776 539.072883 
L 444.49799 540.274491 
L 444.844204 540.287224 
L 445.536632 537.175982 
L 446.22906 533.535903 
L 447.613916 528.401111 
L 448.306344 523.479419 
L 448.652558 522.544883 
L 448.998771 522.288263 
L 449.691199 519.091645 
L 450.037413 517.887051 
L 450.383627 517.685127 
L 450.729841 515.958034 
L 451.768483 506.63217 
L 452.114697 504.879818 
L 452.460911 504.756283 
L 452.807125 505.6366 
L 453.153339 505.337433 
L 453.499553 504.794934 
L 453.845767 504.471083 
L 454.191981 503.257145 
L 454.538195 503.7772 
L 454.884409 503.278245 
L 455.230623 503.551982 
L 455.576837 503.043337 
L 455.923051 502.167684 
L 456.269265 500.524682 
L 457.654121 496.068443 
L 458.000335 493.958128 
L 458.346549 491.069362 
L 459.038977 484.27675 
L 459.385191 483.175682 
L 459.731405 482.795826 
L 460.423833 484.528867 
L 460.770047 486.395034 
L 461.116261 487.026019 
L 461.462475 488.354706 
L 461.808689 491.448585 
L 463.539759 499.75395 
L 463.885973 499.839444 
L 464.578401 503.796152 
L 465.270829 511.40771 
L 465.963257 517.694432 
L 466.309471 518.62867 
L 468.040541 527.097546 
L 468.386755 527.256638 
L 468.732969 527.585019 
L 469.079182 527.712799 
L 469.425396 529.466395 
L 469.77161 532.141043 
L 470.117824 532.840727 
L 470.464038 533.21283 
L 471.50268 535.635706 
L 472.541322 538.710039 
L 472.887536 538.041504 
L 473.926178 541.233543 
L 474.618606 541.433449 
L 474.96482 539.252453 
L 475.657248 538.145856 
L 476.003462 537.498956 
L 476.349676 538.071725 
L 476.69589 537.965942 
L 477.388318 538.433686 
L 477.734532 538.426441 
L 478.080746 537.897296 
L 478.42696 537.140514 
L 478.773174 534.896586 
L 479.465602 532.979221 
L 479.811816 532.461293 
L 480.15803 532.493713 
L 480.504244 533.161618 
L 480.850458 533.544363 
L 481.196672 533.688656 
L 481.8891 535.259492 
L 482.235314 535.384155 
L 482.927742 536.309377 
L 483.273956 535.544767 
L 483.62017 536.035268 
L 483.966384 535.243636 
L 484.312598 533.872866 
L 484.658812 533.770242 
L 485.005026 533.887791 
L 485.35124 533.487725 
L 486.043668 532.391617 
L 486.389882 532.482079 
L 486.736096 534.000986 
L 487.428524 535.625279 
L 487.774738 535.939386 
L 488.120952 537.129248 
L 488.467166 536.816157 
L 488.813379 537.579132 
L 489.159593 537.831537 
L 489.505807 537.343453 
L 489.852021 539.071772 
L 490.198235 542.073478 
L 490.544449 543.683936 
L 490.890663 544.342199 
L 491.236877 544.499715 
L 491.583091 546.777165 
L 491.929305 547.859557 
L 492.275519 547.754064 
L 492.967947 549.240472 
L 493.314161 548.729429 
L 493.660375 547.335871 
L 494.006589 546.539071 
L 494.352803 546.674133 
L 494.699017 546.20668 
L 495.045231 546.063112 
L 495.391445 543.77816 
L 495.737659 542.431185 
L 496.083873 542.165862 
L 496.430087 541.616731 
L 496.776301 540.401615 
L 497.468729 540.589541 
L 497.814943 541.032797 
L 498.161157 540.285943 
L 498.161157 540.285943 
" style="fill:none;stroke:#0000ff;stroke-linecap:square;stroke-width:1.5;"/>
   </g>
   <g id="patch_3">
    <path d="M 135 576.72 
L 135 77.76 
" style="fill:none;stroke:#ffffff;stroke-linecap:square;stroke-linejoin:miter;stroke-width:0.8;"/>
   </g>
   <g id="patch_4">
    <path d="M 515.454545 576.72 
L 515.454545 77.76 
" style="fill:none;stroke:#ffffff;stroke-linecap:square;stroke-linejoin:miter;stroke-width:0.8;"/>
   </g>
   <g id="patch_5">
    <path d="M 135 576.72 
L 515.454545 576.72 
" style="fill:none;stroke:#ffffff;stroke-linecap:square;stroke-linejoin:miter;stroke-width:0.8;"/>
   </g>
   <g id="patch_6">
    <path d="M 135 77.76 
L 515.454545 77.76 
" style="fill:none;stroke:#ffffff;stroke-linecap:square;stroke-linejoin:miter;stroke-width:0.8;"/>
   </g>
  </g>
  <g id="axes_2">
   <g id="patch_7">
    <path d="M 591.545455 576.72 
L 972 576.72 
L 972 77.76 
L 591.545455 77.76 
z
"/>
   </g>
   <g id="matplotlib.axis_3">
    <g id="xtick_7">
     <g id="line2d_14">
      <g>
       <use style="fill:#ffffff;stroke:#ffffff;stroke-width:0.8;" x="608.838843" xlink:href="#m4474cf66ac" y="576.72"/>
      </g>
     </g>
     <g id="text_15">
      <!-- 0 -->
      <g style="fill:#ffffff;" transform="translate(604.703218 593.597969)scale(0.13 -0.13)">
       <use xlink:href="#DejaVuSans-30"/>
      </g>
     </g>
    </g>
    <g id="xtick_8">
     <g id="line2d_15">
      <g>
       <use style="fill:#ffffff;stroke:#ffffff;stroke-width:0.8;" x="678.711119" xlink:href="#m4474cf66ac" y="576.72"/>
      </g>
     </g>
     <g id="text_16">
      <!-- 20 -->
      <g style="fill:#ffffff;" transform="translate(670.439869 593.597969)scale(0.13 -0.13)">
       <use xlink:href="#DejaVuSans-32"/>
       <use x="63.623047" xlink:href="#DejaVuSans-30"/>
      </g>
     </g>
    </g>
    <g id="xtick_9">
     <g id="line2d_16">
      <g>
       <use style="fill:#ffffff;stroke:#ffffff;stroke-width:0.8;" x="748.583396" xlink:href="#m4474cf66ac" y="576.72"/>
      </g>
     </g>
     <g id="text_17">
      <!-- 40 -->
      <g style="fill:#ffffff;" transform="translate(740.312146 593.597969)scale(0.13 -0.13)">
       <use xlink:href="#DejaVuSans-34"/>
       <use x="63.623047" xlink:href="#DejaVuSans-30"/>
      </g>
     </g>
    </g>
    <g id="xtick_10">
     <g id="line2d_17">
      <g>
       <use style="fill:#ffffff;stroke:#ffffff;stroke-width:0.8;" x="818.455672" xlink:href="#m4474cf66ac" y="576.72"/>
      </g>
     </g>
     <g id="text_18">
      <!-- 60 -->
      <g style="fill:#ffffff;" transform="translate(810.184422 593.597969)scale(0.13 -0.13)">
       <use xlink:href="#DejaVuSans-36"/>
       <use x="63.623047" xlink:href="#DejaVuSans-30"/>
      </g>
     </g>
    </g>
    <g id="xtick_11">
     <g id="line2d_18">
      <g>
       <use style="fill:#ffffff;stroke:#ffffff;stroke-width:0.8;" x="888.327949" xlink:href="#m4474cf66ac" y="576.72"/>
      </g>
     </g>
     <g id="text_19">
      <!-- 80 -->
      <g style="fill:#ffffff;" transform="translate(880.056699 593.597969)scale(0.13 -0.13)">
       <use xlink:href="#DejaVuSans-38"/>
       <use x="63.623047" xlink:href="#DejaVuSans-30"/>
      </g>
     </g>
    </g>
    <g id="xtick_12">
     <g id="line2d_19">
      <g>
       <use style="fill:#ffffff;stroke:#ffffff;stroke-width:0.8;" x="958.200225" xlink:href="#m4474cf66ac" y="576.72"/>
      </g>
     </g>
     <g id="text_20">
      <!-- 100 -->
      <g style="fill:#ffffff;" transform="translate(945.79335 593.597969)scale(0.13 -0.13)">
       <use xlink:href="#DejaVuSans-31"/>
       <use x="63.623047" xlink:href="#DejaVuSans-30"/>
       <use x="127.246094" xlink:href="#DejaVuSans-30"/>
      </g>
     </g>
    </g>
    <g id="text_21">
     <!-- Time (MC steps) -->
     <g style="fill:#ffffff;" transform="translate(728.871868 610.179531)scale(0.13 -0.13)">
      <use xlink:href="#DejaVuSans-54"/>
      <use x="61.037109" xlink:href="#DejaVuSans-69"/>
      <use x="88.820312" xlink:href="#DejaVuSans-6d"/>
      <use x="186.232422" xlink:href="#DejaVuSans-65"/>
      <use x="247.755859" xlink:href="#DejaVuSans-20"/>
      <use x="279.542969" xlink:href="#DejaVuSans-28"/>
      <use x="318.556641" xlink:href="#DejaVuSans-4d"/>
      <use x="404.835938" xlink:href="#DejaVuSans-43"/>
      <use x="474.660156" xlink:href="#DejaVuSans-20"/>
      <use x="506.447266" xlink:href="#DejaVuSans-73"/>
      <use x="558.546875" xlink:href="#DejaVuSans-74"/>
      <use x="597.755859" xlink:href="#DejaVuSans-65"/>
      <use x="659.279297" xlink:href="#DejaVuSans-70"/>
      <use x="722.755859" xlink:href="#DejaVuSans-73"/>
      <use x="774.855469" xlink:href="#DejaVuSans-29"/>
     </g>
    </g>
   </g>
   <g id="matplotlib.axis_4">
    <g id="ytick_7">
     <g id="line2d_20">
      <g>
       <use style="fill:#ffffff;stroke:#ffffff;stroke-width:0.8;" x="591.545455" xlink:href="#m047d87c898" y="542.956725"/>
      </g>
     </g>
     <g id="text_22">
      <!-- 0.0 -->
      <g style="fill:#ffffff;" transform="translate(563.871392 547.89571)scale(0.13 -0.13)">
       <use xlink:href="#DejaVuSans-30"/>
       <use x="63.623047" xlink:href="#DejaVuSans-2e"/>
       <use x="95.410156" xlink:href="#DejaVuSans-30"/>
      </g>
     </g>
    </g>
    <g id="ytick_8">
     <g id="line2d_21">
      <g>
       <use style="fill:#ffffff;stroke:#ffffff;stroke-width:0.8;" x="591.545455" xlink:href="#m047d87c898" y="454.45338"/>
      </g>
     </g>
     <g id="text_23">
      <!-- 0.2 -->
      <g style="fill:#ffffff;" transform="translate(563.871392 459.392365)scale(0.13 -0.13)">
       <use xlink:href="#DejaVuSans-30"/>
       <use x="63.623047" xlink:href="#DejaVuSans-2e"/>
       <use x="95.410156" xlink:href="#DejaVuSans-32"/>
      </g>
     </g>
    </g>
    <g id="ytick_9">
     <g id="line2d_22">
      <g>
       <use style="fill:#ffffff;stroke:#ffffff;stroke-width:0.8;" x="591.545455" xlink:href="#m047d87c898" y="365.950035"/>
      </g>
     </g>
     <g id="text_24">
      <!-- 0.4 -->
      <g style="fill:#ffffff;" transform="translate(563.871392 370.88902)scale(0.13 -0.13)">
       <use xlink:href="#DejaVuSans-30"/>
       <use x="63.623047" xlink:href="#DejaVuSans-2e"/>
       <use x="95.410156" xlink:href="#DejaVuSans-34"/>
      </g>
     </g>
    </g>
    <g id="ytick_10">
     <g id="line2d_23">
      <g>
       <use style="fill:#ffffff;stroke:#ffffff;stroke-width:0.8;" x="591.545455" xlink:href="#m047d87c898" y="277.44669"/>
      </g>
     </g>
     <g id="text_25">
      <!-- 0.6 -->
      <g style="fill:#ffffff;" transform="translate(563.871392 282.385674)scale(0.13 -0.13)">
       <use xlink:href="#DejaVuSans-30"/>
       <use x="63.623047" xlink:href="#DejaVuSans-2e"/>
       <use x="95.410156" xlink:href="#DejaVuSans-36"/>
      </g>
     </g>
    </g>
    <g id="ytick_11">
     <g id="line2d_24">
      <g>
       <use style="fill:#ffffff;stroke:#ffffff;stroke-width:0.8;" x="591.545455" xlink:href="#m047d87c898" y="188.943345"/>
      </g>
     </g>
     <g id="text_26">
      <!-- 0.8 -->
      <g style="fill:#ffffff;" transform="translate(563.871392 193.882329)scale(0.13 -0.13)">
       <use xlink:href="#DejaVuSans-30"/>
       <use x="63.623047" xlink:href="#DejaVuSans-2e"/>
       <use x="95.410156" xlink:href="#DejaVuSans-38"/>
      </g>
     </g>
    </g>
    <g id="ytick_12">
     <g id="line2d_25">
      <g>
       <use style="fill:#ffffff;stroke:#ffffff;stroke-width:0.8;" x="591.545455" xlink:href="#m047d87c898" y="100.44"/>
      </g>
     </g>
     <g id="text_27">
      <!-- 1.0 -->
      <g style="fill:#ffffff;" transform="translate(563.871392 105.378984)scale(0.13 -0.13)">
       <use xlink:href="#DejaVuSans-31"/>
       <use x="63.623047" xlink:href="#DejaVuSans-2e"/>
       <use x="95.410156" xlink:href="#DejaVuSans-30"/>
      </g>
     </g>
    </g>
    <g id="text_28">
     <!-- Autocorrelation -->
     <g style="fill:#ffffff;" transform="translate(557.167798 377.462656)rotate(-90)scale(0.13 -0.13)">
      <use xlink:href="#DejaVuSans-41"/>
      <use x="68.408203" xlink:href="#DejaVuSans-75"/>
      <use x="131.787109" xlink:href="#DejaVuSans-74"/>
      <use x="170.996094" xlink:href="#DejaVuSans-6f"/>
      <use x="232.177734" xlink:href="#DejaVuSans-63"/>
      <use x="287.158203" xlink:href="#DejaVuSans-6f"/>
      <use x="348.339844" xlink:href="#DejaVuSans-72"/>
      <use x="389.4375" xlink:href="#DejaVuSans-72"/>
      <use x="430.519531" xlink:href="#DejaVuSans-65"/>
      <use x="492.042969" xlink:href="#DejaVuSans-6c"/>
      <use x="519.826172" xlink:href="#DejaVuSans-61"/>
      <use x="581.105469" xlink:href="#DejaVuSans-74"/>
      <use x="620.314453" xlink:href="#DejaVuSans-69"/>
      <use x="648.097656" xlink:href="#DejaVuSans-6f"/>
      <use x="709.279297" xlink:href="#DejaVuSans-6e"/>
     </g>
    </g>
   </g>
   <g id="line2d_26">
    <path clip-path="url(#pc6b215ece2)" d="M 608.838843 100.44 
L 612.332457 147.348929 
L 615.826071 185.520224 
L 619.319684 215.663344 
L 622.813298 239.972221 
L 626.306912 259.042469 
L 629.800526 276.612153 
L 633.29414 292.724411 
L 636.787754 306.285282 
L 640.281367 319.885281 
L 643.774981 332.483967 
L 647.268595 344.576777 
L 650.762209 356.894266 
L 654.255823 367.481201 
L 657.749437 375.407455 
L 661.24305 385.101948 
L 664.736664 395.160377 
L 668.230278 404.155935 
L 671.723892 413.792344 
L 675.217506 422.58663 
L 678.711119 430.228212 
L 682.204733 437.383057 
L 685.698347 443.226917 
L 689.191961 449.319805 
L 692.685575 456.833802 
L 696.179189 462.271141 
L 699.672802 466.434705 
L 703.166416 470.876246 
L 706.66003 473.208828 
L 710.153644 475.137328 
L 713.647258 477.369467 
L 717.140872 480.698203 
L 720.634485 482.139837 
L 724.128099 483.470503 
L 727.621713 485.954057 
L 731.115327 485.797995 
L 734.608941 485.592651 
L 738.102554 484.882862 
L 741.596168 486.670864 
L 745.089782 491.471395 
L 748.583396 495.382178 
L 752.07701 498.002486 
L 755.570624 501.033394 
L 759.064237 503.266208 
L 762.557851 506.036427 
L 766.051465 508.605302 
L 769.545079 510.175991 
L 773.038693 512.532578 
L 776.532307 513.322454 
L 780.02592 514.7479 
L 783.519534 516.479849 
L 787.013148 520.032863 
L 790.506762 524.469878 
L 794.000376 527.66009 
L 797.493989 531.625136 
L 800.987603 534.268546 
L 804.481217 535.58672 
L 807.974831 537.711678 
L 811.468445 539.536161 
L 814.962059 542.159771 
L 818.455672 543.397929 
L 821.949286 545.821818 
L 825.4429 548.549102 
L 828.936514 549.585079 
L 832.430128 550.738415 
L 835.923742 552.26664 
L 839.417355 554.04 
L 842.910969 553.281239 
L 846.404583 552.056847 
L 849.898197 551.030759 
L 853.391811 549.710954 
L 856.885424 549.395687 
L 860.379038 548.550424 
L 863.872652 547.77538 
L 867.366266 548.465185 
L 870.85988 548.189217 
L 874.353494 548.007644 
L 877.847107 546.751249 
L 881.340721 543.621926 
L 884.834335 542.62867 
L 888.327949 544.163238 
L 891.821563 544.959586 
L 895.315177 545.940062 
L 898.80879 546.243267 
L 902.302404 546.410384 
L 905.796018 545.485082 
L 909.289632 544.228262 
L 912.783246 543.490552 
L 916.27686 543.901119 
L 919.770473 542.925441 
L 923.264087 542.036683 
L 926.757701 543.121223 
L 930.251315 544.281374 
L 933.744929 544.491959 
L 937.238542 546.336974 
L 940.732156 547.104411 
L 944.22577 547.343655 
L 947.719384 546.694293 
L 951.212998 546.852474 
L 954.706612 546.717605 
" style="fill:none;stroke:#0000ff;stroke-linecap:square;stroke-width:1.5;"/>
   </g>
   <g id="patch_8">
    <path d="M 591.545455 576.72 
L 591.545455 77.76 
" style="fill:none;stroke:#ffffff;stroke-linecap:square;stroke-linejoin:miter;stroke-width:0.8;"/>
   </g>
   <g id="patch_9">
    <path d="M 972 576.72 
L 972 77.76 
" style="fill:none;stroke:#ffffff;stroke-linecap:square;stroke-linejoin:miter;stroke-width:0.8;"/>
   </g>
   <g id="patch_10">
    <path d="M 591.545455 576.72 
L 972 576.72 
" style="fill:none;stroke:#ffffff;stroke-linecap:square;stroke-linejoin:miter;stroke-width:0.8;"/>
   </g>
   <g id="patch_11">
    <path d="M 591.545455 77.76 
L 972 77.76 
" style="fill:none;stroke:#ffffff;stroke-linecap:square;stroke-linejoin:miter;stroke-width:0.8;"/>
   </g>
  </g>
 </g>
 <defs>
  <clipPath id="p32ac9315fd">
   <rect height="498.96" width="380.454545" x="135" y="77.76"/>
  </clipPath>
  <clipPath id="pc6b215ece2">
   <rect height="498.96" width="380.454545" x="591.545455" y="77.76"/>
  </clipPath>
 </defs>
</svg>
